{
.appVersion = "939";
copyright = "Copyright 2016 Google Inc. All Rights Reserved.";
customParameters = (
{
name = description;
value = "Designed by Monotype design team.";
},
{
name = license;
value = "This Font Software is licensed under the SIL Open Font License, Version 1.1. This Font Software is distributed on an \"AS IS\" BASIS, WITHOUT WARRANTIES OR CONDITIONS OF ANY KIND, either express or implied. See the SIL Open Font License for the specific language, permissions and limitations governing your use of this Font Software.";
},
{
name = licenseURL;
value = "http://scripts.sil.org/OFL";
},
{
name = vendorID;
value = GOOG;
},
{
name = trademark;
value = "Noto is a trademark of Google Inc.";
},
{
name = fsType;
value = (
);
},
{
name = panose;
value = (
2,
11,
5,
2,
4,
5,
4,
2,
2,
4
);
},
{
name = unicodeRanges;
value = (
57,
108
);
},
{
name = codePageRanges;
value = (
1252
);
}
);
date = "2016-11-10 14:33:54 +0000";
designer = "Monotype Design Team";
designerURL = "http://www.monotype.com/studio";
disablesNiceNames = 1;
familyName = "Noto Sans Kharoshthi";
features = (
{

glyphs = (
{
glyphname = .notdef;
lastChange = "2016-11-10 14:33:41 +0000";
layers = (
{
layerId = "92EE8359-DCEC-4BBC-AA28-09DFA7713AD8";
paths = (
{
closed = 1;
nodes = (
"1034 0 LINE",
"1034 1462 LINE",
"193 1462 LINE",
"193 0 LINE"
);
},
{
closed = 1;
nodes = (
"297 1358 LINE",
"930 1358 LINE",
"930 104 LINE",
"297 104 LINE"
);
}
);
width = 1229;
}
);
note = .notdef;
},
{
glyphname = g4;
lastChange = "2016-11-10 14:33:41 +0000";
layers = (
{
layerId = "92EE8359-DCEC-4BBC-AA28-09DFA7713AD8";
paths = (
{
closed = 1;
nodes = (
"956 384 OFFCURVE",
"1057 722 OFFCURVE",
"1057 979 CURVE SMOOTH",
"1057 1306 OFFCURVE",
"898 1466 OFFCURVE",
"602 1466 CURVE SMOOTH",
"353 1466 OFFCURVE",
"180 1313 OFFCURVE",
"180 1098 CURVE SMOOTH",
"180 981 OFFCURVE",
"228 874 OFFCURVE",
"324 778 CURVE",
"453 885 LINE",
"386 956 OFFCURVE",
"352 1029 OFFCURVE",
"352 1104 CURVE SMOOTH",
"352 1231 OFFCURVE",
"453 1315 OFFCURVE",
"602 1315 CURVE SMOOTH",
"786 1315 OFFCURVE",
"881 1196 OFFCURVE",
"881 971 CURVE SMOOTH",
"881 735 OFFCURVE",
"771 376 OFFCURVE",
"590 12 CURVE",
"754 -33 LINE"
);
}
);
width = 1206;
}
);
note = g4;
},
{
glyphname = g5;
lastChange = "2016-11-10 14:33:41 +0000";
layers = (
{
layerId = "92EE8359-DCEC-4BBC-AA28-09DFA7713AD8";
paths = (
{
closed = 1;
nodes = (
"748 1012 OFFCURVE",
"970 1432 OFFCURVE",
"1110 1663 CURVE",
"963 1735 LINE",
"766 1402 OFFCURVE",
"578 1039 OFFCURVE",
"489 827 CURVE",
"641 768 LINE"
);
}
);
width = 0;
}
);
note = g5;
},
{
glyphname = g6;
lastChange = "2016-11-10 14:33:41 +0000";
layers = (
{
layerId = "92EE8359-DCEC-4BBC-AA28-09DFA7713AD8";
paths = (
{
closed = 1;
nodes = (
"582 -524 OFFCURVE",
"735 -344 OFFCURVE",
"795 84 CURVE",
"719 99 OFFCURVE",
"486 115 OFFCURVE",
"418 115 CURVE SMOOTH",
"159 115 OFFCURVE",
"6 -29 OFFCURVE",
"6 -260 CURVE SMOOTH",
"6 -412 OFFCURVE",
"137 -524 OFFCURVE",
"289 -524 CURVE SMOOTH"
);
},
{
closed = 1;
nodes = (
"237 -373 OFFCURVE",
"178 -312 OFFCURVE",
"178 -240 CURVE SMOOTH",
"178 -92 OFFCURVE",
"265 -18 OFFCURVE",
"418 -18 CURVE SMOOTH",
"495 -18 OFFCURVE",
"559 -22 OFFCURVE",
"610 -29 CURVE",
"568 -258 OFFCURVE",
"470 -373 OFFCURVE",
"317 -373 CURVE SMOOTH"
);
}
);
width = 0;
}
);
note = g6;
},
{
glyphname = g7;
lastChange = "2016-11-10 14:33:41 +0000";
layers = (
{
layerId = "92EE8359-DCEC-4BBC-AA28-09DFA7713AD8";
paths = (
{
closed = 1;
nodes = (
"807 -434 OFFCURVE",
"940 -347 OFFCURVE",
"940 -188 CURVE SMOOTH",
"940 -92 OFFCURVE",
"894 -31 OFFCURVE",
"803 -4 CURVE SMOOTH",
"758 9 OFFCURVE",
"678 18 OFFCURVE",
"565 22 CURVE SMOOTH",
"448 25 OFFCURVE",
"391 51 OFFCURVE",
"391 111 CURVE SMOOTH",
"391 134 OFFCURVE",
"396 152 OFFCURVE",
"406 163 CURVE SMOOTH",
"425 185 OFFCURVE",
"468 199 OFFCURVE",
"545 199 CURVE SMOOTH",
"611 199 OFFCURVE",
"695 181 OFFCURVE",
"797 145 CURVE",
"848 291 LINE",
"758 326 OFFCURVE",
"654 344 OFFCURVE",
"535 344 CURVE SMOOTH",
"342 344 OFFCURVE",
"219 245 OFFCURVE",
"219 92 CURVE SMOOTH",
"219 -8 OFFCURVE",
"266 -64 OFFCURVE",
"349 -89 CURVE SMOOTH",
"390 -102 OFFCURVE",
"471 -108 OFFCURVE",
"592 -109 CURVE SMOOTH",
"709 -112 OFFCURVE",
"764 -139 OFFCURVE",
"764 -203 CURVE SMOOTH",
"764 -230 OFFCURVE",
"748 -250 OFFCURVE",
"716 -263 CURVE SMOOTH",
"683 -276 OFFCURVE",
"627 -283 OFFCURVE",
"547 -283 CURVE SMOOTH",
"506 -283 OFFCURVE",
"457 -278 OFFCURVE",
"399 -269 CURVE SMOOTH",
"340 -260 OFFCURVE",
"301 -256 OFFCURVE",
"281 -256 CURVE SMOOTH",
"180 -256 OFFCURVE",
"108 -265 OFFCURVE",
"66 -283 CURVE",
"100 -426 LINE",
"134 -418 OFFCURVE",
"195 -414 OFFCURVE",
"283 -414 CURVE SMOOTH",
"303 -414 OFFCURVE",
"340 -417 OFFCURVE",
"393 -424 CURVE SMOOTH",
"446 -431 OFFCURVE",
"498 -434 OFFCURVE",
"547 -434 CURVE SMOOTH"
);
}
);
width = 0;
}
);
note = g7;
},
{
glyphname = g8;
lastChange = "2016-11-10 14:33:41 +0000";
layers = (
{
layerId = "92EE8359-DCEC-4BBC-AA28-09DFA7713AD8";
paths = (
{
closed = 1;
nodes = (
"876 1503 OFFCURVE",
"1160 1729 OFFCURVE",
"1352 1858 CURVE",
"1249 1978 LINE",
"1006 1811 OFFCURVE",
"778 1633 OFFCURVE",
"567 1442 CURVE",
"680 1331 LINE"
);
}
);
width = 0;
}
);
note = g8;
},
{
glyphname = g9;
lastChange = "2016-11-10 14:33:41 +0000";
layers = (
{
layerId = "92EE8359-DCEC-4BBC-AA28-09DFA7713AD8";
paths = (
{
closed = 1;
nodes = (
"255 146 OFFCURVE",
"325 269 OFFCURVE",
"384 349 CURVE SMOOTH",
"500 509 OFFCURVE",
"624 603 OFFCURVE",
"780 639 CURVE",
"690 780 LINE",
"605 760 OFFCURVE",
"526 723 OFFCURVE",
"454 668 CURVE SMOOTH",
"310 559 OFFCURVE",
"191 402 OFFCURVE",
"10 53 CURVE",
"172 -20 LINE"
);
}
);
width = 0;
}
);
note = g9;
},
{
glyphname = g10;
lastChange = "2016-11-10 14:33:41 +0000";
layers = (
{
layerId = "92EE8359-DCEC-4BBC-AA28-09DFA7713AD8";
paths = (
{
closed = 1;
nodes = (
"1302 -343 OFFCURVE",
"1329 -192 OFFCURVE",
"1329 -61 CURVE SMOOTH",
"1329 275 OFFCURVE",
"1201 504 OFFCURVE",
"944 625 CURVE",
"864 471 LINE",
"1057 383 OFFCURVE",
"1153 214 OFFCURVE",
"1153 -35 CURVE SMOOTH",
"1153 -151 OFFCURVE",
"1126 -297 OFFCURVE",
"1073 -473 CURVE",
"1249 -514 LINE"
);
}
);
width = 0;
}
);
note = g10;
},
{
glyphname = g11;
lastChange = "2016-11-10 14:33:41 +0000";
layers = (
{
layerId = "92EE8359-DCEC-4BBC-AA28-09DFA7713AD8";
paths = (
{
closed = 1;
nodes = (
"440 -553 OFFCURVE",
"526 -517 OFFCURVE",
"610 -444 CURVE",
"681 -504 OFFCURVE",
"763 -553 OFFCURVE",
"874 -553 CURVE SMOOTH",
"1058 -553 OFFCURVE",
"1194 -446 OFFCURVE",
"1194 -303 CURVE SMOOTH",
"1194 -170 OFFCURVE",
"1077 -72 OFFCURVE",
"897 -72 CURVE SMOOTH",
"867 -72 OFFCURVE",
"838 -77 OFFCURVE",
"811 -88 CURVE SMOOTH",
"755 -109 OFFCURVE",
"715 -135 OFFCURVE",
"616 -238 CURVE",
"497 -106 OFFCURVE",
"423 -72 OFFCURVE",
"330 -72 CURVE SMOOTH",
"151 -72 OFFCURVE",
"33 -170 OFFCURVE",
"33 -303 CURVE SMOOTH",
"33 -448 OFFCURVE",
"168 -553 OFFCURVE",
"352 -553 CURVE SMOOTH"
);
},
{
closed = 1;
nodes = (
"275 -418 OFFCURVE",
"223 -370 OFFCURVE",
"223 -307 CURVE SMOOTH",
"223 -262 OFFCURVE",
"254 -223 OFFCURVE",
"322 -223 CURVE SMOOTH",
"343 -223 OFFCURVE",
"365 -229 OFFCURVE",
"389 -242 CURVE SMOOTH",
"412 -255 OFFCURVE",
"453 -289 OFFCURVE",
"510 -344 CURVE",
"453 -393 OFFCURVE",
"398 -418 OFFCURVE",
"346 -418 CURVE SMOOTH"
);
},
{
closed = 1;
nodes = (
"832 -418 OFFCURVE",
"776 -393 OFFCURVE",
"717 -342 CURVE",
"763 -292 OFFCURVE",
"798 -260 OFFCURVE",
"821 -245 CURVE SMOOTH",
"844 -230 OFFCURVE",
"864 -223 OFFCURVE",
"883 -223 CURVE SMOOTH",
"956 -223 OFFCURVE",
"1004 -263 OFFCURVE",
"1004 -319 CURVE SMOOTH",
"1004 -375 OFFCURVE",
"958 -418 OFFCURVE",
"887 -418 CURVE SMOOTH"
);
}
);
width = 0;
}
);
note = g11;
},
{
glyphname = g12;
lastChange = "2016-11-10 14:33:41 +0000";
layers = (
{
layerId = "92EE8359-DCEC-4BBC-AA28-09DFA7713AD8";
paths = (
{
closed = 1;
nodes = (
"872 -578 OFFCURVE",
"1083 -444 OFFCURVE",
"1083 -240 CURVE SMOOTH",
"1083 -67 OFFCURVE",
"945 68 OFFCURVE",
"688 133 CURVE",
"616 -20 LINE",
"821 -73 OFFCURVE",
"907 -144 OFFCURVE",
"907 -248 CURVE SMOOTH",
"907 -365 OFFCURVE",
"783 -426 OFFCURVE",
"551 -426 CURVE SMOOTH",
"359 -426 OFFCURVE",
"122 -348 OFFCURVE",
"-47 -229 CURVE",
"-141 -354 LINE",
"63 -499 OFFCURVE",
"320 -578 OFFCURVE",
"561 -578 CURVE SMOOTH"
);
}
);
width = 0;
}
);
note = g12;
},
{
glyphname = g13;
lastChange = "2016-11-10 14:33:41 +0000";
layers = (
{
layerId = "92EE8359-DCEC-4BBC-AA28-09DFA7713AD8";
paths = (
{
closed = 1;
nodes = (
"918 1583 OFFCURVE",
"954 1629 OFFCURVE",
"954 1722 CURVE SMOOTH",
"954 1823 OFFCURVE",
"915 1860 OFFCURVE",
"846 1860 CURVE SMOOTH",
"775 1860 OFFCURVE",
"741 1823 OFFCURVE",
"741 1722 CURVE SMOOTH",
"741 1623 OFFCURVE",
"775 1583 OFFCURVE",
"846 1583 CURVE SMOOTH"
);
},
{
closed = 1;
nodes = (
"488 1583 OFFCURVE",
"524 1629 OFFCURVE",
"524 1722 CURVE SMOOTH",
"524 1823 OFFCURVE",
"485 1860 OFFCURVE",
"416 1860 CURVE SMOOTH",
"345 1860 OFFCURVE",
"311 1823 OFFCURVE",
"311 1722 CURVE SMOOTH",
"311 1623 OFFCURVE",
"345 1583 OFFCURVE",
"416 1583 CURVE SMOOTH"
);
}
);
width = 0;
}
);
note = g13;
},
{
glyphname = g14;
lastChange = "2016-11-10 14:33:41 +0000";
layers = (
{
layerId = "92EE8359-DCEC-4BBC-AA28-09DFA7713AD8";
paths = (
{
closed = 1;
nodes = (
"876 219 OFFCURVE",
"961 440 OFFCURVE",
"1008 629 CURVE",
"1235 573 OFFCURVE",
"1339 462 OFFCURVE",
"1339 293 CURVE SMOOTH",
"1339 218 OFFCURVE",
"1306 145 OFFCURVE",
"1239 74 CURVE",
"1368 -33 LINE",
"1467 67 OFFCURVE",
"1516 180 OFFCURVE",
"1516 307 CURVE SMOOTH",
"1516 555 OFFCURVE",
"1355 717 OFFCURVE",
"1038 778 CURVE",
"1051 845 OFFCURVE",
"1057 912 OFFCURVE",
"1057 979 CURVE SMOOTH",
"1057 1306 OFFCURVE",
"898 1466 OFFCURVE",
"602 1466 CURVE SMOOTH",
"353 1466 OFFCURVE",
"180 1313 OFFCURVE",
"180 1098 CURVE SMOOTH",
"180 981 OFFCURVE",
"228 874 OFFCURVE",
"324 778 CURVE",
"453 885 LINE",
"386 956 OFFCURVE",
"352 1029 OFFCURVE",
"352 1104 CURVE SMOOTH",
"352 1231 OFFCURVE",
"453 1315 OFFCURVE",
"602 1315 CURVE SMOOTH",
"786 1315 OFFCURVE",
"881 1196 OFFCURVE",
"881 971 CURVE SMOOTH",
"881 735 OFFCURVE",
"771 376 OFFCURVE",
"590 12 CURVE",
"754 -33 LINE"
);
}
);
width = 1628;
}
);
note = g14;
},
{
glyphname = g15;
lastChange = "2016-11-10 14:33:41 +0000";
layers = (
{
layerId = "92EE8359-DCEC-4BBC-AA28-09DFA7713AD8";
paths = (
{
closed = 1;
nodes = (
"872 81 OFFCURVE",
"932 258 OFFCURVE",
"932 369 CURVE SMOOTH",
"932 557 OFFCURVE",
"863 631 OFFCURVE",
"643 631 CURVE SMOOTH",
"412 631 OFFCURVE",
"307 708 OFFCURVE",
"307 911 CURVE SMOOTH",
"307 1196 OFFCURVE",
"402 1321 OFFCURVE",
"645 1321 CURVE SMOOTH",
"753 1321 OFFCURVE",
"904 1287 OFFCURVE",
"1004 1227 CURVE",
"1069 1372 LINE",
"970 1428 OFFCURVE",
"784 1475 OFFCURVE",
"655 1475 CURVE SMOOTH",
"306 1475 OFFCURVE",
"135 1287 OFFCURVE",
"135 907 CURVE SMOOTH",
"135 643 OFFCURVE",
"307 479 OFFCURVE",
"608 479 CURVE SMOOTH",
"708 479 OFFCURVE",
"756 450 OFFCURVE",
"756 365 CURVE SMOOTH",
"756 281 OFFCURVE",
"696 115 OFFCURVE",
"643 31 CURVE",
"788 -35 LINE"
);
}
);
width = 1174;
}
);
note = g15;
},
{
glyphname = g16;
lastChange = "2016-11-10 14:33:41 +0000";
layers = (
{
layerId = "92EE8359-DCEC-4BBC-AA28-09DFA7713AD8";
paths = (
{
closed = 1;
nodes = (
"616 166 OFFCURVE",
"700 590 OFFCURVE",
"733 727 CURVE",
"845 728 OFFCURVE",
"948 747 OFFCURVE",
"1041 782 CURVE SMOOTH",
"1227 853 OFFCURVE",
"1333 981 OFFCURVE",
"1333 1130 CURVE SMOOTH",
"1333 1286 OFFCURVE",
"1215 1393 OFFCURVE",
"1042 1393 CURVE SMOOTH",
"838 1393 OFFCURVE",
"712 1241 OFFCURVE",
"604 870 CURVE",
"459 903 OFFCURVE",
"369 990 OFFCURVE",
"369 1133 CURVE SMOOTH",
"369 1208 OFFCURVE",
"393 1284 OFFCURVE",
"440 1362 CURVE SMOOTH",
"481 1430 LINE",
"346 1499 LINE",
"251 1372 OFFCURVE",
"203 1245 OFFCURVE",
"203 1118 CURVE SMOOTH",
"203 921 OFFCURVE",
"346 780 OFFCURVE",
"567 739 CURVE",
"516 532 OFFCURVE",
"448 149 OFFCURVE",
"424 -14 CURVE",
"588 -31 LINE"
);
},
{
closed = 1;
nodes = (
"795 955 OFFCURVE",
"822 1031 OFFCURVE",
"849 1086 CURVE SMOOTH",
"901 1197 OFFCURVE",
"949 1241 OFFCURVE",
"1034 1241 CURVE SMOOTH",
"1110 1241 OFFCURVE",
"1161 1195 OFFCURVE",
"1161 1126 CURVE SMOOTH",
"1161 981 OFFCURVE",
"992 870 OFFCURVE",
"768 858 CURVE"
);
}
);
width = 1393;
}
);
note = g16;
},
{
glyphname = g17;
lastChange = "2016-11-10 14:33:41 +0000";
layers = (
{
layerId = "92EE8359-DCEC-4BBC-AA28-09DFA7713AD8";
paths = (
{
closed = 1;
nodes = (
"1134 54 OFFCURVE",
"1196 195 OFFCURVE",
"1196 307 CURVE SMOOTH",
"1196 508 OFFCURVE",
"1050 606 OFFCURVE",
"715 641 CURVE",
"733 727 LINE",
"845 728 OFFCURVE",
"948 747 OFFCURVE",
"1041 782 CURVE SMOOTH",
"1227 853 OFFCURVE",
"1333 981 OFFCURVE",
"1333 1130 CURVE SMOOTH",
"1333 1286 OFFCURVE",
"1215 1393 OFFCURVE",
"1042 1393 CURVE SMOOTH",
"838 1393 OFFCURVE",
"712 1241 OFFCURVE",
"604 870 CURVE",
"459 903 OFFCURVE",
"369 990 OFFCURVE",
"369 1133 CURVE SMOOTH",
"369 1208 OFFCURVE",
"393 1284 OFFCURVE",
"440 1362 CURVE SMOOTH",
"481 1430 LINE",
"346 1499 LINE",
"251 1372 OFFCURVE",
"203 1245 OFFCURVE",
"203 1118 CURVE SMOOTH",
"203 921 OFFCURVE",
"346 780 OFFCURVE",
"567 739 CURVE",
"516 532 OFFCURVE",
"448 149 OFFCURVE",
"424 -14 CURVE",
"588 -31 LINE",
"611 130 OFFCURVE",
"643 309 OFFCURVE",
"686 506 CURVE",
"767 494 OFFCURVE",
"832 479 OFFCURVE",
"881 461 CURVE SMOOTH",
"978 425 OFFCURVE",
"1020 381 OFFCURVE",
"1020 293 CURVE SMOOTH",
"1020 218 OFFCURVE",
"987 145 OFFCURVE",
"920 74 CURVE",
"1049 -33 LINE"
);
},
{
closed = 1;
nodes = (
"795 955 OFFCURVE",
"822 1031 OFFCURVE",
"849 1086 CURVE SMOOTH",
"901 1197 OFFCURVE",
"949 1241 OFFCURVE",
"1034 1241 CURVE SMOOTH",
"1110 1241 OFFCURVE",
"1161 1195 OFFCURVE",
"1161 1126 CURVE SMOOTH",
"1161 981 OFFCURVE",
"992 870 OFFCURVE",
"768 858 CURVE"
);
}
);
width = 1393;
}
);
note = g17;
},
{
glyphname = g18;
lastChange = "2016-11-10 14:33:41 +0000";
layers = (
{
layerId = "92EE8359-DCEC-4BBC-AA28-09DFA7713AD8";
paths = (
{
closed = 1;
nodes = (
"869 210 OFFCURVE",
"1026 455 OFFCURVE",
"1026 655 CURVE SMOOTH",
"1026 840 OFFCURVE",
"919 944 OFFCURVE",
"705 965 CURVE",
"802 1029 OFFCURVE",
"1000 1250 OFFCURVE",
"1083 1389 CURVE",
"961 1473 LINE",
"910 1403 OFFCURVE",
"872 1357 OFFCURVE",
"846 1334 CURVE SMOOTH",
"794 1288 OFFCURVE",
"736 1262 OFFCURVE",
"659 1262 CURVE SMOOTH",
"523 1262 OFFCURVE",
"383 1374 OFFCURVE",
"342 1501 CURVE",
"203 1415 LINE",
"225 1362 OFFCURVE",
"260 1311 OFFCURVE",
"307 1262 CURVE SMOOTH",
"401 1162 OFFCURVE",
"524 1100 OFFCURVE",
"649 1100 CURVE",
"688 1104 LINE",
"635 1052 OFFCURVE",
"490 973 OFFCURVE",
"383 932 CURVE",
"420 791 LINE",
"479 814 OFFCURVE",
"576 827 OFFCURVE",
"637 827 CURVE SMOOTH",
"762 827 OFFCURVE",
"850 759 OFFCURVE",
"850 651 CURVE SMOOTH",
"850 486 OFFCURVE",
"746 308 OFFCURVE",
"467 53 CURVE",
"596 -35 LINE"
);
}
);
width = 1196;
}
);
note = g18;
},
{
glyphname = g19;
lastChange = "2016-11-10 14:33:41 +0000";
layers = (
{
layerId = "92EE8359-DCEC-4BBC-AA28-09DFA7713AD8";
paths = (
{
closed = 1;
nodes = (
"675 205 OFFCURVE",
"761 556 OFFCURVE",
"868 881 CURVE",
"1040 832 OFFCURVE",
"1130 714 OFFCURVE",
"1130 547 CURVE SMOOTH",
"1130 454 OFFCURVE",
"1083 314 OFFCURVE",
"1018 207 CURVE",
"1163 141 LINE",
"1247 258 OFFCURVE",
"1307 445 OFFCURVE",
"1307 561 CURVE SMOOTH",
"1307 793 OFFCURVE",
"1171 962 OFFCURVE",
"934 1026 CURVE",
"981 1090 OFFCURVE",
"1047 1138 OFFCURVE",
"1114 1191 CURVE SMOOTH",
"1181 1244 OFFCURVE",
"1249 1302 OFFCURVE",
"1300 1389 CURVE",
"1167 1473 LINE",
"1046 1306 OFFCURVE",
"972 1262 OFFCURVE",
"877 1262 CURVE SMOOTH",
"744 1262 OFFCURVE",
"600 1373 OFFCURVE",
"559 1501 CURVE",
"420 1415 LINE",
"485 1258 OFFCURVE",
"654 1121 OFFCURVE",
"815 1102 CURVE",
"764 1053 LINE",
"741 1055 LINE",
"717 1055 LINE SMOOTH",
"610 1055 OFFCURVE",
"511 1036 OFFCURVE",
"421 997 CURVE SMOOTH",
"240 919 OFFCURVE",
"135 773 OFFCURVE",
"135 592 CURVE SMOOTH",
"135 475 OFFCURVE",
"183 368 OFFCURVE",
"279 272 CURVE",
"408 379 LINE",
"341 450 OFFCURVE",
"307 523 OFFCURVE",
"307 598 CURVE SMOOTH",
"307 787 OFFCURVE",
"449 903 OFFCURVE",
"690 903 CURVE SMOOTH",
"692 903 LINE",
"569 504 OFFCURVE",
"494 197 OFFCURVE",
"465 -16 CURVE",
"639 -31 LINE"
);
}
);
width = 1464;
}
);
note = g19;
},
{
glyphname = g20;
lastChange = "2016-11-10 14:33:41 +0000";
layers = (
{
layerId = "92EE8359-DCEC-4BBC-AA28-09DFA7713AD8";
paths = (
{
closed = 1;
nodes = (
"391 52 OFFCURVE",
"514 186 OFFCURVE",
"643 366 CURVE SMOOTH",
"902 726 OFFCURVE",
"1094 1139 OFFCURVE",
"1153 1442 CURVE",
"985 1470 LINE",
"956 1318 OFFCURVE",
"894 1144 OFFCURVE",
"799 948 CURVE",
"604 1151 OFFCURVE",
"446 1366 OFFCURVE",
"387 1495 CURVE",
"231 1405 LINE",
"300 1245 OFFCURVE",
"492 993 OFFCURVE",
"707 774 CURVE",
"527 457 OFFCURVE",
"332 211 OFFCURVE",
"172 90 CURVE",
"274 -35 LINE"
);
}
);
width = 1145;
}
);
note = g20;
},
{
glyphname = g21;
lastChange = "2016-11-10 14:33:41 +0000";
layers = (
{
layerId = "92EE8359-DCEC-4BBC-AA28-09DFA7713AD8";
paths = (
{
closed = 1;
nodes = (
"219 16 OFFCURVE",
"369 240 OFFCURVE",
"477 563 CURVE SMOOTH",
"516 690 LINE",
"567 677 OFFCURVE",
"632 670 OFFCURVE",
"711 670 CURVE SMOOTH",
"1008 670 OFFCURVE",
"1167 782 OFFCURVE",
"1167 991 CURVE SMOOTH",
"1167 1028 OFFCURVE",
"1162 1070 OFFCURVE",
"1152 1118 CURVE SMOOTH",
"1142 1167 OFFCURVE",
"1137 1206 OFFCURVE",
"1137 1237 CURVE SMOOTH",
"1137 1286 OFFCURVE",
"1183 1303 OFFCURVE",
"1274 1315 CURVE",
"1223 1456 LINE",
"1066 1456 OFFCURVE",
"971 1374 OFFCURVE",
"971 1241 CURVE SMOOTH",
"972 1205 OFFCURVE",
"975 1161 OFFCURVE",
"982 1109 CURVE SMOOTH",
"988 1055 OFFCURVE",
"991 1014 OFFCURVE",
"991 987 CURVE SMOOTH",
"991 944 OFFCURVE",
"982 911 OFFCURVE",
"963 886 CURVE SMOOTH",
"926 837 OFFCURVE",
"862 815 OFFCURVE",
"715 815 CURVE SMOOTH",
"658 815 OFFCURVE",
"604 821 OFFCURVE",
"553 834 CURVE",
"606 1030 OFFCURVE",
"647 1237 OFFCURVE",
"678 1454 CURVE",
"504 1468 LINE",
"463 1164 OFFCURVE",
"358 690 OFFCURVE",
"275 482 CURVE SMOOTH",
"192 274 OFFCURVE",
"87 129 OFFCURVE",
"-8 90 CURVE",
"59 -45 LINE"
);
}
);
width = 1288;
}
);
note = g21;
},
{
glyphname = g22;
lastChange = "2016-11-10 14:33:41 +0000";
layers = (
{
layerId = "92EE8359-DCEC-4BBC-AA28-09DFA7713AD8";
paths = (
{
closed = 1;
nodes = (
"536 59 OFFCURVE",
"651 123 OFFCURVE",
"728 157 CURVE SMOOTH",
"882 224 OFFCURVE",
"1042 264 OFFCURVE",
"1233 264 CURVE",
"1233 416 LINE",
"1015 416 OFFCURVE",
"806 366 OFFCURVE",
"606 266 CURVE",
"679 413 OFFCURVE",
"766 603 OFFCURVE",
"866 836 CURVE SMOOTH",
"967 1077 OFFCURVE",
"1046 1245 OFFCURVE",
"1104 1341 CURVE",
"1051 1477 LINE",
"900 1383 OFFCURVE",
"786 1319 OFFCURVE",
"709 1286 CURVE SMOOTH",
"555 1218 OFFCURVE",
"394 1178 OFFCURVE",
"203 1178 CURVE",
"203 1026 LINE",
"434 1026 OFFCURVE",
"649 1079 OFFCURVE",
"848 1184 CURVE",
"723 901 LINE SMOOTH",
"557 518 OFFCURVE",
"427 251 OFFCURVE",
"334 100 CURVE",
"385 -35 LINE"
);
}
);
width = 1368;
}
);
note = g22;
},
{
glyphname = g23;
lastChange = "2016-11-10 14:33:41 +0000";
layers = (
{
layerId = "92EE8359-DCEC-4BBC-AA28-09DFA7713AD8";
paths = (
{
closed = 1;
nodes = (
"941 315 OFFCURVE",
"1085 896 OFFCURVE",
"1085 1192 CURVE SMOOTH",
"1085 1405 OFFCURVE",
"967 1495 OFFCURVE",
"715 1495 CURVE SMOOTH",
"555 1495 OFFCURVE",
"360 1458 OFFCURVE",
"203 1399 CURVE",
"240 1257 LINE",
"395 1309 OFFCURVE",
"545 1335 OFFCURVE",
"692 1335 CURVE SMOOTH",
"844 1335 OFFCURVE",
"909 1291 OFFCURVE",
"909 1184 CURVE SMOOTH",
"909 1097 OFFCURVE",
"898 995 OFFCURVE",
"877 877 CURVE",
"818 880 OFFCURVE",
"756 881 OFFCURVE",
"690 881 CURVE SMOOTH",
"486 881 OFFCURVE",
"324 856 OFFCURVE",
"203 805 CURVE",
"240 664 LINE",
"362 709 OFFCURVE",
"513 731 OFFCURVE",
"692 731 CURVE SMOOTH",
"848 727 LINE",
"791 463 OFFCURVE",
"700 170 OFFCURVE",
"631 10 CURVE",
"793 -33 LINE"
);
}
);
width = 1257;
}
);
note = g23;
},
{
glyphname = g24;
lastChange = "2016-11-10 14:33:41 +0000";
layers = (
{
layerId = "92EE8359-DCEC-4BBC-AA28-09DFA7713AD8";
paths = (
{
closed = 1;
nodes = (
"790 305 OFFCURVE",
"1026 1120 OFFCURVE",
"1145 1403 CURVE",
"979 1448 LINE",
"929 1330 OFFCURVE",
"861 1129 OFFCURVE",
"776 844 CURVE",
"659 862 OFFCURVE",
"571 883 OFFCURVE",
"513 908 CURVE SMOOTH",
"397 956 OFFCURVE",
"348 1028 OFFCURVE",
"348 1159 CURVE SMOOTH",
"348 1230 OFFCURVE",
"379 1316 OFFCURVE",
"440 1417 CURVE",
"295 1483 LINE",
"219 1378 OFFCURVE",
"172 1273 OFFCURVE",
"172 1145 CURVE SMOOTH",
"172 1056 OFFCURVE",
"191 983 OFFCURVE",
"228 925 CURVE SMOOTH",
"302 808 OFFCURVE",
"443 741 OFFCURVE",
"735 700 CURVE",
"655 428 OFFCURVE",
"591 145 OFFCURVE",
"567 -16 CURVE",
"741 -31 LINE"
);
}
);
width = 1182;
}
);
note = g24;
},
{
glyphname = g25;
lastChange = "2016-11-10 14:33:41 +0000";
layers = (
{
layerId = "92EE8359-DCEC-4BBC-AA28-09DFA7713AD8";
paths = (
{
closed = 1;
nodes = (
"485 272 OFFCURVE",
"664 915 OFFCURVE",
"805 1307 CURVE",
"1212 1307 LINE",
"1241 1458 LINE",
"231 1458 LINE",
"203 1307 LINE",
"623 1307 LINE",
"488 930 OFFCURVE",
"307 291 OFFCURVE",
"264 -16 CURVE",
"438 -31 LINE"
);
}
);
width = 1196;
}
);
note = g25;
},
{
glyphname = g26;
lastChange = "2016-11-10 14:33:41 +0000";
layers = (
{
layerId = "92EE8359-DCEC-4BBC-AA28-09DFA7713AD8";
paths = (
{
closed = 1;
nodes = (
"457 -8 LINE",
"409 172 OFFCURVE",
"385 397 OFFCURVE",
"385 668 CURVE SMOOTH",
"385 856 OFFCURVE",
"394 1023 OFFCURVE",
"412 1169 CURVE",
"459 1086 OFFCURVE",
"557 936 OFFCURVE",
"592 891 CURVE",
"735 981 LINE",
"551 1234 OFFCURVE",
"458 1394 OFFCURVE",
"455 1460 CURVE",
"281 1475 LINE",
"238 1204 OFFCURVE",
"217 935 OFFCURVE",
"217 668 CURVE SMOOTH",
"217 433 OFFCURVE",
"240 199 OFFCURVE",
"285 -33 CURVE"
);
}
);
width = 862;
}
);
note = g26;
},
{
glyphname = g27;
lastChange = "2016-11-10 14:33:41 +0000";
layers = (
{
layerId = "92EE8359-DCEC-4BBC-AA28-09DFA7713AD8";
paths = (
{
closed = 1;
nodes = (
"447 6 OFFCURVE",
"591 67 OFFCURVE",
"721 154 CURVE SMOOTH",
"980 326 OFFCURVE",
"1141 585 OFFCURVE",
"1141 817 CURVE SMOOTH",
"1141 1040 OFFCURVE",
"1034 1128 OFFCURVE",
"801 1128 CURVE SMOOTH",
"749 1128 OFFCURVE",
"700 1125 OFFCURVE",
"653 1120 CURVE SMOOTH",
"606 1115 OFFCURVE",
"559 1112 OFFCURVE",
"512 1112 CURVE SMOOTH",
"405 1112 OFFCURVE",
"352 1147 OFFCURVE",
"352 1217 CURVE SMOOTH",
"352 1282 OFFCURVE",
"402 1335 OFFCURVE",
"483 1356 CURVE",
"432 1497 LINE",
"289 1473 OFFCURVE",
"180 1358 OFFCURVE",
"180 1221 CURVE SMOOTH",
"180 1050 OFFCURVE",
"292 952 OFFCURVE",
"487 952 CURVE SMOOTH",
"539 952 OFFCURVE",
"588 955 OFFCURVE",
"635 961 CURVE SMOOTH",
"682 966 OFFCURVE",
"729 969 OFFCURVE",
"776 969 CURVE SMOOTH",
"903 969 OFFCURVE",
"965 929 OFFCURVE",
"965 817 CURVE SMOOTH",
"965 719 OFFCURVE",
"935 622 OFFCURVE",
"876 525 CURVE SMOOTH",
"756 332 OFFCURVE",
"530 180 OFFCURVE",
"246 119 CURVE",
"289 -29 LINE"
);
}
);
width = 1231;
}
);
note = g27;
},
{
glyphname = g28;
lastChange = "2016-11-10 14:33:41 +0000";
layers = (
{
layerId = "92EE8359-DCEC-4BBC-AA28-09DFA7713AD8";
paths = (
{
closed = 1;
nodes = (
"556 182 OFFCURVE",
"654 575 OFFCURVE",
"766 952 CURVE",
"978 941 OFFCURVE",
"1138 915 OFFCURVE",
"1247 872 CURVE",
"1307 1024 LINE",
"1208 1063 OFFCURVE",
"1043 1088 OFFCURVE",
"811 1100 CURVE",
"858 1253 OFFCURVE",
"897 1366 OFFCURVE",
"928 1438 CURVE",
"762 1483 LINE",
"726 1398 OFFCURVE",
"682 1272 OFFCURVE",
"631 1104 CURVE",
"422 1101 OFFCURVE",
"262 1076 OFFCURVE",
"150 1028 CURVE",
"186 887 LINE",
"299 927 OFFCURVE",
"432 949 OFFCURVE",
"586 952 CURVE",
"473 579 OFFCURVE",
"377 185 OFFCURVE",
"350 -16 CURVE",
"524 -31 LINE"
);
}
);
width = 1321;
}
);
note = g28;
},
{
glyphname = g29;
lastChange = "2016-11-10 14:33:41 +0000";
layers = (
{
layerId = "92EE8359-DCEC-4BBC-AA28-09DFA7713AD8";
paths = (
{
closed = 1;
nodes = (
"483 -31 OFFCURVE",
"569 -11 OFFCURVE",
"649 28 CURVE SMOOTH",
"809 106 OFFCURVE",
"905 249 OFFCURVE",
"905 408 CURVE SMOOTH",
"905 469 OFFCURVE",
"896 525 OFFCURVE",
"877 577 CURVE SMOOTH",
"839 681 OFFCURVE",
"786 759 OFFCURVE",
"621 922 CURVE SMOOTH",
"540 1001 OFFCURVE",
"488 1060 OFFCURVE",
"465 1100 CURVE SMOOTH",
"442 1140 OFFCURVE",
"430 1179 OFFCURVE",
"430 1217 CURVE SMOOTH",
"430 1282 OFFCURVE",
"477 1335 OFFCURVE",
"561 1356 CURVE",
"510 1497 LINE",
"367 1473 OFFCURVE",
"258 1358 OFFCURVE",
"258 1221 CURVE SMOOTH",
"258 1170 OFFCURVE",
"266 1122 OFFCURVE",
"282 1078 CURVE SMOOTH",
"314 989 OFFCURVE",
"351 929 OFFCURVE",
"510 770 CURVE SMOOTH",
"576 705 OFFCURVE",
"622 656 OFFCURVE",
"648 621 CURVE SMOOTH",
"700 552 OFFCURVE",
"729 484 OFFCURVE",
"729 408 CURVE SMOOTH",
"729 239 OFFCURVE",
"590 125 OFFCURVE",
"389 125 CURVE SMOOTH",
"323 125 OFFCURVE",
"263 132 OFFCURVE",
"209 147 CURVE",
"172 -2 LINE",
"233 -21 OFFCURVE",
"306 -31 OFFCURVE",
"391 -31 CURVE SMOOTH"
);
}
);
width = 995;
}
);
note = g29;
},
{
glyphname = g30;
lastChange = "2016-11-10 14:33:41 +0000";
layers = (
{
layerId = "92EE8359-DCEC-4BBC-AA28-09DFA7713AD8";
paths = (
{
closed = 1;
nodes = (
"828 207 OFFCURVE",
"1006 463 OFFCURVE",
"1006 655 CURVE SMOOTH",
"1006 828 OFFCURVE",
"893 922 OFFCURVE",
"686 922 CURVE",
"758 990 OFFCURVE",
"801 1080 OFFCURVE",
"801 1176 CURVE SMOOTH",
"801 1385 OFFCURVE",
"664 1483 OFFCURVE",
"369 1483 CURVE SMOOTH",
"313 1483 OFFCURVE",
"250 1478 OFFCURVE",
"180 1468 CURVE",
"203 1323 LINE",
"252 1331 OFFCURVE",
"303 1335 OFFCURVE",
"356 1335 CURVE SMOOTH",
"535 1335 OFFCURVE",
"625 1280 OFFCURVE",
"625 1171 CURVE SMOOTH",
"625 1117 OFFCURVE",
"616 1073 OFFCURVE",
"599 1038 CURVE SMOOTH",
"564 969 OFFCURVE",
"509 928 OFFCURVE",
"342 887 CURVE",
"379 743 LINE",
"419 760 OFFCURVE",
"525 780 OFFCURVE",
"596 780 CURVE SMOOTH",
"753 780 OFFCURVE",
"829 748 OFFCURVE",
"829 647 CURVE SMOOTH",
"829 487 OFFCURVE",
"734 335 OFFCURVE",
"426 72 CURVE",
"535 -37 LINE"
);
}
);
width = 1096;
}
);
note = g30;
},
{
glyphname = g31;
lastChange = "2016-11-10 14:33:41 +0000";
layers = (
{
layerId = "92EE8359-DCEC-4BBC-AA28-09DFA7713AD8";
paths = (
{
closed = 1;
nodes = (
"661 224 OFFCURVE",
"750 514 OFFCURVE",
"750 709 CURVE SMOOTH",
"750 762 OFFCURVE",
"743 807 OFFCURVE",
"729 843 CURVE SMOOTH",
"700 914 OFFCURVE",
"654 956 OFFCURVE",
"541 999 CURVE SMOOTH",
"412 1048 OFFCURVE",
"377 1095 OFFCURVE",
"377 1178 CURVE SMOOTH",
"377 1283 OFFCURVE",
"440 1339 OFFCURVE",
"555 1339 CURVE SMOOTH",
"660 1339 OFFCURVE",
"741 1332 OFFCURVE",
"797 1317 CURVE",
"834 1466 LINE",
"779 1483 OFFCURVE",
"662 1495 OFFCURVE",
"553 1495 CURVE SMOOTH",
"346 1495 OFFCURVE",
"201 1358 OFFCURVE",
"201 1178 CURVE SMOOTH",
"201 1066 OFFCURVE",
"230 998 OFFCURVE",
"274 952 CURVE SMOOTH",
"317 906 OFFCURVE",
"373 882 OFFCURVE",
"428 858 CURVE SMOOTH",
"475 838 OFFCURVE",
"507 821 OFFCURVE",
"525 806 CURVE SMOOTH",
"560 776 OFFCURVE",
"578 735 OFFCURVE",
"578 676 CURVE SMOOTH",
"578 543 OFFCURVE",
"493 261 OFFCURVE",
"385 14 CURVE",
"530 -33 LINE"
);
}
);
width = 946;
}
);
note = g31;
},
{
glyphname = g32;
lastChange = "2016-11-10 14:33:41 +0000";
layers = (
{
layerId = "92EE8359-DCEC-4BBC-AA28-09DFA7713AD8";
paths = (
{
closed = 1;
nodes = (
"267 154 OFFCURVE",
"366 555 OFFCURVE",
"483 948 CURVE",
"762 899 OFFCURVE",
"891 783 OFFCURVE",
"891 596 CURVE SMOOTH",
"891 521 OFFCURVE",
"858 448 OFFCURVE",
"791 377 CURVE",
"920 270 LINE",
"1018 369 OFFCURVE",
"1067 482 OFFCURVE",
"1067 610 CURVE SMOOTH",
"1067 871 OFFCURVE",
"885 1041 OFFCURVE",
"526 1094 CURVE",
"574 1249 OFFCURVE",
"614 1363 OFFCURVE",
"645 1438 CURVE",
"479 1483 LINE",
"354 1172 OFFCURVE",
"121 347 OFFCURVE",
"68 -16 CURVE",
"242 -31 LINE"
);
}
);
width = 1157;
}
);
note = g32;
},
{
glyphname = g33;
lastChange = "2016-11-10 14:33:41 +0000";
layers = (
{
layerId = "92EE8359-DCEC-4BBC-AA28-09DFA7713AD8";
paths = (
{
closed = 1;
nodes = (
"446 182 OFFCURVE",
"556 621 OFFCURVE",
"655 948 CURVE",
"932 903 OFFCURVE",
"1071 786 OFFCURVE",
"1071 596 CURVE SMOOTH",
"1071 521 OFFCURVE",
"1038 448 OFFCURVE",
"971 377 CURVE",
"1100 270 LINE",
"1198 369 OFFCURVE",
"1247 482 OFFCURVE",
"1247 610 CURVE SMOOTH",
"1247 883 OFFCURVE",
"1055 1049 OFFCURVE",
"698 1096 CURVE",
"745 1245 OFFCURVE",
"784 1359 OFFCURVE",
"817 1438 CURVE",
"651 1483 LINE",
"617 1402 OFFCURVE",
"573 1275 OFFCURVE",
"520 1102 CURVE",
"357 1092 OFFCURVE",
"229 1067 OFFCURVE",
"135 1028 CURVE",
"172 887 LINE",
"261 918 OFFCURVE",
"362 937 OFFCURVE",
"473 946 CURVE",
"347 521 OFFCURVE",
"269 200 OFFCURVE",
"240 -16 CURVE",
"414 -31 LINE"
);
}
);
width = 1337;
}
);
note = g33;
},
{
glyphname = g34;
lastChange = "2016-11-10 14:33:41 +0000";
layers = (
{
layerId = "92EE8359-DCEC-4BBC-AA28-09DFA7713AD8";
paths = (
{
closed = 1;
nodes = (
"1034 452 OFFCURVE",
"1155 842 OFFCURVE",
"1155 1139 CURVE SMOOTH",
"1155 1346 OFFCURVE",
"1075 1434 OFFCURVE",
"899 1434 CURVE SMOOTH",
"842 1434 OFFCURVE",
"795 1426 OFFCURVE",
"757 1409 CURVE SMOOTH",
"680 1376 OFFCURVE",
"635 1319 OFFCURVE",
"600 1192 CURVE SMOOTH",
"571 1087 OFFCURVE",
"532 1047 OFFCURVE",
"471 1047 CURVE SMOOTH",
"396 1047 OFFCURVE",
"375 1101 OFFCURVE",
"375 1217 CURVE SMOOTH",
"375 1286 OFFCURVE",
"392 1363 OFFCURVE",
"426 1450 CURVE",
"266 1493 LINE",
"224 1412 OFFCURVE",
"203 1321 OFFCURVE",
"203 1221 CURVE SMOOTH",
"203 1005 OFFCURVE",
"294 887 OFFCURVE",
"467 887 CURVE SMOOTH",
"619 887 OFFCURVE",
"709 961 OFFCURVE",
"762 1128 CURVE SMOOTH",
"803 1253 OFFCURVE",
"830 1270 OFFCURVE",
"893 1270 CURVE SMOOTH",
"948 1270 OFFCURVE",
"979 1218 OFFCURVE",
"979 1139 CURVE SMOOTH",
"979 850 OFFCURVE",
"870 484 OFFCURVE",
"651 41 CURVE",
"791 -31 LINE"
);
}
);
width = 1290;
}
);
note = g34;
},
{
glyphname = g35;
lastChange = "2016-11-10 14:33:41 +0000";
layers = (
{
layerId = "92EE8359-DCEC-4BBC-AA28-09DFA7713AD8";
paths = (
{
closed = 1;
nodes = (
"492 174 OFFCURVE",
"584 543 OFFCURVE",
"711 948 CURVE",
"988 899 OFFCURVE",
"1118 783 OFFCURVE",
"1118 596 CURVE SMOOTH",
"1118 525 OFFCURVE",
"1087 439 OFFCURVE",
"1026 338 CURVE",
"1171 272 LINE",
"1247 377 OFFCURVE",
"1294 482 OFFCURVE",
"1294 610 CURVE SMOOTH",
"1294 874 OFFCURVE",
"1112 1041 OFFCURVE",
"756 1094 CURVE",
"781 1176 OFFCURVE",
"805 1245 OFFCURVE",
"827 1300 CURVE",
"1212 1300 LINE",
"1241 1452 LINE",
"231 1452 LINE",
"203 1300 LINE",
"645 1300 LINE",
"504 908 OFFCURVE",
"328 279 OFFCURVE",
"287 -16 CURVE",
"461 -31 LINE"
);
}
);
width = 1430;
}
);
note = g35;
},
{
glyphname = g36;
lastChange = "2016-11-10 14:33:41 +0000";
layers = (
{
layerId = "92EE8359-DCEC-4BBC-AA28-09DFA7713AD8";
paths = (
{
closed = 1;
nodes = (
"913 584 OFFCURVE",
"1011 603 OFFCURVE",
"1102 642 CURVE SMOOTH",
"1282 719 OFFCURVE",
"1389 864 OFFCURVE",
"1389 1047 CURVE SMOOTH",
"1389 1164 OFFCURVE",
"1341 1270 OFFCURVE",
"1245 1366 CURVE",
"1116 1260 LINE",
"1183 1189 OFFCURVE",
"1217 1115 OFFCURVE",
"1217 1040 CURVE SMOOTH",
"1217 851 OFFCURVE",
"1075 735 OFFCURVE",
"834 735 CURVE SMOOTH",
"559 735 OFFCURVE",
"393 867 OFFCURVE",
"393 1092 CURVE SMOOTH",
"393 1187 OFFCURVE",
"441 1328 OFFCURVE",
"506 1432 CURVE",
"360 1497 LINE",
"279 1384 OFFCURVE",
"217 1196 OFFCURVE",
"217 1077 CURVE SMOOTH",
"217 773 OFFCURVE",
"450 584 OFFCURVE",
"807 584 CURVE SMOOTH"
);
}
);
width = 1425;
}
);
note = g36;
},
{
glyphname = g37;
lastChange = "2016-11-10 14:33:41 +0000";
layers = (
{
layerId = "92EE8359-DCEC-4BBC-AA28-09DFA7713AD8";
paths = (
{
closed = 1;
nodes = (
"251 213 OFFCURVE",
"515 722 OFFCURVE",
"674 1106 CURVE",
"745 702 OFFCURVE",
"888 250 OFFCURVE",
"1036 -35 CURVE",
"1198 39 LINE",
"1018 384 OFFCURVE",
"824 1064 OFFCURVE",
"795 1475 CURVE",
"629 1462 LINE",
"612 1377 OFFCURVE",
"564 1244 OFFCURVE",
"485 1065 CURVE SMOOTH",
"328 706 OFFCURVE",
"83 240 OFFCURVE",
"-49 33 CURVE",
"96 -35 LINE"
);
}
);
width = 1288;
}
);
note = g37;
},
{
glyphname = g38;
lastChange = "2016-11-10 14:33:41 +0000";
layers = (
{
layerId = "92EE8359-DCEC-4BBC-AA28-09DFA7713AD8";
paths = (
{
closed = 1;
nodes = (
"853 280 OFFCURVE",
"1051 711 OFFCURVE",
"1051 903 CURVE SMOOTH",
"1051 1090 OFFCURVE",
"933 1165 OFFCURVE",
"680 1165 CURVE SMOOTH",
"581 1165 OFFCURVE",
"512 1167 OFFCURVE",
"472 1172 CURVE SMOOTH",
"391 1180 OFFCURVE",
"365 1194 OFFCURVE",
"365 1253 CURVE SMOOTH",
"365 1295 OFFCURVE",
"378 1360 OFFCURVE",
"403 1448 CURVE",
"240 1475 LINE",
"220 1412 OFFCURVE",
"203 1305 OFFCURVE",
"203 1221 CURVE SMOOTH",
"203 1093 OFFCURVE",
"241 1046 OFFCURVE",
"356 1023 CURVE SMOOTH",
"413 1012 OFFCURVE",
"514 1006 OFFCURVE",
"657 1006 CURVE SMOOTH",
"816 1006 OFFCURVE",
"874 978 OFFCURVE",
"874 895 CURVE SMOOTH",
"874 720 OFFCURVE",
"695 332 OFFCURVE",
"496 41 CURVE",
"645 -35 LINE"
);
}
);
width = 1141;
}
);
note = g38;
},
{
glyphname = g39;
lastChange = "2016-11-10 14:33:41 +0000";
layers = (
{
layerId = "92EE8359-DCEC-4BBC-AA28-09DFA7713AD8";
paths = (
{
closed = 1;
nodes = (
"646 90 OFFCURVE",
"679 247 OFFCURVE",
"727 441 CURVE SMOOTH",
"823 828 OFFCURVE",
"963 1271 OFFCURVE",
"1032 1438 CURVE",
"866 1483 LINE",
"827 1388 OFFCURVE",
"784 1261 OFFCURVE",
"735 1102 CURVE",
"451 1097 OFFCURVE",
"256 1073 OFFCURVE",
"150 1028 CURVE",
"186 887 LINE",
"311 928 OFFCURVE",
"462 945 OFFCURVE",
"690 952 CURVE",
"590 620 OFFCURVE",
"486 212 OFFCURVE",
"455 -16 CURVE",
"629 -31 LINE"
);
}
);
width = 1092;
}
);
note = g39;
},
{
glyphname = g40;
lastChange = "2016-11-10 14:33:41 +0000";
layers = (
{
layerId = "92EE8359-DCEC-4BBC-AA28-09DFA7713AD8";
paths = (
{
closed = 1;
nodes = (
"862 302 OFFCURVE",
"1085 811 OFFCURVE",
"1085 1096 CURVE SMOOTH",
"1085 1332 OFFCURVE",
"952 1460 OFFCURVE",
"715 1460 CURVE SMOOTH",
"555 1460 OFFCURVE",
"360 1423 OFFCURVE",
"203 1364 CURVE",
"240 1223 LINE",
"393 1274 OFFCURVE",
"543 1300 OFFCURVE",
"692 1300 CURVE SMOOTH",
"825 1300 OFFCURVE",
"909 1211 OFFCURVE",
"909 1087 CURVE SMOOTH",
"909 806 OFFCURVE",
"711 357 OFFCURVE",
"483 53 CURVE",
"625 -35 LINE"
);
}
);
width = 1176;
}
);
note = g40;
},
{
glyphname = g41;
lastChange = "2016-11-10 14:33:41 +0000";
layers = (
{
layerId = "92EE8359-DCEC-4BBC-AA28-09DFA7713AD8";
paths = (
{
closed = 1;
nodes = (
"1269 302 OFFCURVE",
"1413 807 OFFCURVE",
"1413 1096 CURVE SMOOTH",
"1413 1333 OFFCURVE",
"1279 1460 OFFCURVE",
"1042 1460 CURVE SMOOTH",
"875 1460 OFFCURVE",
"630 1421 OFFCURVE",
"451 1368 CURVE",
"403 1063 OFFCURVE",
"179 227 OFFCURVE",
"90 16 CURVE",
"252 -27 LINE",
"347 190 OFFCURVE",
"525 840 OFFCURVE",
"606 1255 CURVE",
"741 1285 OFFCURVE",
"879 1300 OFFCURVE",
"1020 1300 CURVE SMOOTH",
"1153 1300 OFFCURVE",
"1237 1211 OFFCURVE",
"1237 1087 CURVE SMOOTH",
"1237 804 OFFCURVE",
"1102 326 OFFCURVE",
"958 10 CURVE",
"1120 -33 LINE"
);
}
);
width = 1518;
}
);
note = g41;
},
{
glyphname = g42;
lastChange = "2016-11-10 14:33:41 +0000";
layers = (
{
layerId = "92EE8359-DCEC-4BBC-AA28-09DFA7713AD8";
paths = (
{
closed = 1;
nodes = (
"398 -11 OFFCURVE",
"481 67 OFFCURVE",
"559 190 CURVE SMOOTH",
"714 434 OFFCURVE",
"846 914 OFFCURVE",
"909 1286 CURVE",
"1080 1241 OFFCURVE",
"1176 1121 OFFCURVE",
"1176 952 CURVE SMOOTH",
"1176 828 OFFCURVE",
"1111 677 OFFCURVE",
"1018 584 CURVE",
"1145 487 LINE",
"1254 579 OFFCURVE",
"1352 792 OFFCURVE",
"1352 967 CURVE SMOOTH",
"1352 1067 OFFCURVE",
"1328 1154 OFFCURVE",
"1279 1229 CURVE SMOOTH",
"1181 1378 OFFCURVE",
"993 1460 OFFCURVE",
"762 1460 CURVE SMOOTH",
"656 1460 OFFCURVE",
"558 1441 OFFCURVE",
"468 1402 CURVE SMOOTH",
"287 1325 OFFCURVE",
"180 1180 OFFCURVE",
"180 997 CURVE SMOOTH",
"180 879 OFFCURVE",
"228 773 OFFCURVE",
"324 678 CURVE",
"453 784 LINE",
"386 855 OFFCURVE",
"352 929 OFFCURVE",
"352 1004 CURVE SMOOTH",
"352 1193 OFFCURVE",
"494 1309 OFFCURVE",
"735 1309 CURVE SMOOTH",
"737 1309 LINE",
"704 1116 OFFCURVE",
"661 924 OFFCURVE",
"608 735 CURVE SMOOTH",
"503 356 OFFCURVE",
"371 143 OFFCURVE",
"244 90 CURVE",
"311 -45 LINE"
);
}
);
width = 1442;
}
);
note = g42;
},
{
glyphname = g43;
lastChange = "2016-11-10 14:33:41 +0000";
layers = (
{
layerId = "92EE8359-DCEC-4BBC-AA28-09DFA7713AD8";
paths = (
{
closed = 1;
nodes = (
"300 71 OFFCURVE",
"452 311 OFFCURVE",
"512 592 CURVE",
"543 589 OFFCURVE",
"577 588 OFFCURVE",
"614 588 CURVE SMOOTH",
"696 588 OFFCURVE",
"773 605 OFFCURVE",
"844 638 CURVE SMOOTH",
"987 705 OFFCURVE",
"1071 829 OFFCURVE",
"1071 981 CURVE SMOOTH",
"1071 1050 OFFCURVE",
"1057 1107 OFFCURVE",
"1028 1152 CURVE SMOOTH",
"971 1240 OFFCURVE",
"878 1285 OFFCURVE",
"621 1317 CURVE SMOOTH",
"452 1338 OFFCURVE",
"365 1382 OFFCURVE",
"340 1479 CURVE",
"199 1427 LINE",
"214 1366 OFFCURVE",
"235 1321 OFFCURVE",
"264 1290 CURVE SMOOTH",
"320 1229 OFFCURVE",
"421 1194 OFFCURVE",
"602 1171 CURVE SMOOTH",
"821 1147 OFFCURVE",
"895 1094 OFFCURVE",
"895 977 CURVE SMOOTH",
"895 830 OFFCURVE",
"783 733 OFFCURVE",
"618 733 CURVE SMOOTH",
"579 733 LINE",
"541 735 LINE",
"541 827 OFFCURVE",
"520 914 OFFCURVE",
"496 946 CURVE",
"360 913 LINE",
"371 877 OFFCURVE",
"377 827 OFFCURVE",
"377 764 CURVE SMOOTH",
"377 493 OFFCURVE",
"227 222 OFFCURVE",
"14 90 CURVE",
"92 -45 LINE"
);
}
);
width = 1161;
}
);
note = g43;
},
{
glyphname = g44;
lastChange = "2016-11-10 14:33:41 +0000";
layers = (
{
layerId = "92EE8359-DCEC-4BBC-AA28-09DFA7713AD8";
paths = (
{
closed = 1;
nodes = (
"860 342 OFFCURVE",
"1095 1173 OFFCURVE",
"1206 1438 CURVE",
"1040 1483 LINE",
"986 1350 OFFCURVE",
"917 1139 OFFCURVE",
"834 850 CURVE",
"639 850 OFFCURVE",
"513 855 OFFCURVE",
"455 864 CURVE",
"519 952 OFFCURVE",
"551 1054 OFFCURVE",
"551 1171 CURVE SMOOTH",
"551 1300 OFFCURVE",
"504 1398 OFFCURVE",
"383 1485 CURVE",
"274 1370 LINE",
"359 1290 OFFCURVE",
"387 1234 OFFCURVE",
"387 1145 CURVE SMOOTH",
"387 1032 OFFCURVE",
"344 925 OFFCURVE",
"203 772 CURVE",
"312 728 OFFCURVE",
"473 708 OFFCURVE",
"793 700 CURVE",
"706 389 OFFCURVE",
"652 151 OFFCURVE",
"629 -16 CURVE",
"803 -31 LINE"
);
}
);
width = 1251;
}
);
note = g44;
},
{
glyphname = g45;
lastChange = "2016-11-10 14:33:41 +0000";
layers = (
{
layerId = "92EE8359-DCEC-4BBC-AA28-09DFA7713AD8";
paths = (
{
closed = 1;
nodes = (
"671 -31 OFFCURVE",
"813 0 OFFCURVE",
"905 43 CURVE",
"854 188 LINE",
"745 139 OFFCURVE",
"648 115 OFFCURVE",
"561 115 CURVE SMOOTH",
"473 115 OFFCURVE",
"428 152 OFFCURVE",
"428 240 CURVE SMOOTH",
"428 293 OFFCURVE",
"451 349 OFFCURVE",
"498 408 CURVE SMOOTH",
"544 467 OFFCURVE",
"622 537 OFFCURVE",
"733 618 CURVE SMOOTH",
"988 810 OFFCURVE",
"1079 945 OFFCURVE",
"1079 1114 CURVE SMOOTH",
"1079 1331 OFFCURVE",
"909 1464 OFFCURVE",
"625 1464 CURVE SMOOTH",
"542 1464 OFFCURVE",
"469 1448 OFFCURVE",
"405 1417 CURVE SMOOTH",
"277 1354 OFFCURVE",
"203 1235 OFFCURVE",
"203 1096 CURVE SMOOTH",
"203 978 OFFCURVE",
"251 871 OFFCURVE",
"346 776 CURVE",
"475 883 LINE",
"408 954 OFFCURVE",
"375 1027 OFFCURVE",
"375 1102 CURVE SMOOTH",
"375 1229 OFFCURVE",
"476 1313 OFFCURVE",
"625 1313 CURVE SMOOTH",
"798 1313 OFFCURVE",
"903 1227 OFFCURVE",
"903 1087 CURVE SMOOTH",
"903 962 OFFCURVE",
"862 898 OFFCURVE",
"641 729 CURVE SMOOTH",
"501 620 OFFCURVE",
"402 527 OFFCURVE",
"344 451 CURVE SMOOTH",
"285 375 OFFCURVE",
"256 305 OFFCURVE",
"256 242 CURVE SMOOTH",
"256 60 OFFCURVE",
"354 -31 OFFCURVE",
"551 -31 CURVE SMOOTH"
);
}
);
width = 1124;
}
);
note = g45;
},
{
glyphname = g46;
lastChange = "2016-11-10 14:33:41 +0000";
layers = (
{
layerId = "92EE8359-DCEC-4BBC-AA28-09DFA7713AD8";
paths = (
{
closed = 1;
nodes = (
"876 219 OFFCURVE",
"961 440 OFFCURVE",
"1008 629 CURVE",
"1235 573 OFFCURVE",
"1339 462 OFFCURVE",
"1339 293 CURVE SMOOTH",
"1339 218 OFFCURVE",
"1306 145 OFFCURVE",
"1239 74 CURVE",
"1368 -33 LINE",
"1467 67 OFFCURVE",
"1516 180 OFFCURVE",
"1516 307 CURVE SMOOTH",
"1516 550 OFFCURVE",
"1362 711 OFFCURVE",
"1053 776 CURVE",
"1100 949 OFFCURVE",
"1207 1230 OFFCURVE",
"1290 1417 CURVE",
"1128 1460 LINE",
"1089 1372 OFFCURVE",
"1055 1286 OFFCURVE",
"1024 1202 CURVE",
"961 1378 OFFCURVE",
"821 1466 OFFCURVE",
"602 1466 CURVE SMOOTH",
"353 1466 OFFCURVE",
"180 1313 OFFCURVE",
"180 1098 CURVE SMOOTH",
"180 981 OFFCURVE",
"228 874 OFFCURVE",
"324 778 CURVE",
"453 885 LINE",
"386 956 OFFCURVE",
"352 1029 OFFCURVE",
"352 1104 CURVE SMOOTH",
"352 1231 OFFCURVE",
"453 1315 OFFCURVE",
"602 1315 CURVE SMOOTH",
"786 1315 OFFCURVE",
"881 1196 OFFCURVE",
"881 971 CURVE SMOOTH",
"881 735 OFFCURVE",
"771 376 OFFCURVE",
"590 12 CURVE",
"754 -33 LINE"
);
}
);
width = 1651;
}
);
note = g46;
},
{
glyphname = g47;
lastChange = "2016-11-10 14:33:41 +0000";
layers = (
{
layerId = "92EE8359-DCEC-4BBC-AA28-09DFA7713AD8";
paths = (
{
closed = 1;
nodes = (
"998 256 OFFCURVE",
"1133 672 OFFCURVE",
"1133 852 CURVE SMOOTH",
"1133 1063 OFFCURVE",
"1018 1155 OFFCURVE",
"782 1155 CURVE SMOOTH",
"683 1155 OFFCURVE",
"577 1136 OFFCURVE",
"463 1098 CURVE",
"500 954 LINE",
"603 989 OFFCURVE",
"668 995 OFFCURVE",
"760 995 CURVE SMOOTH",
"899 995 OFFCURVE",
"956 947 OFFCURVE",
"956 844 CURVE SMOOTH",
"956 798 OFFCURVE",
"946 733 OFFCURVE",
"926 649 CURVE",
"759 593 OFFCURVE",
"671 580 OFFCURVE",
"528 580 CURVE SMOOTH",
"369 580 OFFCURVE",
"311 627 OFFCURVE",
"311 731 CURVE SMOOTH",
"311 878 OFFCURVE",
"393 1154 OFFCURVE",
"522 1454 CURVE",
"360 1497 LINE",
"210 1146 OFFCURVE",
"135 888 OFFCURVE",
"135 723 CURVE SMOOTH",
"135 510 OFFCURVE",
"253 420 OFFCURVE",
"506 420 CURVE SMOOTH",
"625 420 OFFCURVE",
"749 440 OFFCURVE",
"879 479 CURVE",
"819 287 OFFCURVE",
"762 131 OFFCURVE",
"709 10 CURVE",
"870 -33 LINE"
);
}
);
width = 1268;
}
);
note = g47;
},
{
glyphname = g48;
lastChange = "2016-11-10 14:33:41 +0000";
layers = (
{
layerId = "92EE8359-DCEC-4BBC-AA28-09DFA7713AD8";
paths = (
{
closed = 1;
nodes = (
"1149 1526 LINE",
"1178 1677 LINE",
"180 1677 LINE",
"145 1526 LINE"
);
}
);
width = 0;
}
);
note = g48;
},
{
glyphname = g49;
lastChange = "2016-11-10 14:33:41 +0000";
layers = (
{
layerId = "92EE8359-DCEC-4BBC-AA28-09DFA7713AD8";
paths = (
{
closed = 1;
nodes = (
"1479 416 LINE",
"1419 532 LINE",
"522 98 LINE",
"575 -23 LINE"
);
}
);
width = 0;
}
);
note = g49;
},
{
glyphname = g50;
lastChange = "2016-11-10 14:33:41 +0000";
layers = (
{
layerId = "92EE8359-DCEC-4BBC-AA28-09DFA7713AD8";
paths = (
{
closed = 1;
nodes = (
"620 -399 OFFCURVE",
"668 -345 OFFCURVE",
"668 -260 CURVE SMOOTH",
"668 -172 OFFCURVE",
"620 -123 OFFCURVE",
"539 -123 CURVE SMOOTH",
"460 -123 OFFCURVE",
"414 -168 OFFCURVE",
"414 -260 CURVE SMOOTH",
"414 -349 OFFCURVE",
"460 -399 OFFCURVE",
"539 -399 CURVE SMOOTH"
);
}
);
width = 0;
}
);
note = g50;
},
{
glyphname = g51;
lastChange = "2016-11-10 14:33:41 +0000";
layers = (
{
layerId = "92EE8359-DCEC-4BBC-AA28-09DFA7713AD8";
paths = (
{
closed = 1;
nodes = (
"582 -616 LINE",
"582 -377 LINE",
"832 -377 LINE",
"832 -274 LINE",
"582 -274 LINE",
"582 -93 LINE",
"450 -93 LINE",
"450 -274 LINE",
"200 -274 LINE",
"200 -377 LINE",
"450 -377 LINE",
"450 -616 LINE"
);
}
);
width = 1032;
}
);
note = g51;
},
{
glyphname = g52;
lastChange = "2016-11-10 14:33:41 +0000";
layers = (
{
layerId = "92EE8359-DCEC-4BBC-AA28-09DFA7713AD8";
paths = (
{
closed = 1;
nodes = (
"320 180 OFFCURVE",
"555 1114 OFFCURVE",
"598 1454 CURVE",
"424 1468 LINE",
"389 1189 OFFCURVE",
"155 217 OFFCURVE",
"68 12 CURVE",
"233 -33 LINE"
);
}
);
width = 666;
}
);
note = g52;
},
{
glyphname = g53;
lastChange = "2016-11-10 14:33:41 +0000";
layers = (
{
layerId = "92EE8359-DCEC-4BBC-AA28-09DFA7713AD8";
paths = (
{
closed = 1;
nodes = (
"277 69 OFFCURVE",
"354 342 OFFCURVE",
"463 786 CURVE",
"527 631 OFFCURVE",
"629 563 OFFCURVE",
"780 563 CURVE SMOOTH",
"1028 563 OFFCURVE",
"1196 785 OFFCURVE",
"1196 1098 CURVE SMOOTH",
"1196 1283 OFFCURVE",
"1175 1416 OFFCURVE",
"1133 1495 CURVE",
"973 1452 LINE",
"1014 1335 OFFCURVE",
"1024 1250 OFFCURVE",
"1024 1118 CURVE SMOOTH",
"1024 905 OFFCURVE",
"917 723 OFFCURVE",
"776 723 CURVE SMOOTH",
"708 723 OFFCURVE",
"655 764 OFFCURVE",
"617 847 CURVE SMOOTH",
"579 929 OFFCURVE",
"558 1047 OFFCURVE",
"555 1202 CURVE",
"579 1333 OFFCURVE",
"593 1417 OFFCURVE",
"598 1454 CURVE",
"424 1468 LINE",
"389 1189 OFFCURVE",
"155 217 OFFCURVE",
"68 12 CURVE",
"233 -33 LINE"
);
}
);
width = 1286;
}
);
note = g53;
},
{
glyphname = g54;
lastChange = "2016-11-10 14:33:41 +0000";
layers = (
{
layerId = "92EE8359-DCEC-4BBC-AA28-09DFA7713AD8";
paths = (
{
closed = 1;
nodes = (
"278 75 OFFCURVE",
"371 406 OFFCURVE",
"459 770 CURVE",
"514 632 OFFCURVE",
"615 563 OFFCURVE",
"760 563 CURVE SMOOTH",
"900 563 OFFCURVE",
"992 659 OFFCURVE",
"1016 834 CURVE",
"1051 658 OFFCURVE",
"1166 563 OFFCURVE",
"1329 563 CURVE SMOOTH",
"1553 563 OFFCURVE",
"1694 780 OFFCURVE",
"1694 1096 CURVE SMOOTH",
"1694 1268 OFFCURVE",
"1670 1417 OFFCURVE",
"1630 1493 CURVE",
"1470 1450 LINE",
"1501 1371 OFFCURVE",
"1522 1229 OFFCURVE",
"1522 1116 CURVE SMOOTH",
"1522 868 OFFCURVE",
"1448 723 OFFCURVE",
"1325 723 CURVE SMOOTH",
"1208 723 OFFCURVE",
"1119 897 OFFCURVE",
"1119 1110 CURVE SMOOTH",
"1119 1140 OFFCURVE",
"1121 1170 OFFCURVE",
"1124 1200 CURVE SMOOTH",
"1153 1440 LINE",
"989 1468 LINE",
"964 1236 OFFCURVE",
"947 1090 OFFCURVE",
"939 1030 CURVE SMOOTH",
"931 970 OFFCURVE",
"920 917 OFFCURVE",
"905 872 CURVE SMOOTH",
"876 781 OFFCURVE",
"832 723 OFFCURVE",
"756 723 CURVE SMOOTH",
"688 723 OFFCURVE",
"638 762 OFFCURVE",
"606 840 CURVE SMOOTH",
"573 917 OFFCURVE",
"556 1038 OFFCURVE",
"555 1202 CURVE",
"579 1333 OFFCURVE",
"593 1417 OFFCURVE",
"598 1454 CURVE",
"424 1468 LINE",
"389 1189 OFFCURVE",
"155 217 OFFCURVE",
"68 12 CURVE",
"233 -33 LINE"
);
}
);
width = 1784;
}
);
note = g54;
},
{
glyphname = g55;
lastChange = "2016-11-10 14:33:41 +0000";
layers = (
{
layerId = "92EE8359-DCEC-4BBC-AA28-09DFA7713AD8";
paths = (
{
closed = 1;
nodes = (
"1108 70 LINE",
"1067 181 OFFCURVE",
"894 421 OFFCURVE",
"678 662 CURVE",
"871 877 OFFCURVE",
"1166 1186 OFFCURVE",
"1321 1327 CURVE",
"1208 1438 LINE",
"1059 1311 OFFCURVE",
"844 1091 OFFCURVE",
"561 780 CURVE",
"425 907 OFFCURVE",
"294 1003 OFFCURVE",
"219 1038 CURVE",
"115 883 LINE",
"200 835 OFFCURVE",
"343 721 OFFCURVE",
"434 637 CURVE",
"273 450 OFFCURVE",
"151 297 OFFCURVE",
"68 176 CURVE",
"203 90 LINE",
"263 178 OFFCURVE",
"379 321 OFFCURVE",
"551 518 CURVE",
"731 317 OFFCURVE",
"891 87 OFFCURVE",
"930 -20 CURVE"
);
}
);
width = 1298;
}
);
note = g55;
},
{
glyphname = g56;
lastChange = "2016-11-10 14:33:41 +0000";
layers = (
{
layerId = "92EE8359-DCEC-4BBC-AA28-09DFA7713AD8";
paths = (
{
closed = 1;
nodes = (
"770 231 OFFCURVE",
"920 494 OFFCURVE",
"920 760 CURVE SMOOTH",
"920 1087 OFFCURVE",
"761 1247 OFFCURVE",
"465 1247 CURVE SMOOTH",
"270 1247 OFFCURVE",
"125 1157 OFFCURVE",
"68 1014 CURVE",
"223 942 LINE",
"268 1049 OFFCURVE",
"346 1096 OFFCURVE",
"465 1096 CURVE SMOOTH",
"650 1096 OFFCURVE",
"743 981 OFFCURVE",
"743 752 CURVE SMOOTH",
"743 667 OFFCURVE",
"728 587 OFFCURVE",
"697 514 CURVE SMOOTH",
"636 367 OFFCURVE",
"545 251 OFFCURVE",
"336 78 CURVE",
"469 -29 LINE"
);
}
);
width = 1010;
}
);
note = g56;
},
{
glyphname = g57;
lastChange = "2016-11-10 14:33:41 +0000";
layers = (
{
layerId = "92EE8359-DCEC-4BBC-AA28-09DFA7713AD8";
paths = (
{
closed = 1;
nodes = (
"835 56 OFFCURVE",
"977 214 OFFCURVE",
"977 422 CURVE SMOOTH",
"977 597 OFFCURVE",
"869 679 OFFCURVE",
"616 692 CURVE",
"756 768 OFFCURVE",
"809 849 OFFCURVE",
"809 958 CURVE SMOOTH",
"809 1142 OFFCURVE",
"644 1245 OFFCURVE",
"356 1245 CURVE SMOOTH",
"241 1245 OFFCURVE",
"145 1225 OFFCURVE",
"68 1186 CURVE",
"127 1042 LINE",
"215 1077 OFFCURVE",
"293 1094 OFFCURVE",
"360 1094 CURVE SMOOTH",
"515 1094 OFFCURVE",
"629 1037 OFFCURVE",
"629 954 CURVE SMOOTH",
"629 900 OFFCURVE",
"617 859 OFFCURVE",
"593 830 CURVE SMOOTH",
"544 773 OFFCURVE",
"441 729 OFFCURVE",
"258 700 CURVE",
"307 569 LINE",
"426 569 OFFCURVE",
"523 564 OFFCURVE",
"596 554 CURVE SMOOTH",
"742 534 OFFCURVE",
"801 494 OFFCURVE",
"801 397 CURVE SMOOTH",
"801 274 OFFCURVE",
"711 188 OFFCURVE",
"530 141 CURVE",
"575 -16 LINE"
);
}
);
width = 1067;
}
);
note = g57;
},
{
glyphname = g58;
lastChange = "2016-11-10 14:33:41 +0000";
layers = (
{
layerId = "92EE8359-DCEC-4BBC-AA28-09DFA7713AD8";
paths = (
{
closed = 1;
nodes = (
"448 290 OFFCURVE",
"578 697 OFFCURVE",
"578 1042 CURVE",
"485 1042 LINE",
"515 1106 OFFCURVE",
"536 1159 OFFCURVE",
"547 1200 CURVE",
"397 1257 LINE",
"312 1044 OFFCURVE",
"218 884 OFFCURVE",
"117 778 CURVE",
"260 688 LINE",
"302 733 OFFCURVE",
"348 796 OFFCURVE",
"397 879 CURVE",
"370 611 OFFCURVE",
"283 380 OFFCURVE",
"68 41 CURVE",
"229 -25 LINE"
);
}
);
width = 668;
}
);
note = g58;
},
{
glyphname = g59;
lastChange = "2016-11-10 14:33:41 +0000";
layers = (
{
layerId = "92EE8359-DCEC-4BBC-AA28-09DFA7713AD8";
paths = (
{
closed = 1;
nodes = (
"642 -12 OFFCURVE",
"1068 19 OFFCURVE",
"1141 47 CURVE",
"1102 199 LINE",
"1037 171 OFFCURVE",
"690 137 OFFCURVE",
"481 137 CURVE SMOOTH",
"384 137 OFFCURVE",
"336 179 OFFCURVE",
"336 262 CURVE SMOOTH",
"336 280 OFFCURVE",
"344 305 OFFCURVE",
"361 338 CURVE SMOOTH",
"377 370 OFFCURVE",
"425 448 OFFCURVE",
"504 571 CURVE",
"550 566 OFFCURVE",
"612 563 OFFCURVE",
"690 563 CURVE SMOOTH",
"851 563 OFFCURVE",
"976 576 OFFCURVE",
"1065 603 CURVE SMOOTH",
"1154 630 OFFCURVE",
"1198 666 OFFCURVE",
"1198 713 CURVE SMOOTH",
"1198 886 OFFCURVE",
"1186 1009 OFFCURVE",
"1126 1272 CURVE",
"981 1225 LINE",
"1015 1049 OFFCURVE",
"1032 909 OFFCURVE",
"1032 805 CURVE SMOOTH",
"1032 728 OFFCURVE",
"1002 712 OFFCURVE",
"908 702 CURVE SMOOTH",
"861 697 OFFCURVE",
"779 694 OFFCURVE",
"664 694 CURVE SMOOTH",
"618 694 LINE",
"573 696 LINE",
"608 769 OFFCURVE",
"625 830 OFFCURVE",
"625 879 CURVE SMOOTH",
"625 1079 OFFCURVE",
"523 1188 OFFCURVE",
"332 1188 CURVE SMOOTH",
"177 1188 OFFCURVE",
"68 1074 OFFCURVE",
"68 926 CURVE SMOOTH",
"68 759 OFFCURVE",
"155 651 OFFCURVE",
"348 598 CURVE",
"281 485 LINE SMOOTH",
"199 348 OFFCURVE",
"158 258 OFFCURVE",
"158 213 CURVE SMOOTH",
"158 54 OFFCURVE",
"266 -12 OFFCURVE",
"477 -12 CURVE SMOOTH"
);
},
{
closed = 1;
nodes = (
"297 747 OFFCURVE",
"240 815 OFFCURVE",
"240 922 CURVE SMOOTH",
"240 985 OFFCURVE",
"282 1036 OFFCURVE",
"334 1036 CURVE SMOOTH",
"414 1036 OFFCURVE",
"463 975 OFFCURVE",
"463 879 CURVE SMOOTH",
"463 839 OFFCURVE",
"446 785 OFFCURVE",
"412 717 CURVE"
);
}
);
width = 1288;
}
);
note = g59;
},
{
glyphname = g60;
lastChange = "2016-11-10 14:33:41 +0000";
layers = (
{
layerId = "92EE8359-DCEC-4BBC-AA28-09DFA7713AD8";
paths = (
{
closed = 1;
nodes = (
"353 1200 OFFCURVE",
"401 1254 OFFCURVE",
"401 1339 CURVE SMOOTH",
"401 1427 OFFCURVE",
"353 1477 OFFCURVE",
"272 1477 CURVE SMOOTH",
"192 1477 OFFCURVE",
"147 1427 OFFCURVE",
"147 1339 CURVE SMOOTH",
"147 1252 OFFCURVE",
"193 1200 OFFCURVE",
"272 1200 CURVE SMOOTH"
);
}
);
width = 549;
}
);
note = g60;
},
{
glyphname = g61;
lastChange = "2016-11-10 14:33:41 +0000";
layers = (
{
layerId = "92EE8359-DCEC-4BBC-AA28-09DFA7713AD8";
paths = (
{
closed = 1;
nodes = (
"499 627 OFFCURVE",
"606 725 OFFCURVE",
"606 856 CURVE SMOOTH",
"606 991 OFFCURVE",
"518 1079 OFFCURVE",
"369 1079 CURVE SMOOTH",
"234 1079 OFFCURVE",
"135 977 OFFCURVE",
"135 844 CURVE SMOOTH",
"135 711 OFFCURVE",
"221 627 OFFCURVE",
"358 627 CURVE SMOOTH"
);
},
{
closed = 1;
nodes = (
"285 729 OFFCURVE",
"244 772 OFFCURVE",
"244 844 CURVE SMOOTH",
"244 916 OFFCURVE",
"293 958 OFFCURVE",
"358 958 CURVE SMOOTH",
"425 958 OFFCURVE",
"473 916 OFFCURVE",
"473 844 CURVE SMOOTH",
"473 772 OFFCURVE",
"426 729 OFFCURVE",
"358 729 CURVE SMOOTH"
);
}
);
width = 741;
}
);
note = g61;
},
{
glyphname = g62;
lastChange = "2016-11-10 14:33:41 +0000";
layers = (
{
layerId = "92EE8359-DCEC-4BBC-AA28-09DFA7713AD8";
paths = (
{
closed = 1;
nodes = (
"689 358 OFFCURVE",
"768 377 OFFCURVE",
"840 414 CURVE SMOOTH",
"984 488 OFFCURVE",
"1073 629 OFFCURVE",
"1073 793 CURVE SMOOTH",
"1073 1054 OFFCURVE",
"902 1217 OFFCURVE",
"623 1217 CURVE SMOOTH",
"542 1217 OFFCURVE",
"467 1198 OFFCURVE",
"399 1159 CURVE SMOOTH",
"262 1082 OFFCURVE",
"180 935 OFFCURVE",
"180 770 CURVE SMOOTH",
"180 515 OFFCURVE",
"344 358 OFFCURVE",
"604 358 CURVE SMOOTH"
);
},
{
closed = 1;
nodes = (
"413 475 OFFCURVE",
"307 587 OFFCURVE",
"307 774 CURVE SMOOTH",
"307 953 OFFCURVE",
"428 1073 OFFCURVE",
"608 1073 CURVE SMOOTH",
"784 1073 OFFCURVE",
"907 953 OFFCURVE",
"907 774 CURVE SMOOTH",
"907 591 OFFCURVE",
"788 475 OFFCURVE",
"608 475 CURVE SMOOTH"
);
}
);
width = 1253;
}
);
note = g62;
},
{
glyphname = g63;
lastChange = "2016-11-10 14:33:41 +0000";
layers = (
{
layerId = "92EE8359-DCEC-4BBC-AA28-09DFA7713AD8";
paths = (
{
closed = 1;
nodes = (
"1059 10 OFFCURVE",
"1312 53 OFFCURVE",
"1485 117 CURVE",
"1442 272 LINE",
"1303 215 OFFCURVE",
"1093 178 OFFCURVE",
"922 178 CURVE SMOOTH",
"589 178 OFFCURVE",
"383 359 OFFCURVE",
"354 684 CURVE",
"499 725 OFFCURVE",
"682 745 OFFCURVE",
"901 745 CURVE SMOOTH",
"1112 745 OFFCURVE",
"1474 709 OFFCURVE",
"1563 676 CURVE",
"1599 817 LINE",
"1506 854 OFFCURVE",
"1151 895 OFFCURVE",
"903 895 CURVE SMOOTH",
"690 895 OFFCURVE",
"507 879 OFFCURVE",
"354 848 CURVE",
"378 1143 OFFCURVE",
"526 1300 OFFCURVE",
"801 1300 CURVE SMOOTH",
"941 1300 OFFCURVE",
"1186 1261 OFFCURVE",
"1303 1206 CURVE",
"1368 1352 LINE",
"1209 1420 OFFCURVE",
"1019 1454 OFFCURVE",
"799 1454 CURVE SMOOTH",
"411 1454 OFFCURVE",
"180 1194 OFFCURVE",
"180 762 CURVE SMOOTH",
"180 261 OFFCURVE",
"422 10 OFFCURVE",
"907 10 CURVE SMOOTH"
);
}
);
width = 1645;
}
);
note = g63;
},
{
glyphname = g64;
lastChange = "2016-11-10 14:33:41 +0000";
layers = (
{
layerId = "92EE8359-DCEC-4BBC-AA28-09DFA7713AD8";
paths = (
{
closed = 1;
nodes = (
"786 250 OFFCURVE",
"887 274 OFFCURVE",
"980 322 CURVE SMOOTH",
"1164 418 OFFCURVE",
"1276 596 OFFCURVE",
"1276 805 CURVE SMOOTH",
"1276 1136 OFFCURVE",
"1059 1346 OFFCURVE",
"700 1346 CURVE SMOOTH",
"595 1346 OFFCURVE",
"500 1321 OFFCURVE",
"413 1271 CURVE SMOOTH",
"239 1171 OFFCURVE",
"135 986 OFFCURVE",
"135 774 CURVE SMOOTH",
"135 453 OFFCURVE",
"341 250 OFFCURVE",
"676 250 CURVE SMOOTH"
);
},
{
closed = 1;
nodes = (
"561 360 OFFCURVE",
"464 390 OFFCURVE",
"391 451 CURVE",
"514 492 LINE",
"482 568 OFFCURVE",
"471 615 OFFCURVE",
"471 676 CURVE SMOOTH",
"471 709 OFFCURVE",
"484 731 OFFCURVE",
"509 744 CURVE SMOOTH",
"534 757 OFFCURVE",
"578 765 OFFCURVE",
"643 768 CURVE",
"623 711 OFFCURVE",
"602 650 OFFCURVE",
"602 590 CURVE SMOOTH",
"602 495 OFFCURVE",
"650 455 OFFCURVE",
"750 455 CURVE SMOOTH",
"817 455 OFFCURVE",
"952 511 OFFCURVE",
"1032 582 CURVE",
"967 686 LINE",
"911 637 OFFCURVE",
"827 586 OFFCURVE",
"786 586 CURVE SMOOTH",
"748 586 OFFCURVE",
"729 605 OFFCURVE",
"729 643 CURVE SMOOTH",
"729 670 OFFCURVE",
"748 717 OFFCURVE",
"768 770 CURVE",
"921 770 OFFCURVE",
"1032 777 OFFCURVE",
"1102 791 CURVE",
"1102 780 LINE SMOOTH",
"1102 521 OFFCURVE",
"934 360 OFFCURVE",
"682 360 CURVE SMOOTH"
);
},
{
closed = 1;
nodes = (
"299 532 OFFCURVE",
"258 639 OFFCURVE",
"258 780 CURVE SMOOTH",
"258 1035 OFFCURVE",
"433 1200 OFFCURVE",
"682 1200 CURVE SMOOTH",
"878 1200 OFFCURVE",
"1032 1092 OFFCURVE",
"1081 920 CURVE",
"1018 907 OFFCURVE",
"928 901 OFFCURVE",
"813 901 CURVE",
"818 926 OFFCURVE",
"821 943 OFFCURVE",
"821 954 CURVE SMOOTH",
"821 1067 OFFCURVE",
"766 1124 OFFCURVE",
"655 1124 CURVE SMOOTH",
"581 1124 OFFCURVE",
"503 1103 OFFCURVE",
"422 1061 CURVE",
"463 950 LINE",
"519 979 OFFCURVE",
"572 993 OFFCURVE",
"621 993 CURVE SMOOTH",
"664 993 OFFCURVE",
"686 968 OFFCURVE",
"686 918 CURVE SMOOTH",
"686 909 LINE",
"684 899 LINE",
"417 887 OFFCURVE",
"324 833 OFFCURVE",
"324 694 CURVE SMOOTH",
"324 615 OFFCURVE",
"343 536 OFFCURVE",
"381 459 CURVE"
);
}
);
width = 1411;
}
);
note = g64;
},
{
glyphname = g65;
lastChange = "2016-11-10 14:33:41 +0000";
layers = (
{
layerId = "92EE8359-DCEC-4BBC-AA28-09DFA7713AD8";
paths = (
{
closed = 1;
nodes = (
"1394 991 OFFCURVE",
"1501 1089 OFFCURVE",
"1501 1221 CURVE SMOOTH",
"1501 1356 OFFCURVE",
"1413 1444 OFFCURVE",
"1264 1444 CURVE SMOOTH",
"1132 1444 OFFCURVE",
"1030 1345 OFFCURVE",
"1030 1208 CURVE SMOOTH",
"1030 1075 OFFCURVE",
"1116 991 OFFCURVE",
"1253 991 CURVE SMOOTH"
);
},
{
closed = 1;
nodes = (
"445 141 OFFCURVE",
"406 184 OFFCURVE",
"406 256 CURVE SMOOTH",
"406 328 OFFCURVE",
"455 371 OFFCURVE",
"520 371 CURVE SMOOTH",
"587 371 OFFCURVE",
"635 328 OFFCURVE",
"635 256 CURVE SMOOTH",
"635 184 OFFCURVE",
"588 141 OFFCURVE",
"520 141 CURVE SMOOTH"
);
},
{
closed = 1;
nodes = (
"661 39 OFFCURVE",
"768 137 OFFCURVE",
"768 268 CURVE SMOOTH",
"768 405 OFFCURVE",
"678 492 OFFCURVE",
"530 492 CURVE SMOOTH",
"399 492 OFFCURVE",
"297 393 OFFCURVE",
"297 256 CURVE SMOOTH",
"297 123 OFFCURVE",
"383 39 OFFCURVE",
"520 39 CURVE SMOOTH"
);
},
{
closed = 1;
nodes = (
"285 631 OFFCURVE",
"244 673 OFFCURVE",
"244 745 CURVE SMOOTH",
"244 817 OFFCURVE",
"293 860 OFFCURVE",
"358 860 CURVE SMOOTH",
"425 860 OFFCURVE",
"473 817 OFFCURVE",
"473 745 CURVE SMOOTH",
"473 673 OFFCURVE",
"426 631 OFFCURVE",
"358 631 CURVE SMOOTH"
);
},
{
closed = 1;
nodes = (
"499 528 OFFCURVE",
"606 626 OFFCURVE",
"606 758 CURVE SMOOTH",
"606 893 OFFCURVE",
"518 981 OFFCURVE",
"369 981 CURVE SMOOTH",
"237 981 OFFCURVE",
"135 880 OFFCURVE",
"135 745 CURVE SMOOTH",
"135 612 OFFCURVE",
"221 528 OFFCURVE",
"358 528 CURVE SMOOTH"
);
},
{
closed = 1;
nodes = (
"1017 84 OFFCURVE",
"977 127 OFFCURVE",
"977 199 CURVE SMOOTH",
"977 271 OFFCURVE",
"1025 313 OFFCURVE",
"1092 313 CURVE SMOOTH",
"1157 313 OFFCURVE",
"1206 271 OFFCURVE",
"1206 199 CURVE SMOOTH",
"1206 127 OFFCURVE",
"1160 84 OFFCURVE",
"1092 84 CURVE SMOOTH"
);
},
{
closed = 1;
nodes = (
"1232 -18 OFFCURVE",
"1339 79 OFFCURVE",
"1339 211 CURVE SMOOTH",
"1339 346 OFFCURVE",
"1251 434 OFFCURVE",
"1102 434 CURVE SMOOTH",
"967 434 OFFCURVE",
"868 332 OFFCURVE",
"868 199 CURVE SMOOTH",
"868 62 OFFCURVE",
"956 -18 OFFCURVE",
"1092 -18 CURVE SMOOTH"
);
},
{
closed = 1;
nodes = (
"853 614 OFFCURVE",
"813 657 OFFCURVE",
"813 729 CURVE SMOOTH",
"813 801 OFFCURVE",
"861 844 OFFCURVE",
"928 844 CURVE SMOOTH",
"993 844 OFFCURVE",
"1042 801 OFFCURVE",
"1042 729 CURVE SMOOTH",
"1042 657 OFFCURVE",
"996 614 OFFCURVE",
"928 614 CURVE SMOOTH"
);
},
{
closed = 1;
nodes = (
"1069 512 OFFCURVE",
"1176 610 OFFCURVE",
"1176 741 CURVE SMOOTH",
"1176 878 OFFCURVE",
"1086 965 OFFCURVE",
"938 965 CURVE SMOOTH",
"807 965 OFFCURVE",
"705 866 OFFCURVE",
"705 729 CURVE SMOOTH",
"705 596 OFFCURVE",
"791 512 OFFCURVE",
"928 512 CURVE SMOOTH"
);
},
{
closed = 1;
nodes = (
"627 1126 OFFCURVE",
"586 1169 OFFCURVE",
"586 1241 CURVE SMOOTH",
"586 1313 OFFCURVE",
"635 1356 OFFCURVE",
"700 1356 CURVE SMOOTH",
"767 1356 OFFCURVE",
"815 1313 OFFCURVE",
"815 1241 CURVE SMOOTH",
"815 1169 OFFCURVE",
"768 1126 OFFCURVE",
"700 1126 CURVE SMOOTH"
);
},
{
closed = 1;
nodes = (
"841 1024 OFFCURVE",
"948 1122 OFFCURVE",
"948 1253 CURVE SMOOTH",
"948 1389 OFFCURVE",
"858 1477 OFFCURVE",
"711 1477 CURVE SMOOTH",
"579 1477 OFFCURVE",
"477 1376 OFFCURVE",
"477 1241 CURVE SMOOTH",
"477 1108 OFFCURVE",
"563 1024 OFFCURVE",
"700 1024 CURVE SMOOTH"
);
},
{
closed = 1;
nodes = (
"1379 559 OFFCURVE",
"1339 602 OFFCURVE",
"1339 674 CURVE SMOOTH",
"1339 746 OFFCURVE",
"1389 788 OFFCURVE",
"1454 788 CURVE SMOOTH",
"1521 788 OFFCURVE",
"1569 746 OFFCURVE",
"1569 674 CURVE SMOOTH",
"1569 602 OFFCURVE",
"1522 559 OFFCURVE",
"1454 559 CURVE SMOOTH"
);
},
{
closed = 1;
nodes = (
"1595 457 OFFCURVE",
"1702 555 OFFCURVE",
"1702 686 CURVE SMOOTH",
"1702 822 OFFCURVE",
"1613 909 OFFCURVE",
"1464 909 CURVE SMOOTH",
"1331 909 OFFCURVE",
"1231 810 OFFCURVE",
"1231 674 CURVE SMOOTH",
"1231 541 OFFCURVE",
"1317 457 OFFCURVE",
"1454 457 CURVE SMOOTH"
);
},
{
closed = 1;
nodes = (
"1180 1094 OFFCURVE",
"1139 1136 OFFCURVE",
"1139 1208 CURVE SMOOTH",
"1139 1280 OFFCURVE",
"1188 1323 OFFCURVE",
"1253 1323 CURVE SMOOTH",
"1320 1323 OFFCURVE",
"1368 1280 OFFCURVE",
"1368 1208 CURVE SMOOTH",
"1368 1136 OFFCURVE",
"1321 1094 OFFCURVE",
"1253 1094 CURVE SMOOTH"
);
}
);
width = 1837;
}
);
note = g65;
},
{
glyphname = g66;
lastChange = "2016-11-10 14:33:41 +0000";
layers = (
{
layerId = "92EE8359-DCEC-4BBC-AA28-09DFA7713AD8";
paths = (
{
closed = 1;
nodes = (
"345 187 OFFCURVE",
"559 1123 OFFCURVE",
"600 1454 CURVE",
"467 1468 LINE",
"432 1185 OFFCURVE",
"173 207 OFFCURVE",
"90 12 CURVE",
"256 -33 LINE"
);
}
);
width = 690;
}
);
note = g66;
},
{
glyphname = g67;
lastChange = "2016-11-10 14:33:41 +0000";
layers = (
{
layerId = "92EE8359-DCEC-4BBC-AA28-09DFA7713AD8";
paths = (
{
closed = 1;
nodes = (
"626 187 OFFCURVE",
"840 1123 OFFCURVE",
"881 1454 CURVE",
"748 1468 LINE",
"713 1185 OFFCURVE",
"454 207 OFFCURVE",
"371 12 CURVE",
"537 -33 LINE"
);
},
{
closed = 1;
nodes = (
"345 187 OFFCURVE",
"559 1123 OFFCURVE",
"600 1454 CURVE",
"467 1468 LINE",
"432 1185 OFFCURVE",
"173 207 OFFCURVE",
"90 12 CURVE",
"256 -33 LINE"
);
}
);
width = 971;
}
);
note = g67;
},
{
glyphname = g68;
lastChange = "2016-11-10 14:33:41 +0000";
layers = (
{
layerId = "92EE8359-DCEC-4BBC-AA28-09DFA7713AD8";
paths = (
{
closed = 1;
nodes = (
"888 694 OFFCURVE",
"959 716 OFFCURVE",
"1023 759 CURVE SMOOTH",
"1096 806 OFFCURVE",
"1146 823 OFFCURVE",
"1214 823 CURVE SMOOTH",
"1285 823 OFFCURVE",
"1335 804 OFFCURVE",
"1406 759 CURVE SMOOTH",
"1475 712 OFFCURVE",
"1537 694 OFFCURVE",
"1620 694 CURVE SMOOTH",
"1757 694 OFFCURVE",
"1871 730 OFFCURVE",
"2046 815 CURVE",
"1989 971 LINE",
"1868 914 LINE SMOOTH",
"1769 865 OFFCURVE",
"1705 846 OFFCURVE",
"1620 846 CURVE SMOOTH",
"1598 846 OFFCURVE",
"1577 850 OFFCURVE",
"1558 859 CURVE",
"1538 867 OFFCURVE",
"1504 887 OFFCURVE",
"1455 919 CURVE SMOOTH",
"1380 967 OFFCURVE",
"1300 991 OFFCURVE",
"1214 991 CURVE SMOOTH",
"1127 991 OFFCURVE",
"1047 967 OFFCURVE",
"974 919 CURVE SMOOTH",
"927 888 OFFCURVE",
"893 868 OFFCURVE",
"873 859 CURVE SMOOTH",
"852 850 OFFCURVE",
"831 846 OFFCURVE",
"809 846 CURVE SMOOTH",
"787 846 OFFCURVE",
"766 850 OFFCURVE",
"747 859 CURVE",
"727 867 OFFCURVE",
"693 887 OFFCURVE",
"644 919 CURVE SMOOTH",
"569 967 OFFCURVE",
"489 991 OFFCURVE",
"403 991 CURVE SMOOTH",
"315 991 OFFCURVE",
"190 954 OFFCURVE",
"63 889 CURVE",
"131 748 LINE",
"203 784 OFFCURVE",
"285 823 OFFCURVE",
"377 823 CURVE SMOOTH",
"444 823 OFFCURVE",
"501 806 OFFCURVE",
"582 759 CURVE SMOOTH",
"656 716 OFFCURVE",
"732 694 OFFCURVE",
"809 694 CURVE SMOOTH"
);
},
{
closed = 1;
nodes = (
"847 346 OFFCURVE",
"918 368 OFFCURVE",
"982 411 CURVE SMOOTH",
"1050 456 OFFCURVE",
"1103 475 OFFCURVE",
"1174 475 CURVE SMOOTH",
"1243 475 OFFCURVE",
"1294 456 OFFCURVE",
"1365 411 CURVE SMOOTH",
"1434 364 OFFCURVE",
"1496 346 OFFCURVE",
"1579 346 CURVE SMOOTH",
"1716 346 OFFCURVE",
"1836 384 OFFCURVE",
"2005 467 CURVE",
"1948 623 LINE",
"1827 565 LINE SMOOTH",
"1728 516 OFFCURVE",
"1667 498 OFFCURVE",
"1579 498 CURVE SMOOTH",
"1556 498 OFFCURVE",
"1535 503 OFFCURVE",
"1514 512 CURVE SMOOTH",
"1493 521 OFFCURVE",
"1460 540 OFFCURVE",
"1414 571 CURVE SMOOTH",
"1341 619 OFFCURVE",
"1261 643 OFFCURVE",
"1174 643 CURVE SMOOTH",
"1088 643 OFFCURVE",
"1008 619 OFFCURVE",
"934 571 CURVE SMOOTH",
"883 538 OFFCURVE",
"848 518 OFFCURVE",
"829 510 CURVE SMOOTH",
"810 502 OFFCURVE",
"789 498 OFFCURVE",
"768 498 CURVE SMOOTH",
"707 498 OFFCURVE",
"656 534 OFFCURVE",
"595 571 CURVE SMOOTH",
"534 607 OFFCURVE",
"463 643 OFFCURVE",
"362 643 CURVE SMOOTH",
"269 643 OFFCURVE",
"135 601 OFFCURVE",
"23 541 CURVE",
"90 399 LINE",
"162 436 OFFCURVE",
"244 475 OFFCURVE",
"336 475 CURVE SMOOTH",
"403 475 OFFCURVE",
"460 458 OFFCURVE",
"541 411 CURVE SMOOTH",
"615 368 OFFCURVE",
"691 346 OFFCURVE",
"768 346 CURVE SMOOTH"
);
}
);
width = 2068;
}
);
note = g68;
},
{
glyphname = g69;
lastChange = "2016-11-10 14:33:41 +0000";
layers = (
{
layerId = "92EE8359-DCEC-4BBC-AA28-09DFA7713AD8";
paths = (
{
closed = 1;
nodes = (
"876 219 OFFCURVE",
"961 440 OFFCURVE",
"1008 629 CURVE",
"1235 573 OFFCURVE",
"1339 462 OFFCURVE",
"1339 293 CURVE SMOOTH",
"1339 218 OFFCURVE",
"1306 145 OFFCURVE",
"1239 74 CURVE",
"1368 -33 LINE",
"1467 67 OFFCURVE",
"1516 180 OFFCURVE",
"1516 307 CURVE SMOOTH",
"1516 555 OFFCURVE",
"1355 717 OFFCURVE",
"1038 778 CURVE",
"1051 845 OFFCURVE",
"1057 912 OFFCURVE",
"1057 979 CURVE SMOOTH",
"1057 1242 OFFCURVE",
"956 1398 OFFCURVE",
"753 1449 CURVE",
"769 1516 OFFCURVE",
"781 1572 OFFCURVE",
"789 1617 CURVE",
"689 1650 LINE",
"678 1598 OFFCURVE",
"662 1536 OFFCURVE",
"641 1465 CURVE",
"602 1466 LINE SMOOTH",
"519 1466 OFFCURVE",
"446 1450 OFFCURVE",
"382 1419 CURVE SMOOTH",
"254 1355 OFFCURVE",
"180 1237 OFFCURVE",
"180 1098 CURVE SMOOTH",
"180 981 OFFCURVE",
"228 874 OFFCURVE",
"324 778 CURVE",
"446 879 LINE",
"337 576 OFFCURVE",
"246 340 OFFCURVE",
"171 171 CURVE",
"322 99 LINE",
"418 314 OFFCURVE",
"599 864 OFFCURVE",
"714 1296 CURVE",
"825 1254 OFFCURVE",
"881 1146 OFFCURVE",
"881 971 CURVE SMOOTH",
"881 890 OFFCURVE",
"870 800 OFFCURVE",
"847 699 CURVE SMOOTH",
"802 498 OFFCURVE",
"693 208 OFFCURVE",
"590 12 CURVE",
"754 -33 LINE"
);
},
{
closed = 1;
nodes = (
"384 958 OFFCURVE",
"352 1030 OFFCURVE",
"352 1104 CURVE SMOOTH",
"352 1229 OFFCURVE",
"450 1312 OFFCURVE",
"595 1315 CURVE",
"538 1141 OFFCURVE",
"490 999 OFFCURVE",
"449 888 CURVE"
);
}
);
width = 1628;
}
);
note = g69;
},
{
glyphname = g70;
lastChange = "2016-11-10 14:33:41 +0000";
layers = (
{
layerId = "92EE8359-DCEC-4BBC-AA28-09DFA7713AD8";
paths = (
{
closed = 1;
nodes = (
"872 81 OFFCURVE",
"932 258 OFFCURVE",
"932 369 CURVE SMOOTH",
"932 557 OFFCURVE",
"863 631 OFFCURVE",
"643 631 CURVE SMOOTH",
"614 631 OFFCURVE",
"583 633 OFFCURVE",
"548 636 CURVE",
"621 859 OFFCURVE",
"687 1085 OFFCURVE",
"748 1312 CURVE",
"847 1298 OFFCURVE",
"933 1270 OFFCURVE",
"1004 1227 CURVE",
"1069 1372 LINE",
"1004 1408 OFFCURVE",
"893 1445 OFFCURVE",
"786 1462 CURVE",
"802 1526 OFFCURVE",
"813 1578 OFFCURVE",
"819 1617 CURVE",
"719 1650 LINE",
"711 1606 OFFCURVE",
"696 1547 OFFCURVE",
"674 1474 CURVE",
"655 1475 LINE",
"306 1475 OFFCURVE",
"135 1287 OFFCURVE",
"135 907 CURVE SMOOTH",
"135 731 OFFCURVE",
"212 598 OFFCURVE",
"348 533 CURVE",
"302 414 OFFCURVE",
"253 293 OFFCURVE",
"201 171 CURVE",
"352 99 LINE",
"393 190 OFFCURVE",
"441 320 OFFCURVE",
"498 487 CURVE",
"533 482 OFFCURVE",
"569 479 OFFCURVE",
"608 479 CURVE SMOOTH",
"708 479 OFFCURVE",
"756 450 OFFCURVE",
"756 365 CURVE SMOOTH",
"756 281 OFFCURVE",
"696 115 OFFCURVE",
"643 31 CURVE",
"788 -35 LINE"
);
},
{
closed = 1;
nodes = (
"340 725 OFFCURVE",
"307 792 OFFCURVE",
"307 911 CURVE SMOOTH",
"307 1190 OFFCURVE",
"395 1314 OFFCURVE",
"627 1321 CURVE",
"562 1118 OFFCURVE",
"488 906 OFFCURVE",
"405 684 CURVE"
);
}
);
width = 1174;
}
);
note = g70;
},
{
glyphname = g71;
lastChange = "2016-11-10 14:33:41 +0000";
layers = (
{
layerId = "92EE8359-DCEC-4BBC-AA28-09DFA7713AD8";
paths = (
{
closed = 1;
nodes = (
"647 170 OFFCURVE",
"726 572 OFFCURVE",
"763 727 CURVE",
"875 728 OFFCURVE",
"978 747 OFFCURVE",
"1071 782 CURVE SMOOTH",
"1257 853 OFFCURVE",
"1363 981 OFFCURVE",
"1363 1130 CURVE SMOOTH",
"1363 1286 OFFCURVE",
"1245 1393 OFFCURVE",
"1072 1393 CURVE SMOOTH",
"868 1393 OFFCURVE",
"742 1241 OFFCURVE",
"634 870 CURVE",
"600 873 OFFCURVE",
"568 879 OFFCURVE",
"537 888 CURVE",
"639 1227 OFFCURVE",
"703 1470 OFFCURVE",
"729 1617 CURVE",
"629 1650 LINE",
"608 1535 OFFCURVE",
"536 1305 OFFCURVE",
"415 961 CURVE",
"371 1006 OFFCURVE",
"349 1064 OFFCURVE",
"349 1133 CURVE SMOOTH",
"349 1208 OFFCURVE",
"373 1284 OFFCURVE",
"420 1362 CURVE SMOOTH",
"461 1430 LINE",
"326 1499 LINE",
"235 1395 OFFCURVE",
"183 1253 OFFCURVE",
"183 1118 CURVE SMOOTH",
"183 987 OFFCURVE",
"249 880 OFFCURVE",
"362 812 CURVE",
"253 515 OFFCURVE",
"169 301 OFFCURVE",
"111 171 CURVE",
"262 99 LINE",
"325 242 OFFCURVE",
"403 462 OFFCURVE",
"496 757 CURVE",
"527 748 OFFCURVE",
"560 742 OFFCURVE",
"597 739 CURVE",
"546 532 OFFCURVE",
"478 149 OFFCURVE",
"454 -14 CURVE",
"618 -31 LINE"
);
},
{
closed = 1;
nodes = (
"825 955 OFFCURVE",
"852 1031 OFFCURVE",
"879 1086 CURVE SMOOTH",
"931 1197 OFFCURVE",
"979 1241 OFFCURVE",
"1064 1241 CURVE SMOOTH",
"1140 1241 OFFCURVE",
"1191 1195 OFFCURVE",
"1191 1126 CURVE SMOOTH",
"1191 981 OFFCURVE",
"1022 870 OFFCURVE",
"798 858 CURVE"
);
}
);
width = 1423;
}
);
note = g71;
},
{
glyphname = g72;
lastChange = "2016-11-10 14:33:41 +0000";
layers = (
{
layerId = "92EE8359-DCEC-4BBC-AA28-09DFA7713AD8";
paths = (
{
closed = 1;
nodes = (
"1164 54 OFFCURVE",
"1226 195 OFFCURVE",
"1226 307 CURVE SMOOTH",
"1226 504 OFFCURVE",
"1078 606 OFFCURVE",
"743 641 CURVE",
"763 727 LINE",
"875 728 OFFCURVE",
"978 747 OFFCURVE",
"1071 782 CURVE SMOOTH",
"1257 853 OFFCURVE",
"1363 981 OFFCURVE",
"1363 1130 CURVE SMOOTH",
"1363 1286 OFFCURVE",
"1245 1393 OFFCURVE",
"1072 1393 CURVE SMOOTH",
"868 1393 OFFCURVE",
"742 1241 OFFCURVE",
"634 870 CURVE",
"600 873 OFFCURVE",
"568 879 OFFCURVE",
"537 888 CURVE",
"639 1227 OFFCURVE",
"703 1470 OFFCURVE",
"729 1617 CURVE",
"629 1650 LINE",
"608 1535 OFFCURVE",
"536 1305 OFFCURVE",
"415 961 CURVE",
"371 1006 OFFCURVE",
"349 1064 OFFCURVE",
"349 1133 CURVE SMOOTH",
"349 1208 OFFCURVE",
"373 1284 OFFCURVE",
"420 1362 CURVE SMOOTH",
"461 1430 LINE",
"326 1499 LINE",
"235 1395 OFFCURVE",
"183 1253 OFFCURVE",
"183 1118 CURVE SMOOTH",
"183 987 OFFCURVE",
"249 880 OFFCURVE",
"362 812 CURVE",
"253 515 OFFCURVE",
"169 301 OFFCURVE",
"111 171 CURVE",
"262 99 LINE",
"325 242 OFFCURVE",
"403 462 OFFCURVE",
"496 757 CURVE",
"527 748 OFFCURVE",
"560 742 OFFCURVE",
"597 739 CURVE",
"546 532 OFFCURVE",
"478 149 OFFCURVE",
"454 -14 CURVE",
"618 -31 LINE",
"635 94 OFFCURVE",
"668 272 OFFCURVE",
"715 505 CURVE",
"794 494 OFFCURVE",
"859 479 OFFCURVE",
"908 461 CURVE SMOOTH",
"1007 424 OFFCURVE",
"1050 380 OFFCURVE",
"1050 293 CURVE SMOOTH",
"1050 218 OFFCURVE",
"1017 145 OFFCURVE",
"950 74 CURVE",
"1079 -33 LINE"
);
},
{
closed = 1;
nodes = (
"825 955 OFFCURVE",
"852 1031 OFFCURVE",
"879 1086 CURVE SMOOTH",
"931 1197 OFFCURVE",
"979 1241 OFFCURVE",
"1064 1241 CURVE SMOOTH",
"1140 1241 OFFCURVE",
"1191 1195 OFFCURVE",
"1191 1126 CURVE SMOOTH",
"1191 981 OFFCURVE",
"1022 870 OFFCURVE",
"798 858 CURVE"
);
}
);
width = 1423;
}
);
note = g72;
},
{
glyphname = g73;
lastChange = "2016-11-10 14:33:41 +0000";
layers = (
{
layerId = "92EE8359-DCEC-4BBC-AA28-09DFA7713AD8";
paths = (
{
closed = 1;
nodes = (
"869 210 OFFCURVE",
"1026 455 OFFCURVE",
"1026 655 CURVE SMOOTH",
"1026 840 OFFCURVE",
"919 944 OFFCURVE",
"705 965 CURVE",
"802 1029 OFFCURVE",
"1000 1250 OFFCURVE",
"1083 1389 CURVE",
"961 1473 LINE",
"910 1403 OFFCURVE",
"872 1357 OFFCURVE",
"846 1334 CURVE SMOOTH",
"794 1288 OFFCURVE",
"736 1262 OFFCURVE",
"659 1262 CURVE SMOOTH",
"629 1262 OFFCURVE",
"596 1268 OFFCURVE",
"560 1280 CURVE",
"599 1426 OFFCURVE",
"625 1538 OFFCURVE",
"640 1617 CURVE",
"540 1650 LINE",
"527 1585 OFFCURVE",
"499 1482 OFFCURVE",
"455 1342 CURVE",
"400 1388 OFFCURVE",
"362 1441 OFFCURVE",
"342 1501 CURVE",
"203 1415 LINE",
"239 1330 OFFCURVE",
"319 1236 OFFCURVE",
"402 1180 CURVE",
"306 893 OFFCURVE",
"129 411 OFFCURVE",
"22 171 CURVE",
"173 99 LINE",
"244 264 OFFCURVE",
"326 496 OFFCURVE",
"419 795 CURVE",
"420 791 LINE",
"479 814 OFFCURVE",
"576 827 OFFCURVE",
"637 827 CURVE SMOOTH",
"676 827 OFFCURVE",
"711 820 OFFCURVE",
"744 807 CURVE SMOOTH",
"808 780 OFFCURVE",
"850 728 OFFCURVE",
"850 651 CURVE SMOOTH",
"850 486 OFFCURVE",
"746 308 OFFCURVE",
"467 53 CURVE",
"596 -35 LINE"
);
},
{
closed = 1;
nodes = (
"517 1122 LINE",
"560 1107 OFFCURVE",
"604 1100 OFFCURVE",
"649 1100 CURVE",
"688 1104 LINE",
"645 1064 OFFCURVE",
"574 1020 OFFCURVE",
"473 971 CURVE"
);
}
);
width = 1196;
}
);
note = g73;
},
{
glyphname = g74;
lastChange = "2016-11-10 14:33:41 +0000";
layers = (
{
layerId = "92EE8359-DCEC-4BBC-AA28-09DFA7713AD8";
paths = (
{
closed = 1;
nodes = (
"675 205 OFFCURVE",
"761 556 OFFCURVE",
"868 881 CURVE",
"1040 832 OFFCURVE",
"1130 714 OFFCURVE",
"1130 547 CURVE SMOOTH",
"1130 454 OFFCURVE",
"1083 314 OFFCURVE",
"1018 207 CURVE",
"1163 141 LINE",
"1247 258 OFFCURVE",
"1307 445 OFFCURVE",
"1307 561 CURVE SMOOTH",
"1307 793 OFFCURVE",
"1171 962 OFFCURVE",
"934 1026 CURVE",
"981 1090 OFFCURVE",
"1047 1138 OFFCURVE",
"1114 1191 CURVE SMOOTH",
"1181 1244 OFFCURVE",
"1249 1302 OFFCURVE",
"1300 1389 CURVE",
"1167 1473 LINE",
"1046 1306 OFFCURVE",
"972 1262 OFFCURVE",
"877 1262 CURVE SMOOTH",
"826 1262 OFFCURVE",
"776 1276 OFFCURVE",
"726 1305 CURVE",
"760 1430 OFFCURVE",
"784 1534 OFFCURVE",
"799 1617 CURVE",
"699 1650 LINE",
"688 1593 OFFCURVE",
"664 1504 OFFCURVE",
"627 1385 CURVE",
"594 1422 OFFCURVE",
"572 1461 OFFCURVE",
"559 1501 CURVE",
"420 1415 LINE",
"450 1342 OFFCURVE",
"501 1275 OFFCURVE",
"572 1214 CURVE",
"508 1027 LINE",
"272 960 OFFCURVE",
"135 801 OFFCURVE",
"135 592 CURVE SMOOTH",
"135 491 OFFCURVE",
"170 398 OFFCURVE",
"241 313 CURVE",
"181 171 LINE",
"332 99 LINE",
"412 284 OFFCURVE",
"531 637 OFFCURVE",
"610 898 CURVE",
"642 901 OFFCURVE",
"669 903 OFFCURVE",
"690 903 CURVE",
"567 491 OFFCURVE",
"492 185 OFFCURVE",
"465 -16 CURVE",
"639 -31 LINE"
);
},
{
closed = 1;
nodes = (
"312 545 OFFCURVE",
"307 573 OFFCURVE",
"307 598 CURVE SMOOTH",
"307 710 OFFCURVE",
"353 793 OFFCURVE",
"444 847 CURVE",
"403 732 OFFCURVE",
"362 621 OFFCURVE",
"321 516 CURVE"
);
},
{
closed = 1;
nodes = (
"681 1142 LINE",
"726 1120 OFFCURVE",
"770 1107 OFFCURVE",
"815 1102 CURVE",
"787 1077 OFFCURVE",
"770 1060 OFFCURVE",
"764 1053 CURVE",
"741 1055 LINE",
"717 1055 LINE",
"655 1052 LINE"
);
}
);
width = 1464;
}
);
note = g74;
},
{
glyphname = g75;
lastChange = "2016-11-10 14:33:41 +0000";
layers = (
{
layerId = "92EE8359-DCEC-4BBC-AA28-09DFA7713AD8";
paths = (
{
closed = 1;
nodes = (
"391 52 OFFCURVE",
"514 186 OFFCURVE",
"643 366 CURVE SMOOTH",
"902 726 OFFCURVE",
"1094 1139 OFFCURVE",
"1153 1442 CURVE",
"985 1470 LINE",
"956 1318 OFFCURVE",
"894 1144 OFFCURVE",
"799 948 CURVE",
"693 1059 OFFCURVE",
"602 1167 OFFCURVE",
"527 1270 CURVE",
"566 1417 OFFCURVE",
"594 1532 OFFCURVE",
"609 1617 CURVE",
"509 1650 LINE",
"499 1595 OFFCURVE",
"476 1511 OFFCURVE",
"441 1396 CURVE",
"415 1438 OFFCURVE",
"397 1471 OFFCURVE",
"387 1495 CURVE",
"231 1405 LINE",
"255 1344 OFFCURVE",
"301 1267 OFFCURVE",
"368 1174 CURVE",
"253 834 OFFCURVE",
"90 392 OFFCURVE",
"-9 171 CURVE",
"142 99 LINE",
"237 316 OFFCURVE",
"344 632 OFFCURVE",
"464 1047 CURVE",
"536 956 OFFCURVE",
"617 865 OFFCURVE",
"707 774 CURVE",
"527 457 OFFCURVE",
"332 211 OFFCURVE",
"172 90 CURVE",
"274 -35 LINE"
);
}
);
width = 1145;
}
);
note = g75;
},
{
glyphname = g76;
lastChange = "2016-11-10 14:33:41 +0000";
layers = (
{
layerId = "92EE8359-DCEC-4BBC-AA28-09DFA7713AD8";
paths = (
{
closed = 1;
nodes = (
"218 16 OFFCURVE",
"354 230 OFFCURVE",
"457 563 CURVE SMOOTH",
"496 690 LINE",
"521 683 OFFCURVE",
"550 679 OFFCURVE",
"582 676 CURVE",
"509 481 OFFCURVE",
"442 313 OFFCURVE",
"381 171 CURVE",
"532 99 LINE",
"605 271 OFFCURVE",
"694 529 OFFCURVE",
"738 670 CURVE",
"1019 677 OFFCURVE",
"1167 790 OFFCURVE",
"1167 991 CURVE SMOOTH",
"1167 1028 OFFCURVE",
"1162 1070 OFFCURVE",
"1152 1118 CURVE SMOOTH",
"1142 1167 OFFCURVE",
"1137 1206 OFFCURVE",
"1137 1237 CURVE SMOOTH",
"1137 1286 OFFCURVE",
"1183 1303 OFFCURVE",
"1274 1315 CURVE",
"1223 1456 LINE",
"1066 1456 OFFCURVE",
"971 1374 OFFCURVE",
"971 1241 CURVE SMOOTH",
"971 1203 OFFCURVE",
"974 1159 OFFCURVE",
"981 1109 CURVE SMOOTH",
"988 1059 OFFCURVE",
"991 1018 OFFCURVE",
"991 987 CURVE SMOOTH",
"991 878 OFFCURVE",
"932 825 OFFCURVE",
"784 816 CURVE",
"896 1179 OFFCURVE",
"968 1446 OFFCURVE",
"999 1617 CURVE",
"899 1650 LINE",
"870 1505 OFFCURVE",
"759 1163 OFFCURVE",
"634 818 CURVE",
"604 820 OFFCURVE",
"570 825 OFFCURVE",
"533 834 CURVE",
"586 1030 OFFCURVE",
"627 1237 OFFCURVE",
"658 1454 CURVE",
"484 1468 LINE",
"440 1137 OFFCURVE",
"322 596 OFFCURVE",
"193 332 CURVE SMOOTH",
"128 199 OFFCURVE",
"61 119 OFFCURVE",
"-8 90 CURVE",
"59 -45 LINE"
);
}
);
width = 1288;
}
);
note = g76;
},
{
glyphname = g77;
lastChange = "2016-11-10 14:33:41 +0000";
layers = (
{
layerId = "92EE8359-DCEC-4BBC-AA28-09DFA7713AD8";
paths = (
{
closed = 1;
nodes = (
"585 59 OFFCURVE",
"700 123 OFFCURVE",
"777 157 CURVE SMOOTH",
"931 224 OFFCURVE",
"1091 264 OFFCURVE",
"1282 264 CURVE",
"1282 416 LINE",
"1064 416 OFFCURVE",
"855 366 OFFCURVE",
"655 266 CURVE",
"728 413 OFFCURVE",
"815 603 OFFCURVE",
"915 836 CURVE SMOOTH",
"1016 1077 OFFCURVE",
"1095 1245 OFFCURVE",
"1153 1341 CURVE",
"1100 1477 LINE",
"831 1309 OFFCURVE",
"712 1258 OFFCURVE",
"572 1219 CURVE",
"621 1399 OFFCURVE",
"653 1532 OFFCURVE",
"668 1617 CURVE",
"568 1650 LINE",
"547 1546 OFFCURVE",
"502 1393 OFFCURVE",
"433 1191 CURVE",
"380 1182 OFFCURVE",
"319 1178 OFFCURVE",
"252 1178 CURVE",
"252 1026 LINE",
"285 1026 OFFCURVE",
"328 1028 OFFCURVE",
"379 1031 CURVE",
"249 659 OFFCURVE",
"139 372 OFFCURVE",
"50 171 CURVE",
"201 99 LINE",
"290 304 OFFCURVE",
"429 723 OFFCURVE",
"524 1051 CURVE",
"651 1076 OFFCURVE",
"776 1120 OFFCURVE",
"897 1184 CURVE",
"837 1049 LINE SMOOTH",
"626 564 OFFCURVE",
"475 248 OFFCURVE",
"383 100 CURVE",
"434 -35 LINE"
);
}
);
width = 1417;
}
);
note = g77;
},
{
glyphname = g78;
lastChange = "2016-11-10 14:33:41 +0000";
layers = (
{
layerId = "92EE8359-DCEC-4BBC-AA28-09DFA7713AD8";
paths = (
{
closed = 1;
nodes = (
"941 315 OFFCURVE",
"1085 896 OFFCURVE",
"1085 1192 CURVE SMOOTH",
"1085 1392 OFFCURVE",
"981 1485 OFFCURVE",
"753 1494 CURVE",
"779 1617 LINE",
"679 1650 LINE",
"670 1606 OFFCURVE",
"657 1553 OFFCURVE",
"639 1492 CURVE",
"493 1481 OFFCURVE",
"348 1450 OFFCURVE",
"203 1399 CURVE",
"240 1257 LINE",
"357 1296 OFFCURVE",
"473 1321 OFFCURVE",
"590 1331 CURVE",
"547 1194 OFFCURVE",
"494 1038 OFFCURVE",
"430 863 CURVE",
"341 849 OFFCURVE",
"265 830 OFFCURVE",
"203 805 CURVE",
"240 664 LINE",
"275 677 OFFCURVE",
"318 689 OFFCURVE",
"371 700 CURVE",
"299 503 OFFCURVE",
"229 327 OFFCURVE",
"161 171 CURVE",
"312 99 LINE",
"370 233 OFFCURVE",
"445 441 OFFCURVE",
"536 724 CURVE",
"578 729 OFFCURVE",
"630 731 OFFCURVE",
"692 731 CURVE SMOOTH",
"848 727 LINE",
"791 463 OFFCURVE",
"700 170 OFFCURVE",
"631 10 CURVE",
"793 -33 LINE"
);
},
{
closed = 1;
nodes = (
"818 880 OFFCURVE",
"756 881 OFFCURVE",
"690 881 CURVE SMOOTH",
"583 878 LINE",
"629 1025 OFFCURVE",
"673 1177 OFFCURVE",
"714 1334 CURVE",
"850 1331 OFFCURVE",
"909 1284 OFFCURVE",
"909 1184 CURVE SMOOTH",
"909 1097 OFFCURVE",
"898 995 OFFCURVE",
"877 877 CURVE"
);
}
);
width = 1257;
}
);
note = g78;
},
{
glyphname = g79;
lastChange = "2016-11-10 14:33:41 +0000";
layers = (
{
layerId = "92EE8359-DCEC-4BBC-AA28-09DFA7713AD8";
paths = (
{
closed = 1;
nodes = (
"758 84 OFFCURVE",
"792 237 OFFCURVE",
"842 428 CURVE SMOOTH",
"941 809 OFFCURVE",
"1077 1240 OFFCURVE",
"1145 1403 CURVE",
"979 1448 LINE",
"926 1321 OFFCURVE",
"829 1021 OFFCURVE",
"776 844 CURVE",
"709 853 OFFCURVE",
"652 864 OFFCURVE",
"603 877 CURVE",
"706 1218 OFFCURVE",
"772 1464 OFFCURVE",
"799 1617 CURVE",
"699 1650 LINE",
"677 1529 OFFCURVE",
"602 1288 OFFCURVE",
"473 927 CURVE",
"382 978 OFFCURVE",
"348 1048 OFFCURVE",
"348 1159 CURVE SMOOTH",
"348 1230 OFFCURVE",
"372 1305 OFFCURVE",
"440 1417 CURVE",
"295 1483 LINE",
"219 1378 OFFCURVE",
"172 1273 OFFCURVE",
"172 1145 CURVE SMOOTH",
"172 950 OFFCURVE",
"259 841 OFFCURVE",
"419 776 CURVE",
"324 515 OFFCURVE",
"244 314 OFFCURVE",
"181 171 CURVE",
"332 99 LINE",
"386 218 OFFCURVE",
"461 429 OFFCURVE",
"558 732 CURVE",
"600 722 OFFCURVE",
"659 711 OFFCURVE",
"735 700 CURVE",
"655 428 OFFCURVE",
"591 145 OFFCURVE",
"567 -16 CURVE",
"741 -31 LINE"
);
}
);
width = 1182;
}
);
note = g79;
},
{
glyphname = g80;
lastChange = "2016-11-10 14:33:41 +0000";
layers = (
{
layerId = "92EE8359-DCEC-4BBC-AA28-09DFA7713AD8";
paths = (
{
closed = 1;
nodes = (
"594 272 OFFCURVE",
"773 915 OFFCURVE",
"914 1307 CURVE",
"1321 1307 LINE",
"1350 1458 LINE",
"584 1458 LINE",
"618 1617 LINE",
"518 1650 LINE",
"508 1599 OFFCURVE",
"491 1535 OFFCURVE",
"468 1458 CURVE",
"340 1458 LINE",
"312 1307 LINE",
"421 1307 LINE",
"289 896 OFFCURVE",
"99 394 OFFCURVE",
"0 171 CURVE",
"151 99 LINE",
"250 326 OFFCURVE",
"422 843 OFFCURVE",
"545 1307 CURVE",
"732 1307 LINE",
"597 930 OFFCURVE",
"416 291 OFFCURVE",
"373 -16 CURVE",
"547 -31 LINE"
);
}
);
width = 1305;
}
);
note = g80;
},
{
glyphname = g81;
lastChange = "2016-11-10 14:33:41 +0000";
layers = (
{
layerId = "92EE8359-DCEC-4BBC-AA28-09DFA7713AD8";
paths = (
{
closed = 1;
nodes = (
"606 -8 LINE",
"558 172 OFFCURVE",
"534 397 OFFCURVE",
"534 668 CURVE SMOOTH",
"534 856 OFFCURVE",
"543 1023 OFFCURVE",
"561 1169 CURVE",
"608 1086 OFFCURVE",
"706 936 OFFCURVE",
"741 891 CURVE",
"884 981 LINE",
"795 1104 OFFCURVE",
"727 1205 OFFCURVE",
"679 1286 CURVE SMOOTH",
"630 1366 OFFCURVE",
"605 1424 OFFCURVE",
"604 1460 CURVE",
"585 1461 LINE",
"602 1530 OFFCURVE",
"613 1582 OFFCURVE",
"618 1617 CURVE",
"518 1650 LINE",
"510 1605 OFFCURVE",
"495 1545 OFFCURVE",
"472 1471 CURVE",
"430 1475 LINE",
"421 1421 OFFCURVE",
"410 1341 OFFCURVE",
"398 1235 CURVE",
"298 928 OFFCURVE",
"121 447 OFFCURVE",
"0 171 CURVE",
"151 99 LINE",
"207 228 OFFCURVE",
"279 427 OFFCURVE",
"366 696 CURVE",
"366 668 LINE SMOOTH",
"366 433 OFFCURVE",
"389 199 OFFCURVE",
"434 -33 CURVE"
);
}
);
width = 1011;
}
);
note = g81;
},
{
glyphname = g82;
lastChange = "2016-11-10 14:33:41 +0000";
layers = (
{
layerId = "92EE8359-DCEC-4BBC-AA28-09DFA7713AD8";
paths = (
{
closed = 1;
nodes = (
"447 6 OFFCURVE",
"591 67 OFFCURVE",
"721 154 CURVE SMOOTH",
"980 326 OFFCURVE",
"1141 585 OFFCURVE",
"1141 817 CURVE SMOOTH",
"1141 1040 OFFCURVE",
"1034 1128 OFFCURVE",
"801 1128 CURVE SMOOTH",
"773 1128 OFFCURVE",
"721 1125 OFFCURVE",
"645 1119 CURVE",
"710 1345 OFFCURVE",
"751 1511 OFFCURVE",
"769 1617 CURVE",
"669 1650 LINE",
"644 1531 OFFCURVE",
"590 1351 OFFCURVE",
"507 1112 CURVE",
"408 1112 OFFCURVE",
"352 1142 OFFCURVE",
"352 1217 CURVE SMOOTH",
"352 1282 OFFCURVE",
"402 1335 OFFCURVE",
"483 1356 CURVE",
"432 1497 LINE",
"289 1473 OFFCURVE",
"180 1358 OFFCURVE",
"180 1221 CURVE SMOOTH",
"180 1060 OFFCURVE",
"276 965 OFFCURVE",
"452 953 CURVE",
"330 612 OFFCURVE",
"230 351 OFFCURVE",
"151 171 CURVE",
"255 121 LINE",
"246 119 LINE",
"289 -29 LINE"
);
},
{
closed = 1;
nodes = (
"399 331 OFFCURVE",
"492 604 OFFCURVE",
"597 957 CURVE",
"689 965 OFFCURVE",
"749 969 OFFCURVE",
"776 969 CURVE SMOOTH",
"903 969 OFFCURVE",
"965 929 OFFCURVE",
"965 817 CURVE SMOOTH",
"965 724 OFFCURVE",
"938 631 OFFCURVE",
"885 540 CURVE SMOOTH",
"777 357 OFFCURVE",
"574 208 OFFCURVE",
"318 137 CURVE"
);
}
);
width = 1231;
}
);
note = g82;
},
{
glyphname = g83;
lastChange = "2016-11-10 14:33:41 +0000";
layers = (
{
layerId = "92EE8359-DCEC-4BBC-AA28-09DFA7713AD8";
paths = (
{
closed = 1;
nodes = (
"556 182 OFFCURVE",
"654 575 OFFCURVE",
"766 952 CURVE",
"978 941 OFFCURVE",
"1138 915 OFFCURVE",
"1247 872 CURVE",
"1307 1024 LINE",
"1208 1063 OFFCURVE",
"1043 1088 OFFCURVE",
"811 1100 CURVE",
"858 1253 OFFCURVE",
"897 1366 OFFCURVE",
"928 1438 CURVE",
"762 1483 LINE",
"726 1398 OFFCURVE",
"682 1272 OFFCURVE",
"631 1104 CURVE",
"566 1103 OFFCURVE",
"515 1100 OFFCURVE",
"479 1097 CURVE",
"510 1252 OFFCURVE",
"535 1397 OFFCURVE",
"553 1531 CURVE",
"451 1550 LINE",
"432 1443 OFFCURVE",
"396 1286 OFFCURVE",
"342 1080 CURVE",
"263 1066 OFFCURVE",
"199 1049 OFFCURVE",
"150 1028 CURVE",
"186 887 LINE",
"221 899 OFFCURVE",
"258 909 OFFCURVE",
"297 918 CURVE",
"246 741 OFFCURVE",
"202 598 OFFCURVE",
"165 489 CURVE",
"332 468 LINE",
"375 629 OFFCURVE",
"414 787 OFFCURVE",
"447 943 CURVE",
"490 948 OFFCURVE",
"537 951 OFFCURVE",
"586 952 CURVE",
"473 579 OFFCURVE",
"377 185 OFFCURVE",
"350 -16 CURVE",
"524 -31 LINE"
);
}
);
width = 1321;
}
);
note = g83;
},
{
glyphname = g84;
lastChange = "2016-11-10 14:33:41 +0000";
layers = (
{
layerId = "92EE8359-DCEC-4BBC-AA28-09DFA7713AD8";
paths = (
{
closed = 1;
nodes = (
"483 -31 OFFCURVE",
"569 -11 OFFCURVE",
"649 28 CURVE SMOOTH",
"809 106 OFFCURVE",
"905 249 OFFCURVE",
"905 408 CURVE SMOOTH",
"905 467 OFFCURVE",
"896 522 OFFCURVE",
"878 574 CURVE SMOOTH",
"841 678 OFFCURVE",
"785 760 OFFCURVE",
"633 909 CURVE",
"733 1236 OFFCURVE",
"795 1472 OFFCURVE",
"819 1617 CURVE",
"719 1650 LINE",
"700 1545 OFFCURVE",
"636 1334 OFFCURVE",
"525 1018 CURVE",
"469 1082 OFFCURVE",
"430 1144 OFFCURVE",
"430 1217 CURVE SMOOTH",
"430 1282 OFFCURVE",
"477 1335 OFFCURVE",
"561 1356 CURVE",
"510 1497 LINE",
"367 1473 OFFCURVE",
"258 1358 OFFCURVE",
"258 1221 CURVE SMOOTH",
"258 1092 OFFCURVE",
"305 978 OFFCURVE",
"456 823 CURVE",
"374 597 OFFCURVE",
"301 408 OFFCURVE",
"237 255 CURVE",
"387 182 LINE",
"438 307 OFFCURVE",
"499 482 OFFCURVE",
"571 708 CURVE",
"690 585 OFFCURVE",
"729 501 OFFCURVE",
"729 408 CURVE SMOOTH",
"729 239 OFFCURVE",
"590 125 OFFCURVE",
"389 125 CURVE SMOOTH",
"323 125 OFFCURVE",
"263 132 OFFCURVE",
"209 147 CURVE",
"172 -2 LINE",
"233 -21 OFFCURVE",
"306 -31 OFFCURVE",
"391 -31 CURVE SMOOTH"
);
}
);
width = 995;
}
);
note = g84;
},
{
glyphname = g85;
lastChange = "2016-11-10 14:33:41 +0000";
layers = (
{
layerId = "92EE8359-DCEC-4BBC-AA28-09DFA7713AD8";
paths = (
{
closed = 1;
nodes = (
"902 207 OFFCURVE",
"1080 463 OFFCURVE",
"1080 655 CURVE SMOOTH",
"1080 828 OFFCURVE",
"967 922 OFFCURVE",
"760 922 CURVE",
"832 990 OFFCURVE",
"875 1080 OFFCURVE",
"875 1176 CURVE SMOOTH",
"875 1323 OFFCURVE",
"805 1416 OFFCURVE",
"664 1457 CURVE",
"698 1617 LINE",
"598 1650 LINE",
"593 1620 OFFCURVE",
"578 1562 OFFCURVE",
"554 1477 CURVE",
"519 1481 OFFCURVE",
"482 1483 OFFCURVE",
"443 1483 CURVE SMOOTH",
"387 1483 OFFCURVE",
"324 1478 OFFCURVE",
"254 1468 CURVE",
"277 1323 LINE",
"326 1331 OFFCURVE",
"377 1335 OFFCURVE",
"430 1335 CURVE SMOOTH",
"459 1335 OFFCURVE",
"485 1334 OFFCURVE",
"509 1331 CURVE",
"385 947 OFFCURVE",
"212 475 OFFCURVE",
"80 171 CURVE",
"231 99 LINE",
"286 223 OFFCURVE",
"382 491 OFFCURVE",
"462 746 CURVE",
"514 765 OFFCURVE",
"610 780 OFFCURVE",
"670 780 CURVE SMOOTH",
"827 780 OFFCURVE",
"903 748 OFFCURVE",
"903 647 CURVE SMOOTH",
"903 487 OFFCURVE",
"808 335 OFFCURVE",
"500 72 CURVE",
"609 -37 LINE"
);
},
{
closed = 1;
nodes = (
"557 1058 OFFCURVE",
"594 1186 OFFCURVE",
"623 1299 CURVE",
"674 1272 OFFCURVE",
"699 1229 OFFCURVE",
"699 1171 CURVE SMOOTH",
"699 1035 OFFCURVE",
"645 960 OFFCURVE",
"514 915 CURVE"
);
}
);
width = 1170;
}
);
note = g85;
},
{
glyphname = g86;
lastChange = "2016-11-10 14:33:41 +0000";
layers = (
{
layerId = "92EE8359-DCEC-4BBC-AA28-09DFA7713AD8";
paths = (
{
closed = 1;
nodes = (
"645 191 OFFCURVE",
"735 465 OFFCURVE",
"748 664 CURVE",
"867 693 OFFCURVE",
"995 725 OFFCURVE",
"1131 762 CURVE",
"1103 876 LINE",
"1000 853 OFFCURVE",
"879 829 OFFCURVE",
"740 803 CURVE",
"721 891 OFFCURVE",
"677 946 OFFCURVE",
"541 999 CURVE SMOOTH",
"494 1017 OFFCURVE",
"460 1034 OFFCURVE",
"440 1049 CURVE SMOOTH",
"399 1079 OFFCURVE",
"377 1118 OFFCURVE",
"377 1178 CURVE SMOOTH",
"377 1283 OFFCURVE",
"440 1339 OFFCURVE",
"555 1339 CURVE SMOOTH",
"660 1339 OFFCURVE",
"741 1332 OFFCURVE",
"797 1317 CURVE",
"834 1466 LINE",
"779 1483 OFFCURVE",
"662 1495 OFFCURVE",
"553 1495 CURVE SMOOTH",
"484 1495 OFFCURVE",
"424 1481 OFFCURVE",
"371 1454 CURVE SMOOTH",
"265 1398 OFFCURVE",
"201 1294 OFFCURVE",
"201 1178 CURVE SMOOTH",
"201 1066 OFFCURVE",
"230 998 OFFCURVE",
"274 952 CURVE SMOOTH",
"317 906 OFFCURVE",
"373 882 OFFCURVE",
"428 858 CURVE SMOOTH",
"484 834 OFFCURVE",
"530 812 OFFCURVE",
"555 769 CURVE",
"403 742 OFFCURVE",
"235 715 OFFCURVE",
"52 688 CURVE",
"83 521 LINE",
"213 543 OFFCURVE",
"377 577 OFFCURVE",
"574 623 CURVE",
"559 486 OFFCURVE",
"482 234 OFFCURVE",
"385 14 CURVE",
"530 -33 LINE"
);
}
);
width = 1151;
}
);
note = g86;
},
{
glyphname = g87;
lastChange = "2016-11-10 14:33:41 +0000";
layers = (
{
layerId = "92EE8359-DCEC-4BBC-AA28-09DFA7713AD8";
paths = (
{
closed = 1;
nodes = (
"267 154 OFFCURVE",
"366 555 OFFCURVE",
"483 948 CURVE",
"544 937 OFFCURVE",
"597 923 OFFCURVE",
"644 906 CURVE",
"594 731 OFFCURVE",
"551 592 OFFCURVE",
"515 489 CURVE",
"682 468 LINE",
"714 590 OFFCURVE",
"744 713 OFFCURVE",
"773 837 CURVE",
"852 777 OFFCURVE",
"891 697 OFFCURVE",
"891 596 CURVE SMOOTH",
"891 521 OFFCURVE",
"858 448 OFFCURVE",
"791 377 CURVE",
"920 270 LINE",
"1018 369 OFFCURVE",
"1067 482 OFFCURVE",
"1067 610 CURVE SMOOTH",
"1067 791 OFFCURVE",
"982 925 OFFCURVE",
"811 1011 CURVE",
"855 1222 OFFCURVE",
"886 1395 OFFCURVE",
"903 1531 CURVE",
"801 1550 LINE",
"778 1417 OFFCURVE",
"739 1253 OFFCURVE",
"686 1059 CURVE",
"639 1072 OFFCURVE",
"585 1084 OFFCURVE",
"526 1094 CURVE",
"574 1249 OFFCURVE",
"614 1363 OFFCURVE",
"645 1438 CURVE",
"479 1483 LINE",
"354 1172 OFFCURVE",
"121 347 OFFCURVE",
"68 -16 CURVE",
"242 -31 LINE"
);
}
);
width = 1157;
}
);
note = g87;
},
{
glyphname = g88;
lastChange = "2016-11-10 14:33:41 +0000";
layers = (
{
layerId = "92EE8359-DCEC-4BBC-AA28-09DFA7713AD8";
paths = (
{
closed = 1;
nodes = (
"446 182 OFFCURVE",
"556 621 OFFCURVE",
"655 948 CURVE",
"722 937 OFFCURVE",
"782 922 OFFCURVE",
"833 903 CURVE",
"785 736 OFFCURVE",
"742 598 OFFCURVE",
"705 489 CURVE",
"872 468 LINE",
"906 594 OFFCURVE",
"936 715 OFFCURVE",
"962 831 CURVE",
"1035 771 OFFCURVE",
"1071 693 OFFCURVE",
"1071 596 CURVE SMOOTH",
"1071 521 OFFCURVE",
"1038 448 OFFCURVE",
"971 377 CURVE",
"1100 270 LINE",
"1198 369 OFFCURVE",
"1247 482 OFFCURVE",
"1247 610 CURVE SMOOTH",
"1247 791 OFFCURVE",
"1165 924 OFFCURVE",
"1001 1009 CURVE",
"1045 1218 OFFCURVE",
"1076 1392 OFFCURVE",
"1093 1531 CURVE",
"991 1550 LINE",
"968 1417 OFFCURVE",
"929 1253 OFFCURVE",
"876 1058 CURVE",
"827 1073 OFFCURVE",
"767 1086 OFFCURVE",
"698 1096 CURVE",
"745 1245 OFFCURVE",
"784 1359 OFFCURVE",
"817 1438 CURVE",
"651 1483 LINE",
"617 1402 OFFCURVE",
"573 1275 OFFCURVE",
"520 1102 CURVE",
"357 1092 OFFCURVE",
"229 1067 OFFCURVE",
"135 1028 CURVE",
"172 887 LINE",
"261 918 OFFCURVE",
"362 937 OFFCURVE",
"473 946 CURVE",
"347 521 OFFCURVE",
"269 200 OFFCURVE",
"240 -16 CURVE",
"414 -31 LINE"
);
}
);
width = 1337;
}
);
note = g88;
},
{
glyphname = g89;
lastChange = "2016-11-10 14:33:41 +0000";
layers = (
{
layerId = "92EE8359-DCEC-4BBC-AA28-09DFA7713AD8";
paths = (
{
closed = 1;
nodes = (
"1074 460 OFFCURVE",
"1191 838 OFFCURVE",
"1191 1139 CURVE SMOOTH",
"1191 1346 OFFCURVE",
"1111 1434 OFFCURVE",
"935 1434 CURVE SMOOTH",
"878 1434 OFFCURVE",
"831 1426 OFFCURVE",
"793 1409 CURVE SMOOTH",
"716 1376 OFFCURVE",
"671 1319 OFFCURVE",
"636 1192 CURVE SMOOTH",
"615 1121 OFFCURVE",
"589 1076 OFFCURVE",
"556 1058 CURVE",
"631 1317 OFFCURVE",
"678 1504 OFFCURVE",
"698 1617 CURVE",
"598 1650 LINE",
"579 1554 OFFCURVE",
"523 1368 OFFCURVE",
"430 1091 CURVE",
"417 1115 OFFCURVE",
"411 1157 OFFCURVE",
"411 1217 CURVE SMOOTH",
"411 1286 OFFCURVE",
"428 1363 OFFCURVE",
"462 1450 CURVE",
"302 1493 LINE",
"260 1412 OFFCURVE",
"239 1321 OFFCURVE",
"239 1221 CURVE SMOOTH",
"239 1066 OFFCURVE",
"282 966 OFFCURVE",
"369 919 CURVE",
"266 626 OFFCURVE",
"169 377 OFFCURVE",
"80 171 CURVE",
"231 99 LINE",
"303 263 OFFCURVE",
"394 526 OFFCURVE",
"505 887 CURVE",
"650 887 OFFCURVE",
"743 956 OFFCURVE",
"798 1128 CURVE SMOOTH",
"839 1253 OFFCURVE",
"866 1270 OFFCURVE",
"929 1270 CURVE SMOOTH",
"984 1270 OFFCURVE",
"1015 1218 OFFCURVE",
"1015 1139 CURVE SMOOTH",
"1015 839 OFFCURVE",
"900 473 OFFCURVE",
"687 41 CURVE",
"827 -31 LINE"
);
}
);
width = 1326;
}
);
note = g89;
},
{
glyphname = g90;
lastChange = "2016-11-10 14:33:41 +0000";
layers = (
{
layerId = "92EE8359-DCEC-4BBC-AA28-09DFA7713AD8";
paths = (
{
closed = 1;
nodes = (
"637 181 OFFCURVE",
"736 575 OFFCURVE",
"855 948 CURVE",
"1132 899 OFFCURVE",
"1262 783 OFFCURVE",
"1262 596 CURVE SMOOTH",
"1262 525 OFFCURVE",
"1238 450 OFFCURVE",
"1170 338 CURVE",
"1315 272 LINE",
"1391 377 OFFCURVE",
"1438 482 OFFCURVE",
"1438 610 CURVE SMOOTH",
"1438 874 OFFCURVE",
"1256 1041 OFFCURVE",
"900 1094 CURVE",
"925 1176 OFFCURVE",
"949 1245 OFFCURVE",
"971 1300 CURVE",
"1356 1300 LINE",
"1385 1452 LINE",
"663 1452 LINE",
"698 1617 LINE",
"598 1650 LINE",
"588 1599 OFFCURVE",
"571 1533 OFFCURVE",
"546 1452 CURVE",
"375 1452 LINE",
"347 1300 LINE",
"499 1300 LINE",
"363 879 OFFCURVE",
"167 363 OFFCURVE",
"80 171 CURVE",
"231 99 LINE",
"343 350 OFFCURVE",
"520 913 OFFCURVE",
"624 1300 CURVE",
"789 1300 LINE",
"648 908 OFFCURVE",
"472 279 OFFCURVE",
"431 -16 CURVE",
"605 -31 LINE"
);
}
);
width = 1574;
}
);
note = g90;
},
{
glyphname = g91;
lastChange = "2016-11-10 14:33:41 +0000";
layers = (
{
layerId = "92EE8359-DCEC-4BBC-AA28-09DFA7713AD8";
paths = (
{
closed = 1;
nodes = (
"709 380 OFFCURVE",
"732 469 OFFCURVE",
"759 585 CURVE",
"783 584 LINE",
"807 584 LINE SMOOTH",
"913 584 OFFCURVE",
"1011 603 OFFCURVE",
"1102 642 CURVE SMOOTH",
"1282 719 OFFCURVE",
"1389 864 OFFCURVE",
"1389 1047 CURVE SMOOTH",
"1389 1164 OFFCURVE",
"1341 1270 OFFCURVE",
"1245 1366 CURVE",
"1116 1260 LINE",
"1183 1189 OFFCURVE",
"1217 1115 OFFCURVE",
"1217 1040 CURVE SMOOTH",
"1217 851 OFFCURVE",
"1075 735 OFFCURVE",
"834 735 CURVE SMOOTH",
"813 735 LINE",
"793 736 LINE",
"855 1027 OFFCURVE",
"899 1267 OFFCURVE",
"924 1456 CURVE",
"817 1475 LINE",
"786 1303 OFFCURVE",
"707 977 OFFCURVE",
"647 760 CURVE",
"491 805 OFFCURVE",
"393 917 OFFCURVE",
"393 1092 CURVE SMOOTH",
"393 1187 OFFCURVE",
"441 1328 OFFCURVE",
"506 1432 CURVE",
"360 1497 LINE",
"279 1384 OFFCURVE",
"217 1196 OFFCURVE",
"217 1077 CURVE SMOOTH",
"217 840 OFFCURVE",
"355 670 OFFCURVE",
"603 607 CURVE",
"570 497 OFFCURVE",
"543 408 OFFCURVE",
"520 339 CURVE",
"692 318 LINE"
);
}
);
width = 1425;
}
);
note = g91;
},
{
glyphname = g92;
lastChange = "2016-11-10 14:33:41 +0000";
layers = (
{
layerId = "92EE8359-DCEC-4BBC-AA28-09DFA7713AD8";
paths = (
{
closed = 1;
nodes = (
"251 213 OFFCURVE",
"515 722 OFFCURVE",
"674 1106 CURVE",
"694 999 LINE",
"572 652 OFFCURVE",
"466 376 OFFCURVE",
"376 171 CURVE",
"527 99 LINE",
"588 236 OFFCURVE",
"664 449 OFFCURVE",
"755 737 CURVE",
"823 468 OFFCURVE",
"931 166 OFFCURVE",
"1036 -35 CURVE",
"1198 39 LINE",
"1074 276 OFFCURVE",
"932 699 OFFCURVE",
"856 1070 CURVE",
"928 1325 OFFCURVE",
"974 1508 OFFCURVE",
"994 1617 CURVE",
"894 1650 LINE",
"880 1579 OFFCURVE",
"851 1476 OFFCURVE",
"808 1342 CURVE",
"803 1381 OFFCURVE",
"798 1425 OFFCURVE",
"795 1475 CURVE",
"629 1462 LINE",
"612 1377 OFFCURVE",
"564 1244 OFFCURVE",
"485 1065 CURVE SMOOTH",
"328 706 OFFCURVE",
"83 240 OFFCURVE",
"-49 33 CURVE",
"96 -35 LINE"
);
}
);
width = 1288;
}
);
note = g92;
},
{
glyphname = g93;
lastChange = "2016-11-10 14:33:41 +0000";
layers = (
{
layerId = "92EE8359-DCEC-4BBC-AA28-09DFA7713AD8";
paths = (
{
closed = 1;
nodes = (
"853 280 OFFCURVE",
"1051 711 OFFCURVE",
"1051 903 CURVE SMOOTH",
"1051 1090 OFFCURVE",
"933 1165 OFFCURVE",
"680 1165 CURVE SMOOTH",
"673 1165 LINE",
"730 1377 OFFCURVE",
"767 1528 OFFCURVE",
"784 1617 CURVE",
"684 1650 LINE",
"666 1557 OFFCURVE",
"618 1396 OFFCURVE",
"541 1167 CURVE",
"494 1168 OFFCURVE",
"459 1172 OFFCURVE",
"434 1177 CURVE SMOOTH",
"384 1188 OFFCURVE",
"365 1202 OFFCURVE",
"365 1253 CURVE SMOOTH",
"365 1295 OFFCURVE",
"378 1360 OFFCURVE",
"403 1448 CURVE",
"240 1475 LINE",
"220 1412 OFFCURVE",
"203 1305 OFFCURVE",
"203 1221 CURVE SMOOTH",
"203 1108 OFFCURVE",
"231 1061 OFFCURVE",
"310 1034 CURVE SMOOTH",
"349 1021 OFFCURVE",
"408 1012 OFFCURVE",
"487 1009 CURVE",
"372 678 OFFCURVE",
"265 399 OFFCURVE",
"166 171 CURVE",
"317 99 LINE",
"401 291 OFFCURVE",
"504 593 OFFCURVE",
"627 1006 CURVE",
"657 1006 LINE SMOOTH",
"816 1006 OFFCURVE",
"874 978 OFFCURVE",
"874 895 CURVE SMOOTH",
"874 720 OFFCURVE",
"695 332 OFFCURVE",
"496 41 CURVE",
"645 -35 LINE"
);
}
);
width = 1141;
}
);
note = g93;
},
{
glyphname = g94;
lastChange = "2016-11-10 14:33:41 +0000";
layers = (
{
layerId = "92EE8359-DCEC-4BBC-AA28-09DFA7713AD8";
paths = (
{
closed = 1;
nodes = (
"646 90 OFFCURVE",
"679 247 OFFCURVE",
"727 441 CURVE SMOOTH",
"823 828 OFFCURVE",
"963 1271 OFFCURVE",
"1032 1438 CURVE",
"866 1483 LINE",
"827 1388 OFFCURVE",
"784 1261 OFFCURVE",
"735 1102 CURVE",
"536 1095 LINE",
"568 1251 OFFCURVE",
"593 1396 OFFCURVE",
"610 1531 CURVE",
"508 1550 LINE",
"488 1436 OFFCURVE",
"452 1281 OFFCURVE",
"400 1084 CURVE",
"294 1071 OFFCURVE",
"211 1053 OFFCURVE",
"150 1028 CURVE",
"186 887 LINE",
"230 903 OFFCURVE",
"287 916 OFFCURVE",
"357 927 CURVE",
"318 790 OFFCURVE",
"273 644 OFFCURVE",
"222 489 CURVE",
"389 468 LINE",
"432 629 OFFCURVE",
"471 787 OFFCURVE",
"504 943 CURVE",
"557 947 OFFCURVE",
"619 950 OFFCURVE",
"690 952 CURVE",
"590 620 OFFCURVE",
"486 212 OFFCURVE",
"455 -16 CURVE",
"629 -31 LINE"
);
}
);
width = 1092;
}
);
note = g94;
},
{
glyphname = g95;
lastChange = "2016-11-10 14:33:41 +0000";
layers = (
{
layerId = "92EE8359-DCEC-4BBC-AA28-09DFA7713AD8";
paths = (
{
closed = 1;
nodes = (
"706 80 OFFCURVE",
"784 214 OFFCURVE",
"859 365 CURVE SMOOTH",
"1010 668 OFFCURVE",
"1085 921 OFFCURVE",
"1085 1096 CURVE SMOOTH",
"1085 1323 OFFCURVE",
"963 1450 OFFCURVE",
"740 1459 CURVE",
"774 1617 LINE",
"674 1650 LINE",
"663 1595 OFFCURVE",
"647 1531 OFFCURVE",
"624 1456 CURVE",
"480 1444 OFFCURVE",
"340 1413 OFFCURVE",
"203 1364 CURVE",
"240 1223 LINE",
"351 1260 OFFCURVE",
"463 1284 OFFCURVE",
"574 1295 CURVE",
"455 930 OFFCURVE",
"273 442 OFFCURVE",
"156 171 CURVE",
"307 99 LINE",
"419 350 OFFCURVE",
"596 913 OFFCURVE",
"700 1300 CURVE",
"829 1295 OFFCURVE",
"909 1208 OFFCURVE",
"909 1087 CURVE SMOOTH",
"909 1001 OFFCURVE",
"892 901 OFFCURVE",
"858 787 CURVE SMOOTH",
"790 559 OFFCURVE",
"636 258 OFFCURVE",
"483 53 CURVE",
"625 -35 LINE"
);
}
);
width = 1176;
}
);
note = g95;
},
{
glyphname = g96;
lastChange = "2016-11-10 14:33:41 +0000";
layers = (
{
layerId = "92EE8359-DCEC-4BBC-AA28-09DFA7713AD8";
paths = (
{
closed = 1;
nodes = (
"1169 78 OFFCURVE",
"1219 210 OFFCURVE",
"1268 363 CURVE SMOOTH",
"1366 668 OFFCURVE",
"1413 919 OFFCURVE",
"1413 1096 CURVE SMOOTH",
"1413 1317 OFFCURVE",
"1296 1445 OFFCURVE",
"1080 1458 CURVE",
"1114 1617 LINE",
"1014 1650 LINE",
"1005 1601 OFFCURVE",
"988 1537 OFFCURVE",
"964 1457 CURVE",
"812 1449 OFFCURVE",
"604 1416 OFFCURVE",
"451 1365 CURVE",
"408 1097 OFFCURVE",
"186 241 OFFCURVE",
"90 16 CURVE",
"252 -27 LINE",
"347 190 OFFCURVE",
"525 840 OFFCURVE",
"606 1255 CURVE",
"699 1275 OFFCURVE",
"801 1289 OFFCURVE",
"914 1297 CURVE",
"801 945 OFFCURVE",
"625 470 OFFCURVE",
"496 171 CURVE",
"647 99 LINE",
"743 314 OFFCURVE",
"916 840 OFFCURVE",
"1039 1299 CURVE",
"1159 1292 OFFCURVE",
"1237 1207 OFFCURVE",
"1237 1087 CURVE SMOOTH",
"1237 1000 OFFCURVE",
"1226 897 OFFCURVE",
"1203 778 CURVE SMOOTH",
"1157 541 OFFCURVE",
"1053 218 OFFCURVE",
"958 10 CURVE",
"1120 -33 LINE"
);
}
);
width = 1518;
}
);
note = g96;
},
{
glyphname = g97;
lastChange = "2016-11-10 14:33:41 +0000";
layers = (
{
layerId = "92EE8359-DCEC-4BBC-AA28-09DFA7713AD8";
paths = (
{
closed = 1;
nodes = (
"398 -11 OFFCURVE",
"481 67 OFFCURVE",
"559 190 CURVE SMOOTH",
"714 434 OFFCURVE",
"846 914 OFFCURVE",
"909 1286 CURVE",
"1080 1241 OFFCURVE",
"1176 1121 OFFCURVE",
"1176 952 CURVE SMOOTH",
"1176 828 OFFCURVE",
"1111 677 OFFCURVE",
"1018 584 CURVE",
"1145 487 LINE",
"1254 579 OFFCURVE",
"1352 792 OFFCURVE",
"1352 967 CURVE SMOOTH",
"1352 1067 OFFCURVE",
"1328 1154 OFFCURVE",
"1279 1229 CURVE SMOOTH",
"1181 1378 OFFCURVE",
"993 1460 OFFCURVE",
"762 1460 CURVE SMOOTH",
"721 1460 OFFCURVE",
"682 1457 OFFCURVE",
"643 1451 CURVE",
"662 1581 LINE",
"560 1600 LINE",
"524 1423 LINE",
"311 1356 OFFCURVE",
"180 1198 OFFCURVE",
"180 997 CURVE SMOOTH",
"180 880 OFFCURVE",
"227 775 OFFCURVE",
"321 681 CURVE",
"274 539 LINE",
"441 518 LINE",
"502 741 OFFCURVE",
"561 1001 OFFCURVE",
"617 1298 CURVE",
"658 1305 OFFCURVE",
"698 1309 OFFCURVE",
"735 1309 CURVE",
"687 1020 OFFCURVE",
"595 648 OFFCURVE",
"514 454 CURVE SMOOTH",
"433 260 OFFCURVE",
"335 127 OFFCURVE",
"244 90 CURVE",
"311 -45 LINE"
);
},
{
closed = 1;
nodes = (
"362 922 OFFCURVE",
"352 962 OFFCURVE",
"352 1004 CURVE SMOOTH",
"352 1112 OFFCURVE",
"395 1193 OFFCURVE",
"481 1248 CURVE",
"451 1129 OFFCURVE",
"418 1008 OFFCURVE",
"382 883 CURVE"
);
}
);
width = 1442;
}
);
note = g97;
},
{
glyphname = g98;
lastChange = "2016-11-10 14:33:41 +0000";
layers = (
{
layerId = "92EE8359-DCEC-4BBC-AA28-09DFA7713AD8";
paths = (
{
closed = 1;
nodes = (
"584 71 OFFCURVE",
"736 311 OFFCURVE",
"796 592 CURVE",
"827 589 OFFCURVE",
"861 588 OFFCURVE",
"898 588 CURVE SMOOTH",
"980 588 OFFCURVE",
"1057 605 OFFCURVE",
"1128 638 CURVE SMOOTH",
"1271 705 OFFCURVE",
"1355 829 OFFCURVE",
"1355 981 CURVE SMOOTH",
"1355 1050 OFFCURVE",
"1341 1107 OFFCURVE",
"1312 1152 CURVE SMOOTH",
"1255 1240 OFFCURVE",
"1162 1285 OFFCURVE",
"905 1317 CURVE SMOOTH",
"776 1334 OFFCURVE",
"692 1367 OFFCURVE",
"654 1416 CURVE",
"673 1491 OFFCURVE",
"687 1558 OFFCURVE",
"698 1617 CURVE",
"598 1650 LINE",
"591 1613 OFFCURVE",
"573 1546 OFFCURVE",
"546 1450 CURVE",
"483 1427 LINE",
"490 1393 OFFCURVE",
"500 1364 OFFCURVE",
"512 1341 CURVE",
"385 949 OFFCURVE",
"192 423 OFFCURVE",
"80 171 CURVE",
"231 99 LINE",
"344 360 OFFCURVE",
"513 887 OFFCURVE",
"608 1243 CURVE",
"667 1210 OFFCURVE",
"759 1186 OFFCURVE",
"886 1171 CURVE SMOOTH",
"1114 1143 OFFCURVE",
"1179 1090 OFFCURVE",
"1179 977 CURVE SMOOTH",
"1179 830 OFFCURVE",
"1067 733 OFFCURVE",
"902 733 CURVE SMOOTH",
"863 733 LINE",
"825 735 LINE",
"825 827 OFFCURVE",
"804 914 OFFCURVE",
"780 946 CURVE",
"644 913 LINE",
"655 877 OFFCURVE",
"661 827 OFFCURVE",
"661 764 CURVE SMOOTH",
"661 673 OFFCURVE",
"645 584 OFFCURVE",
"614 497 CURVE SMOOTH",
"551 322 OFFCURVE",
"434 174 OFFCURVE",
"298 90 CURVE",
"376 -45 LINE"
);
}
);
width = 1445;
}
);
note = g98;
},
{
glyphname = g99;
lastChange = "2016-11-10 14:33:41 +0000";
layers = (
{
layerId = "92EE8359-DCEC-4BBC-AA28-09DFA7713AD8";
paths = (
{
closed = 1;
nodes = (
"822 89 OFFCURVE",
"856 247 OFFCURVE",
"905 442 CURVE SMOOTH",
"1003 833 OFFCURVE",
"1141 1282 OFFCURVE",
"1206 1438 CURVE",
"1040 1483 LINE",
"986 1350 OFFCURVE",
"917 1139 OFFCURVE",
"834 850 CURVE",
"710 850 LINE",
"821 1213 OFFCURVE",
"889 1468 OFFCURVE",
"914 1617 CURVE",
"814 1650 LINE",
"793 1533 OFFCURVE",
"691 1209 OFFCURVE",
"562 854 CURVE",
"518 857 OFFCURVE",
"482 860 OFFCURVE",
"455 864 CURVE",
"519 952 OFFCURVE",
"551 1054 OFFCURVE",
"551 1171 CURVE SMOOTH",
"551 1300 OFFCURVE",
"504 1398 OFFCURVE",
"383 1485 CURVE",
"274 1370 LINE",
"359 1290 OFFCURVE",
"387 1234 OFFCURVE",
"387 1145 CURVE SMOOTH",
"387 1032 OFFCURVE",
"344 925 OFFCURVE",
"203 772 CURVE",
"278 741 OFFCURVE",
"361 726 OFFCURVE",
"510 713 CURVE",
"419 467 OFFCURVE",
"348 286 OFFCURVE",
"296 171 CURVE",
"447 99 LINE",
"505 234 OFFCURVE",
"577 435 OFFCURVE",
"664 704 CURVE",
"793 700 LINE",
"706 389 OFFCURVE",
"652 151 OFFCURVE",
"629 -16 CURVE",
"803 -31 LINE"
);
}
);
width = 1251;
}
);
note = g99;
},
{
glyphname = g100;
lastChange = "2016-11-10 14:33:41 +0000";
layers = (
{
layerId = "92EE8359-DCEC-4BBC-AA28-09DFA7713AD8";
paths = (
{
closed = 1;
nodes = (
"671 -31 OFFCURVE",
"813 0 OFFCURVE",
"905 43 CURVE",
"854 188 LINE",
"745 139 OFFCURVE",
"648 115 OFFCURVE",
"561 115 CURVE SMOOTH",
"473 115 OFFCURVE",
"428 152 OFFCURVE",
"428 240 CURVE SMOOTH",
"428 291 OFFCURVE",
"450 346 OFFCURVE",
"494 403 CURVE SMOOTH",
"537 460 OFFCURVE",
"614 529 OFFCURVE",
"724 611 CURVE",
"879 648 OFFCURVE",
"1041 688 OFFCURVE",
"1208 733 CURVE",
"1180 847 LINE",
"940 797 LINE",
"1036 901 OFFCURVE",
"1079 997 OFFCURVE",
"1079 1114 CURVE SMOOTH",
"1079 1184 OFFCURVE",
"1061 1245 OFFCURVE",
"1026 1298 CURVE SMOOTH",
"955 1403 OFFCURVE",
"820 1464 OFFCURVE",
"625 1464 CURVE SMOOTH",
"542 1464 OFFCURVE",
"469 1448 OFFCURVE",
"405 1417 CURVE SMOOTH",
"277 1354 OFFCURVE",
"203 1235 OFFCURVE",
"203 1096 CURVE SMOOTH",
"203 978 OFFCURVE",
"251 871 OFFCURVE",
"346 776 CURVE",
"475 883 LINE",
"408 954 OFFCURVE",
"375 1027 OFFCURVE",
"375 1102 CURVE SMOOTH",
"375 1229 OFFCURVE",
"476 1313 OFFCURVE",
"625 1313 CURVE SMOOTH",
"798 1313 OFFCURVE",
"903 1227 OFFCURVE",
"903 1087 CURVE SMOOTH",
"903 964 OFFCURVE",
"870 911 OFFCURVE",
"662 746 CURVE",
"467 711 OFFCURVE",
"277 681 OFFCURVE",
"91 654 CURVE",
"118 485 LINE",
"200 498 OFFCURVE",
"303 517 OFFCURVE",
"426 544 CURVE",
"313 431 OFFCURVE",
"256 330 OFFCURVE",
"256 242 CURVE SMOOTH",
"256 60 OFFCURVE",
"354 -31 OFFCURVE",
"551 -31 CURVE SMOOTH"
);
}
);
width = 1228;
}
);
note = g100;
},
{
glyphname = g101;
lastChange = "2016-11-10 14:33:41 +0000";
layers = (
{
layerId = "92EE8359-DCEC-4BBC-AA28-09DFA7713AD8";
paths = (
{
closed = 1;
nodes = (
"876 219 OFFCURVE",
"961 440 OFFCURVE",
"1008 629 CURVE",
"1235 573 OFFCURVE",
"1339 462 OFFCURVE",
"1339 293 CURVE SMOOTH",
"1339 218 OFFCURVE",
"1306 145 OFFCURVE",
"1239 74 CURVE",
"1368 -33 LINE",
"1467 67 OFFCURVE",
"1516 180 OFFCURVE",
"1516 307 CURVE SMOOTH",
"1516 550 OFFCURVE",
"1362 711 OFFCURVE",
"1053 776 CURVE",
"1100 949 OFFCURVE",
"1207 1230 OFFCURVE",
"1290 1417 CURVE",
"1128 1460 LINE",
"1089 1372 OFFCURVE",
"1055 1286 OFFCURVE",
"1024 1202 CURVE",
"977 1335 OFFCURVE",
"887 1417 OFFCURVE",
"753 1449 CURVE",
"769 1516 OFFCURVE",
"781 1572 OFFCURVE",
"789 1617 CURVE",
"689 1650 LINE",
"678 1598 OFFCURVE",
"662 1536 OFFCURVE",
"641 1465 CURVE",
"602 1466 LINE SMOOTH",
"519 1466 OFFCURVE",
"446 1450 OFFCURVE",
"382 1419 CURVE SMOOTH",
"254 1355 OFFCURVE",
"180 1237 OFFCURVE",
"180 1098 CURVE SMOOTH",
"180 981 OFFCURVE",
"228 874 OFFCURVE",
"324 778 CURVE",
"446 879 LINE",
"337 576 OFFCURVE",
"246 340 OFFCURVE",
"171 171 CURVE",
"322 99 LINE",
"418 314 OFFCURVE",
"599 864 OFFCURVE",
"714 1296 CURVE",
"825 1254 OFFCURVE",
"881 1146 OFFCURVE",
"881 971 CURVE SMOOTH",
"881 890 OFFCURVE",
"870 800 OFFCURVE",
"847 699 CURVE SMOOTH",
"802 498 OFFCURVE",
"693 208 OFFCURVE",
"590 12 CURVE",
"754 -33 LINE"
);
},
{
closed = 1;
nodes = (
"384 958 OFFCURVE",
"352 1030 OFFCURVE",
"352 1104 CURVE SMOOTH",
"352 1229 OFFCURVE",
"450 1312 OFFCURVE",
"595 1315 CURVE",
"538 1141 OFFCURVE",
"490 999 OFFCURVE",
"449 888 CURVE"
);
}
);
width = 1651;
}
);
note = g101;
},
{
glyphname = g102;
lastChange = "2016-11-10 14:33:41 +0000";
layers = (
{
layerId = "92EE8359-DCEC-4BBC-AA28-09DFA7713AD8";
paths = (
{
closed = 1;
nodes = (
"998 256 OFFCURVE",
"1133 672 OFFCURVE",
"1133 852 CURVE SMOOTH",
"1133 1052 OFFCURVE",
"1028 1147 OFFCURVE",
"815 1154 CURVE",
"871 1351 OFFCURVE",
"909 1505 OFFCURVE",
"929 1617 CURVE",
"829 1650 LINE",
"812 1560 OFFCURVE",
"762 1393 OFFCURVE",
"680 1149 CURVE",
"619 1142 OFFCURVE",
"547 1125 OFFCURVE",
"463 1098 CURVE",
"500 954 LINE",
"541 969 OFFCURVE",
"582 980 OFFCURVE",
"624 986 CURVE",
"579 859 OFFCURVE",
"530 724 OFFCURVE",
"476 582 CURVE",
"361 591 OFFCURVE",
"311 638 OFFCURVE",
"311 731 CURVE SMOOTH",
"311 878 OFFCURVE",
"393 1154 OFFCURVE",
"522 1454 CURVE",
"360 1497 LINE",
"210 1146 OFFCURVE",
"135 888 OFFCURVE",
"135 723 CURVE SMOOTH",
"135 538 OFFCURVE",
"221 445 OFFCURVE",
"416 424 CURVE",
"385 345 OFFCURVE",
"350 260 OFFCURVE",
"311 171 CURVE",
"462 99 LINE",
"493 170 OFFCURVE",
"534 277 OFFCURVE",
"585 422 CURVE",
"676 428 OFFCURVE",
"774 447 OFFCURVE",
"879 479 CURVE",
"819 287 OFFCURVE",
"762 131 OFFCURVE",
"709 10 CURVE",
"870 -33 LINE"
);
},
{
closed = 1;
nodes = (
"687 727 OFFCURVE",
"730 864 OFFCURVE",
"768 995 CURVE",
"901 992 OFFCURVE",
"956 943 OFFCURVE",
"956 844 CURVE SMOOTH",
"956 798 OFFCURVE",
"946 733 OFFCURVE",
"926 649 CURVE",
"797 608 OFFCURVE",
"731 592 OFFCURVE",
"640 584 CURVE"
);
}
);
width = 1268;
}
);
note = g102;
},
{
glyphname = g103;
lastChange = "2016-11-10 14:33:41 +0000";
layers = (
{
layerId = "92EE8359-DCEC-4BBC-AA28-09DFA7713AD8";
paths = (
{
closed = 1;
nodes = (
"883 234 OFFCURVE",
"971 469 OFFCURVE",
"1017 670 CURVE",
"1162 705 OFFCURVE",
"1282 735 OFFCURVE",
"1377 762 CURVE",
"1349 876 LINE",
"1264 857 OFFCURVE",
"1163 836 OFFCURVE",
"1044 814 CURVE",
"1053 875 OFFCURVE",
"1057 930 OFFCURVE",
"1057 979 CURVE SMOOTH",
"1057 1306 OFFCURVE",
"898 1466 OFFCURVE",
"602 1466 CURVE SMOOTH",
"519 1466 OFFCURVE",
"446 1450 OFFCURVE",
"382 1419 CURVE SMOOTH",
"254 1355 OFFCURVE",
"180 1237 OFFCURVE",
"180 1098 CURVE SMOOTH",
"180 981 OFFCURVE",
"228 874 OFFCURVE",
"324 778 CURVE",
"453 885 LINE",
"386 956 OFFCURVE",
"352 1029 OFFCURVE",
"352 1104 CURVE SMOOTH",
"352 1231 OFFCURVE",
"453 1315 OFFCURVE",
"602 1315 CURVE SMOOTH",
"786 1315 OFFCURVE",
"881 1196 OFFCURVE",
"881 971 CURVE SMOOTH",
"881 919 OFFCURVE",
"875 855 OFFCURVE",
"863 780 CURVE",
"640 739 OFFCURVE",
"439 707 OFFCURVE",
"260 683 CURVE",
"287 514 LINE",
"381 528 OFFCURVE",
"561 565 OFFCURVE",
"828 625 CURVE",
"781 450 OFFCURVE",
"694 220 OFFCURVE",
"590 12 CURVE",
"754 -33 LINE"
);
}
);
width = 1397;
}
);
note = g103;
},
{
glyphname = g104;
lastChange = "2016-11-10 14:33:41 +0000";
layers = (
{
layerId = "92EE8359-DCEC-4BBC-AA28-09DFA7713AD8";
paths = (
{
closed = 1;
nodes = (
"441 -31 OFFCURVE",
"512 -22 OFFCURVE",
"587 -5 CURVE",
"551 141 LINE",
"490 124 OFFCURVE",
"434 115 OFFCURVE",
"385 115 CURVE SMOOTH",
"300 115 OFFCURVE",
"252 151 OFFCURVE",
"252 214 CURVE SMOOTH",
"252 244 OFFCURVE",
"267 276 OFFCURVE",
"297 310 CURVE SMOOTH",
"326 344 OFFCURVE",
"374 385 OFFCURVE",
"439 433 CURVE SMOOTH",
"743 657 OFFCURVE",
"844 825 OFFCURVE",
"844 1042 CURVE SMOOTH",
"844 1213 OFFCURVE",
"790 1359 OFFCURVE",
"686 1499 CURVE",
"551 1430 LINE",
"590 1363 OFFCURVE",
"616 1311 OFFCURVE",
"630 1274 CURVE SMOOTH",
"658 1200 OFFCURVE",
"672 1122 OFFCURVE",
"672 1015 CURVE SMOOTH",
"672 963 OFFCURVE",
"662 915 OFFCURVE",
"643 870 CURVE SMOOTH",
"603 780 OFFCURVE",
"549 714 OFFCURVE",
"376 579 CURVE SMOOTH",
"276 502 OFFCURVE",
"211 447 OFFCURVE",
"180 415 CURVE SMOOTH",
"119 350 OFFCURVE",
"80 281 OFFCURVE",
"80 200 CURVE SMOOTH",
"80 48 OFFCURVE",
"183 -31 OFFCURVE",
"375 -31 CURVE SMOOTH"
);
}
);
width = 944;
}
);
note = g104;
},
{
glyphname = g105;
lastChange = "2016-11-10 14:33:41 +0000";
layers = (
{
layerId = "92EE8359-DCEC-4BBC-AA28-09DFA7713AD8";
paths = (
{
closed = 1;
nodes = (
"877 221 OFFCURVE",
"963 448 OFFCURVE",
"1012 647 CURVE",
"1574 647 LINE",
"1603 798 LINE",
"1042 798 LINE",
"1052 860 OFFCURVE",
"1057 920 OFFCURVE",
"1057 979 CURVE SMOOTH",
"1057 1306 OFFCURVE",
"898 1466 OFFCURVE",
"602 1466 CURVE SMOOTH",
"519 1466 OFFCURVE",
"446 1450 OFFCURVE",
"382 1419 CURVE SMOOTH",
"254 1355 OFFCURVE",
"180 1237 OFFCURVE",
"180 1098 CURVE SMOOTH",
"180 981 OFFCURVE",
"228 874 OFFCURVE",
"324 778 CURVE",
"453 885 LINE",
"386 956 OFFCURVE",
"352 1029 OFFCURVE",
"352 1104 CURVE SMOOTH",
"352 1231 OFFCURVE",
"453 1315 OFFCURVE",
"602 1315 CURVE SMOOTH",
"786 1315 OFFCURVE",
"881 1196 OFFCURVE",
"881 971 CURVE SMOOTH",
"881 890 OFFCURVE",
"870 800 OFFCURVE",
"847 699 CURVE SMOOTH",
"802 498 OFFCURVE",
"693 208 OFFCURVE",
"590 12 CURVE",
"754 -33 LINE"
);
}
);
width = 1643;
}
);
note = g105;
},
{
glyphname = g106;
lastChange = "2016-11-10 14:33:41 +0000";
layers = (
{
layerId = "92EE8359-DCEC-4BBC-AA28-09DFA7713AD8";
paths = (
{
closed = 1;
nodes = (
"647 196 OFFCURVE",
"732 467 OFFCURVE",
"747 647 CURVE",
"1304 647 LINE",
"1333 798 LINE",
"741 798 LINE",
"722 890 OFFCURVE",
"676 946 OFFCURVE",
"541 999 CURVE SMOOTH",
"494 1017 OFFCURVE",
"460 1034 OFFCURVE",
"440 1049 CURVE SMOOTH",
"399 1079 OFFCURVE",
"377 1118 OFFCURVE",
"377 1178 CURVE SMOOTH",
"377 1283 OFFCURVE",
"440 1339 OFFCURVE",
"555 1339 CURVE SMOOTH",
"660 1339 OFFCURVE",
"741 1332 OFFCURVE",
"797 1317 CURVE",
"834 1466 LINE",
"779 1483 OFFCURVE",
"662 1495 OFFCURVE",
"553 1495 CURVE SMOOTH",
"484 1495 OFFCURVE",
"424 1481 OFFCURVE",
"371 1454 CURVE SMOOTH",
"265 1398 OFFCURVE",
"201 1294 OFFCURVE",
"201 1178 CURVE SMOOTH",
"201 1066 OFFCURVE",
"230 998 OFFCURVE",
"274 952 CURVE SMOOTH",
"317 906 OFFCURVE",
"373 882 OFFCURVE",
"428 858 CURVE SMOOTH",
"475 838 OFFCURVE",
"507 821 OFFCURVE",
"525 806 CURVE SMOOTH",
"560 776 OFFCURVE",
"578 735 OFFCURVE",
"578 676 CURVE SMOOTH",
"578 543 OFFCURVE",
"493 261 OFFCURVE",
"385 14 CURVE",
"530 -33 LINE"
);
}
);
width = 1373;
}
);
note = g106;
},
{
glyphname = g107;
lastChange = "2016-11-10 14:33:41 +0000";
layers = (
{
layerId = "92EE8359-DCEC-4BBC-AA28-09DFA7713AD8";
paths = (
{
closed = 1;
nodes = (
"671 -31 OFFCURVE",
"813 0 OFFCURVE",
"905 43 CURVE",
"854 188 LINE",
"745 139 OFFCURVE",
"648 115 OFFCURVE",
"561 115 CURVE SMOOTH",
"473 115 OFFCURVE",
"428 152 OFFCURVE",
"428 240 CURVE SMOOTH",
"428 290 OFFCURVE",
"449 343 OFFCURVE",
"492 400 CURVE SMOOTH",
"534 457 OFFCURVE",
"614 529 OFFCURVE",
"733 618 CURVE SMOOTH",
"771 647 LINE",
"1374 647 LINE",
"1403 798 LINE",
"940 798 LINE",
"1036 901 OFFCURVE",
"1079 997 OFFCURVE",
"1079 1114 CURVE SMOOTH",
"1079 1184 OFFCURVE",
"1061 1245 OFFCURVE",
"1026 1298 CURVE SMOOTH",
"955 1403 OFFCURVE",
"820 1464 OFFCURVE",
"625 1464 CURVE SMOOTH",
"542 1464 OFFCURVE",
"469 1448 OFFCURVE",
"405 1417 CURVE SMOOTH",
"277 1354 OFFCURVE",
"203 1235 OFFCURVE",
"203 1096 CURVE SMOOTH",
"203 978 OFFCURVE",
"251 871 OFFCURVE",
"346 776 CURVE",
"475 883 LINE",
"408 954 OFFCURVE",
"375 1027 OFFCURVE",
"375 1102 CURVE SMOOTH",
"375 1229 OFFCURVE",
"476 1313 OFFCURVE",
"625 1313 CURVE SMOOTH",
"798 1313 OFFCURVE",
"903 1227 OFFCURVE",
"903 1087 CURVE SMOOTH",
"903 999 OFFCURVE",
"879 942 OFFCURVE",
"812 874 CURVE SMOOTH",
"779 839 OFFCURVE",
"722 791 OFFCURVE",
"641 729 CURVE SMOOTH",
"501 620 OFFCURVE",
"402 527 OFFCURVE",
"344 451 CURVE SMOOTH",
"285 375 OFFCURVE",
"256 305 OFFCURVE",
"256 242 CURVE SMOOTH",
"256 60 OFFCURVE",
"354 -31 OFFCURVE",
"551 -31 CURVE SMOOTH"
);
}
);
width = 1443;
}
);
note = g107;
},
{
glyphname = g108;
lastChange = "2016-11-10 14:33:41 +0000";
layers = (
{
layerId = "92EE8359-DCEC-4BBC-AA28-09DFA7713AD8";
paths = (
{
closed = 1;
nodes = (
"556 182 OFFCURVE",
"654 575 OFFCURVE",
"766 952 CURVE",
"978 941 OFFCURVE",
"1138 915 OFFCURVE",
"1247 872 CURVE",
"1307 1024 LINE",
"1208 1063 OFFCURVE",
"1043 1088 OFFCURVE",
"811 1100 CURVE",
"858 1253 OFFCURVE",
"897 1366 OFFCURVE",
"928 1438 CURVE",
"762 1483 LINE",
"726 1398 OFFCURVE",
"682 1272 OFFCURVE",
"631 1104 CURVE",
"538 1103 OFFCURVE",
"454 1097 OFFCURVE",
"381 1086 CURVE",
"432 1329 OFFCURVE",
"463 1495 OFFCURVE",
"474 1584 CURVE",
"365 1600 LINE",
"344 1471 OFFCURVE",
"279 1228 OFFCURVE",
"220 1052 CURVE",
"202 1047 OFFCURVE",
"179 1039 OFFCURVE",
"150 1028 CURVE",
"186 887 LINE",
"299 927 OFFCURVE",
"432 949 OFFCURVE",
"586 952 CURVE",
"473 579 OFFCURVE",
"377 185 OFFCURVE",
"350 -16 CURVE",
"524 -31 LINE"
);
}
);
width = 1321;
}
);
note = g108;
},
{
glyphname = g109;
lastChange = "2016-11-10 14:33:41 +0000";
layers = (
{
layerId = "92EE8359-DCEC-4BBC-AA28-09DFA7713AD8";
paths = (
{
closed = 1;
nodes = (
"267 154 OFFCURVE",
"366 555 OFFCURVE",
"483 948 CURVE",
"762 899 OFFCURVE",
"891 783 OFFCURVE",
"891 596 CURVE SMOOTH",
"891 521 OFFCURVE",
"858 448 OFFCURVE",
"791 377 CURVE",
"920 270 LINE",
"1018 369 OFFCURVE",
"1067 482 OFFCURVE",
"1067 610 CURVE SMOOTH",
"1067 785 OFFCURVE",
"989 914 OFFCURVE",
"834 999 CURVE",
"866 1152 LINE SMOOTH",
"901 1313 OFFCURVE",
"924 1441 OFFCURVE",
"935 1535 CURVE",
"826 1551 LINE",
"809 1443 OFFCURVE",
"747 1205 OFFCURVE",
"698 1056 CURVE",
"643 1073 OFFCURVE",
"586 1085 OFFCURVE",
"526 1094 CURVE",
"574 1249 OFFCURVE",
"614 1363 OFFCURVE",
"645 1438 CURVE",
"479 1483 LINE",
"354 1172 OFFCURVE",
"121 347 OFFCURVE",
"68 -16 CURVE",
"242 -31 LINE"
);
}
);
width = 1157;
}
);
note = g109;
},
{
glyphname = g110;
lastChange = "2016-11-10 14:33:41 +0000";
layers = (
{
layerId = "92EE8359-DCEC-4BBC-AA28-09DFA7713AD8";
paths = (
{
closed = 1;
nodes = (
"446 182 OFFCURVE",
"556 621 OFFCURVE",
"655 948 CURVE",
"932 903 OFFCURVE",
"1071 786 OFFCURVE",
"1071 596 CURVE SMOOTH",
"1071 521 OFFCURVE",
"1038 448 OFFCURVE",
"971 377 CURVE",
"1100 270 LINE",
"1198 369 OFFCURVE",
"1247 482 OFFCURVE",
"1247 610 CURVE SMOOTH",
"1247 788 OFFCURVE",
"1167 920 OFFCURVE",
"1008 1005 CURVE",
"1064 1271 OFFCURVE",
"1097 1448 OFFCURVE",
"1108 1535 CURVE",
"999 1551 LINE",
"978 1419 OFFCURVE",
"920 1204 OFFCURVE",
"872 1059 CURVE",
"812 1076 OFFCURVE",
"754 1089 OFFCURVE",
"698 1096 CURVE",
"745 1245 OFFCURVE",
"784 1359 OFFCURVE",
"817 1438 CURVE",
"651 1483 LINE",
"617 1402 OFFCURVE",
"573 1275 OFFCURVE",
"520 1102 CURVE",
"357 1092 OFFCURVE",
"229 1067 OFFCURVE",
"135 1028 CURVE",
"172 887 LINE",
"261 918 OFFCURVE",
"362 937 OFFCURVE",
"473 946 CURVE",
"347 521 OFFCURVE",
"269 200 OFFCURVE",
"240 -16 CURVE",
"414 -31 LINE"
);
}
);
width = 1337;
}
);
note = g110;
},
{
glyphname = g111;
lastChange = "2016-11-10 14:33:41 +0000";
layers = (
{
layerId = "92EE8359-DCEC-4BBC-AA28-09DFA7713AD8";
paths = (
{
closed = 1;
nodes = (
"646 90 OFFCURVE",
"679 247 OFFCURVE",
"727 441 CURVE SMOOTH",
"823 828 OFFCURVE",
"963 1271 OFFCURVE",
"1032 1438 CURVE",
"866 1483 LINE",
"827 1388 OFFCURVE",
"784 1261 OFFCURVE",
"735 1102 CURVE",
"588 1099 OFFCURVE",
"462 1091 OFFCURVE",
"359 1078 CURVE",
"389 1223 LINE SMOOTH",
"420 1371 OFFCURVE",
"442 1492 OFFCURVE",
"454 1587 CURVE",
"345 1603 LINE",
"322 1464 OFFCURVE",
"256 1220 OFFCURVE",
"196 1045 CURVE",
"150 1028 LINE",
"186 887 LINE",
"311 928 OFFCURVE",
"462 945 OFFCURVE",
"690 952 CURVE",
"590 620 OFFCURVE",
"486 212 OFFCURVE",
"455 -16 CURVE",
"629 -31 LINE"
);
}
);
width = 1092;
}
);
note = g111;
},
{
glyphname = g112;
lastChange = "2016-11-10 14:33:41 +0000";
layers = (
{
layerId = "92EE8359-DCEC-4BBC-AA28-09DFA7713AD8";
paths = (
{
closed = 1;
nodes = (
"1169 78 OFFCURVE",
"1219 210 OFFCURVE",
"1268 363 CURVE SMOOTH",
"1366 668 OFFCURVE",
"1413 919 OFFCURVE",
"1413 1096 CURVE SMOOTH",
"1413 1327 OFFCURVE",
"1286 1456 OFFCURVE",
"1050 1460 CURVE",
"1083 1619 OFFCURVE",
"1106 1743 OFFCURVE",
"1117 1834 CURVE",
"1008 1850 LINE",
"994 1761 OFFCURVE",
"961 1628 OFFCURVE",
"910 1453 CURVE",
"725 1436 OFFCURVE",
"572 1406 OFFCURVE",
"451 1365 CURVE",
"408 1097 OFFCURVE",
"186 241 OFFCURVE",
"90 16 CURVE",
"252 -27 LINE",
"347 190 OFFCURVE",
"525 840 OFFCURVE",
"606 1255 CURVE",
"741 1285 OFFCURVE",
"879 1300 OFFCURVE",
"1020 1300 CURVE SMOOTH",
"1153 1300 OFFCURVE",
"1237 1211 OFFCURVE",
"1237 1087 CURVE SMOOTH",
"1237 1000 OFFCURVE",
"1226 897 OFFCURVE",
"1203 778 CURVE SMOOTH",
"1157 541 OFFCURVE",
"1053 218 OFFCURVE",
"958 10 CURVE",
"1120 -33 LINE"
);
}
);
width = 1518;
}
);
note = g112;
},
{
glyphname = g113;
lastChange = "2016-11-10 14:33:41 +0000";
layers = (
{
layerId = "92EE8359-DCEC-4BBC-AA28-09DFA7713AD8";
paths = (
{
closed = 1;
nodes = (
"919 -16 OFFCURVE",
"1019 2 OFFCURVE",
"1102 38 CURVE SMOOTH",
"1268 109 OFFCURVE",
"1385 247 OFFCURVE",
"1505 530 CURVE",
"1353 585 LINE",
"1292 450 OFFCURVE",
"1238 355 OFFCURVE",
"1192 302 CURVE SMOOTH",
"1099 195 OFFCURVE",
"978 138 OFFCURVE",
"801 138 CURVE SMOOTH",
"715 138 OFFCURVE",
"637 163 OFFCURVE",
"567 214 CURVE SMOOTH",
"427 315 OFFCURVE",
"343 505 OFFCURVE",
"343 753 CURVE SMOOTH",
"343 1132 OFFCURVE",
"506 1341 OFFCURVE",
"830 1341 CURVE SMOOTH",
"951 1341 OFFCURVE",
"1057 1320 OFFCURVE",
"1147 1279 CURVE",
"1208 1421 LINE",
"1097 1470 OFFCURVE",
"970 1495 OFFCURVE",
"827 1495 CURVE SMOOTH",
"698 1495 OFFCURVE",
"584 1466 OFFCURVE",
"485 1407 CURVE SMOOTH",
"285 1289 OFFCURVE",
"170 1062 OFFCURVE",
"170 762 CURVE SMOOTH",
"170 602 OFFCURVE",
"196 463 OFFCURVE",
"249 346 CURVE SMOOTH",
"353 111 OFFCURVE",
"551 -16 OFFCURVE",
"803 -16 CURVE SMOOTH"
);
}
);
width = 1578;
}
);
note = g113;
},
{
glyphname = g114;
lastChange = "2016-11-10 14:33:41 +0000";
layers = (
{
layerId = "92EE8359-DCEC-4BBC-AA28-09DFA7713AD8";
paths = (
{
closed = 1;
nodes = (
"913 584 OFFCURVE",
"1011 603 OFFCURVE",
"1102 642 CURVE SMOOTH",
"1282 719 OFFCURVE",
"1389 864 OFFCURVE",
"1389 1047 CURVE SMOOTH",
"1389 1164 OFFCURVE",
"1341 1270 OFFCURVE",
"1245 1366 CURVE",
"1116 1260 LINE",
"1183 1189 OFFCURVE",
"1217 1115 OFFCURVE",
"1217 1040 CURVE SMOOTH",
"1217 851 OFFCURVE",
"1075 735 OFFCURVE",
"834 735 CURVE SMOOTH",
"820 735 LINE",
"873 982 OFFCURVE",
"905 1154 OFFCURVE",
"917 1251 CURVE",
"808 1267 LINE",
"791 1155 OFFCURVE",
"727 915 OFFCURVE",
"674 752 CURVE",
"491 796 OFFCURVE",
"393 919 OFFCURVE",
"393 1092 CURVE SMOOTH",
"393 1187 OFFCURVE",
"441 1328 OFFCURVE",
"506 1432 CURVE",
"360 1497 LINE",
"279 1384 OFFCURVE",
"217 1196 OFFCURVE",
"217 1077 CURVE SMOOTH",
"217 976 OFFCURVE",
"241 888 OFFCURVE",
"290 814 CURVE SMOOTH",
"387 666 OFFCURVE",
"575 584 OFFCURVE",
"807 584 CURVE SMOOTH"
);
}
);
width = 1425;
}
);
note = g114;
},
{
glyphname = g115;
lastChange = "2016-11-10 14:33:41 +0000";
layers = (
{
layerId = "92EE8359-DCEC-4BBC-AA28-09DFA7713AD8";
paths = (
{
closed = 1;
nodes = (
"267 154 OFFCURVE",
"366 555 OFFCURVE",
"483 948 CURVE",
"548 936 OFFCURVE",
"605 921 OFFCURVE",
"653 902 CURVE",
"615 734 OFFCURVE",
"560 527 OFFCURVE",
"488 281 CURVE",
"638 264 LINE",
"687 473 OFFCURVE",
"727 667 OFFCURVE",
"758 848 CURVE",
"847 786 OFFCURVE",
"891 702 OFFCURVE",
"891 596 CURVE SMOOTH",
"891 521 OFFCURVE",
"858 448 OFFCURVE",
"791 377 CURVE",
"920 270 LINE",
"1018 369 OFFCURVE",
"1067 482 OFFCURVE",
"1067 610 CURVE SMOOTH",
"1067 871 OFFCURVE",
"885 1041 OFFCURVE",
"526 1094 CURVE",
"574 1249 OFFCURVE",
"614 1363 OFFCURVE",
"645 1438 CURVE",
"479 1483 LINE",
"354 1172 OFFCURVE",
"121 347 OFFCURVE",
"68 -16 CURVE",
"242 -31 LINE"
);
}
);
width = 1157;
}
);
note = g115;
},
{
glyphname = g116;
lastChange = "2016-11-10 14:33:41 +0000";
layers = (
{
layerId = "92EE8359-DCEC-4BBC-AA28-09DFA7713AD8";
paths = (
{
closed = 1;
nodes = (
"446 182 OFFCURVE",
"556 621 OFFCURVE",
"655 948 CURVE",
"722 937 OFFCURVE",
"782 922 OFFCURVE",
"833 903 CURVE",
"794 732 OFFCURVE",
"739 524 OFFCURVE",
"668 281 CURVE",
"818 264 LINE",
"865 464 OFFCURVE",
"906 659 OFFCURVE",
"939 849 CURVE",
"1027 788 OFFCURVE",
"1071 703 OFFCURVE",
"1071 596 CURVE SMOOTH",
"1071 521 OFFCURVE",
"1038 448 OFFCURVE",
"971 377 CURVE",
"1100 270 LINE",
"1198 369 OFFCURVE",
"1247 482 OFFCURVE",
"1247 610 CURVE SMOOTH",
"1247 883 OFFCURVE",
"1055 1049 OFFCURVE",
"698 1096 CURVE",
"745 1245 OFFCURVE",
"784 1359 OFFCURVE",
"817 1438 CURVE",
"651 1483 LINE",
"617 1402 OFFCURVE",
"573 1275 OFFCURVE",
"520 1102 CURVE",
"357 1092 OFFCURVE",
"229 1067 OFFCURVE",
"135 1028 CURVE",
"172 887 LINE",
"261 918 OFFCURVE",
"362 937 OFFCURVE",
"473 946 CURVE",
"347 521 OFFCURVE",
"269 200 OFFCURVE",
"240 -16 CURVE",
"414 -31 LINE"
);
}
);
width = 1337;
}
);
note = g116;
},
{
glyphname = g117;
lastChange = "2016-11-10 14:33:41 +0000";
layers = (
{
layerId = "92EE8359-DCEC-4BBC-AA28-09DFA7713AD8";
paths = (
{
closed = 1;
nodes = (
"241 197 OFFCURVE",
"479 660 OFFCURVE",
"622 985 CURVE",
"567 723 OFFCURVE",
"508 488 OFFCURVE",
"446 281 CURVE",
"596 264 LINE",
"639 449 OFFCURVE",
"681 652 OFFCURVE",
"721 872 CURVE",
"805 513 OFFCURVE",
"920 188 OFFCURVE",
"1036 -35 CURVE",
"1198 39 LINE",
"1141 148 OFFCURVE",
"1083 291 OFFCURVE",
"1023 468 CURVE SMOOTH",
"902 822 OFFCURVE",
"814 1208 OFFCURVE",
"795 1475 CURVE",
"629 1462 LINE",
"612 1377 OFFCURVE",
"564 1244 OFFCURVE",
"485 1065 CURVE SMOOTH",
"328 706 OFFCURVE",
"83 240 OFFCURVE",
"-49 33 CURVE",
"96 -35 LINE"
);
}
);
width = 1288;
}
);
note = g117;
},
{
glyphname = g118;
lastChange = "2016-11-10 14:33:41 +0000";
layers = (
{
layerId = "92EE8359-DCEC-4BBC-AA28-09DFA7713AD8";
paths = (
{
closed = 1;
nodes = (
"1169 78 OFFCURVE",
"1219 210 OFFCURVE",
"1268 363 CURVE SMOOTH",
"1366 668 OFFCURVE",
"1413 919 OFFCURVE",
"1413 1096 CURVE SMOOTH",
"1413 1333 OFFCURVE",
"1279 1460 OFFCURVE",
"1042 1460 CURVE SMOOTH",
"870 1460 OFFCURVE",
"599 1417 OFFCURVE",
"451 1365 CURVE",
"408 1097 OFFCURVE",
"186 241 OFFCURVE",
"90 16 CURVE",
"252 -27 LINE",
"347 190 OFFCURVE",
"525 840 OFFCURVE",
"606 1255 CURVE",
"687 1274 OFFCURVE",
"784 1288 OFFCURVE",
"896 1296 CURVE",
"860 1109 OFFCURVE",
"754 669 OFFCURVE",
"697 481 CURVE",
"857 464 LINE",
"934 800 OFFCURVE",
"988 1079 OFFCURVE",
"1020 1300 CURVE",
"1153 1300 OFFCURVE",
"1237 1211 OFFCURVE",
"1237 1087 CURVE SMOOTH",
"1237 1000 OFFCURVE",
"1226 897 OFFCURVE",
"1203 778 CURVE SMOOTH",
"1157 541 OFFCURVE",
"1053 218 OFFCURVE",
"958 10 CURVE",
"1120 -33 LINE"
);
}
);
width = 1518;
}
);
note = g118;
},
{
glyphname = g119;
lastChange = "2016-11-10 14:33:41 +0000";
layers = (
{
layerId = "92EE8359-DCEC-4BBC-AA28-09DFA7713AD8";
paths = (
{
closed = 1;
nodes = (
"997 260 OFFCURVE",
"1135 483 OFFCURVE",
"1135 655 CURVE SMOOTH",
"1135 828 OFFCURVE",
"1022 922 OFFCURVE",
"815 922 CURVE",
"887 990 OFFCURVE",
"930 1080 OFFCURVE",
"930 1176 CURVE SMOOTH",
"930 1323 OFFCURVE",
"860 1416 OFFCURVE",
"719 1457 CURVE",
"753 1617 LINE",
"653 1650 LINE",
"648 1620 OFFCURVE",
"633 1562 OFFCURVE",
"609 1477 CURVE",
"574 1481 OFFCURVE",
"537 1483 OFFCURVE",
"498 1483 CURVE SMOOTH",
"442 1483 OFFCURVE",
"379 1478 OFFCURVE",
"309 1468 CURVE",
"332 1323 LINE",
"381 1331 OFFCURVE",
"432 1335 OFFCURVE",
"485 1335 CURVE SMOOTH",
"514 1335 OFFCURVE",
"540 1334 OFFCURVE",
"564 1331 CURVE",
"479 1066 OFFCURVE",
"380 786 OFFCURVE",
"266 492 CURVE",
"418 447 LINE",
"441 514 OFFCURVE",
"474 613 OFFCURVE",
"517 746 CURVE",
"569 765 OFFCURVE",
"665 780 OFFCURVE",
"725 780 CURVE SMOOTH",
"882 780 OFFCURVE",
"958 748 OFFCURVE",
"958 647 CURVE SMOOTH",
"958 498 OFFCURVE",
"870 353 OFFCURVE",
"633 141 CURVE",
"722 13 LINE"
);
},
{
closed = 1;
nodes = (
"849 -512 OFFCURVE",
"886 -432 OFFCURVE",
"886 -346 CURVE SMOOTH",
"886 -181 OFFCURVE",
"784 -76 OFFCURVE",
"579 -31 CURVE",
"585 8 OFFCURVE",
"588 47 OFFCURVE",
"588 88 CURVE SMOOTH",
"588 308 OFFCURVE",
"485 418 OFFCURVE",
"279 418 CURVE SMOOTH",
"110 418 OFFCURVE",
"-8 311 OFFCURVE",
"-8 164 CURVE SMOOTH",
"-8 85 OFFCURVE",
"27 9 OFFCURVE",
"98 -63 CURVE",
"205 26 LINE",
"157 78 OFFCURVE",
"133 125 OFFCURVE",
"133 168 CURVE SMOOTH",
"133 240 OFFCURVE",
"190 289 OFFCURVE",
"279 289 CURVE SMOOTH",
"389 289 OFFCURVE",
"444 220 OFFCURVE",
"444 83 CURVE SMOOTH",
"444 -65 OFFCURVE",
"373 -290 OFFCURVE",
"248 -549 CURVE",
"384 -584 LINE",
"448 -461 OFFCURVE",
"521 -281 OFFCURVE",
"553 -158 CURVE",
"678 -193 OFFCURVE",
"740 -258 OFFCURVE",
"740 -355 CURVE SMOOTH",
"740 -398 OFFCURVE",
"716 -445 OFFCURVE",
"667 -495 CURVE",
"775 -586 LINE"
);
},
{
closed = 1;
nodes = (
"612 1058 OFFCURVE",
"649 1186 OFFCURVE",
"678 1299 CURVE",
"729 1272 OFFCURVE",
"754 1229 OFFCURVE",
"754 1171 CURVE SMOOTH",
"754 1035 OFFCURVE",
"700 960 OFFCURVE",
"569 915 CURVE"
);
}
);
width = 1225;
}
);
note = g119;
},
{
glyphname = g120;
lastChange = "2016-11-10 14:33:41 +0000";
layers = (
{
layerId = "92EE8359-DCEC-4BBC-AA28-09DFA7713AD8";
paths = (
{
closed = 1;
nodes = (
"690 100 OFFCURVE",
"776 386 OFFCURVE",
"776 658 CURVE SMOOTH",
"776 697 OFFCURVE",
"773 746 OFFCURVE",
"768 807 CURVE",
"1032 836 OFFCURVE",
"1170 991 OFFCURVE",
"1170 1256 CURVE SMOOTH",
"1170 1340 OFFCURVE",
"1135 1450 OFFCURVE",
"1086 1501 CURVE",
"941 1439 LINE",
"978 1382 OFFCURVE",
"998 1302 OFFCURVE",
"998 1249 CURVE SMOOTH",
"998 1053 OFFCURVE",
"886 952 OFFCURVE",
"677 952 CURVE SMOOTH",
"464 952 OFFCURVE",
"357 1037 OFFCURVE",
"357 1206 CURVE SMOOTH",
"357 1278 OFFCURVE",
"393 1360 OFFCURVE",
"438 1400 CURVE",
"308 1495 LINE",
"237 1427 OFFCURVE",
"180 1297 OFFCURVE",
"180 1192 CURVE SMOOTH",
"180 976 OFFCURVE",
"340 825 OFFCURVE",
"596 804 CURVE",
"600 666 LINE SMOOTH",
"600 430 OFFCURVE",
"531 149 OFFCURVE",
"436 44 CURVE",
"581 -27 LINE"
);
}
);
width = 1330;
}
);
note = g120;
},
{
glyphname = g121;
lastChange = "2016-11-10 14:33:41 +0000";
layers = (
{
layerId = "92EE8359-DCEC-4BBC-AA28-09DFA7713AD8";
paths = (
{
closed = 1;
nodes = (
"732 -11 OFFCURVE",
"880 110 OFFCURVE",
"880 301 CURVE SMOOTH",
"880 397 OFFCURVE",
"872 521 OFFCURVE",
"857 672 CURVE SMOOTH",
"842 823 OFFCURVE",
"834 945 OFFCURVE",
"834 1037 CURVE SMOOTH",
"834 1221 OFFCURVE",
"924 1329 OFFCURVE",
"1069 1329 CURVE SMOOTH",
"1164 1329 OFFCURVE",
"1250 1279 OFFCURVE",
"1306 1178 CURVE",
"1437 1258 LINE",
"1382 1386 OFFCURVE",
"1229 1480 OFFCURVE",
"1069 1480 CURVE SMOOTH",
"986 1480 OFFCURVE",
"915 1464 OFFCURVE",
"854 1432 CURVE SMOOTH",
"732 1368 OFFCURVE",
"658 1231 OFFCURVE",
"658 1064 CURVE SMOOTH",
"658 969 OFFCURVE",
"660 894 OFFCURVE",
"683 683 CURVE SMOOTH",
"706 479 OFFCURVE",
"708 415 OFFCURVE",
"708 307 CURVE SMOOTH",
"708 208 OFFCURVE",
"627 140 OFFCURVE",
"516 140 CURVE SMOOTH",
"379 140 OFFCURVE",
"296 224 OFFCURVE",
"296 356 CURVE SMOOTH",
"296 417 OFFCURVE",
"310 469 OFFCURVE",
"339 512 CURVE",
"218 597 LINE",
"153 514 OFFCURVE",
"120 424 OFFCURVE",
"120 329 CURVE SMOOTH",
"120 117 OFFCURVE",
"270 -11 OFFCURVE",
"515 -11 CURVE SMOOTH"
);
}
);
width = 1517;
}
);
note = g121;
},
{
glyphname = g122;
lastChange = "2016-11-10 14:33:41 +0000";
layers = (
{
layerId = "92EE8359-DCEC-4BBC-AA28-09DFA7713AD8";
paths = (
{
closed = 1;
nodes = (
"725 105 OFFCURVE",
"855 336 OFFCURVE",
"948 559 CURVE",
"990 553 OFFCURVE",
"1036 550 OFFCURVE",
"1087 550 CURVE SMOOTH",
"1323 550 OFFCURVE",
"1473 704 OFFCURVE",
"1473 951 CURVE SMOOTH",
"1473 987 OFFCURVE",
"1468 1036 OFFCURVE",
"1458 1099 CURVE SMOOTH",
"1448 1161 OFFCURVE",
"1443 1210 OFFCURVE",
"1443 1247 CURVE SMOOTH",
"1443 1310 OFFCURVE",
"1456 1365 OFFCURVE",
"1483 1411 CURVE",
"1349 1496 LINE",
"1301 1419 OFFCURVE",
"1277 1337 OFFCURVE",
"1277 1251 CURVE SMOOTH",
"1277 1212 OFFCURVE",
"1280 1160 OFFCURVE",
"1287 1095 CURVE SMOOTH",
"1294 1029 OFFCURVE",
"1297 980 OFFCURVE",
"1297 947 CURVE SMOOTH",
"1297 775 OFFCURVE",
"1228 695 OFFCURVE",
"1091 695 CURVE SMOOTH",
"1057 695 OFFCURVE",
"1027 697 OFFCURVE",
"1002 700 CURVE",
"1057 857 OFFCURVE",
"1085 989 OFFCURVE",
"1085 1096 CURVE SMOOTH",
"1085 1332 OFFCURVE",
"952 1460 OFFCURVE",
"715 1460 CURVE SMOOTH",
"555 1460 OFFCURVE",
"360 1423 OFFCURVE",
"203 1364 CURVE",
"240 1223 LINE",
"393 1274 OFFCURVE",
"543 1300 OFFCURVE",
"692 1300 CURVE SMOOTH",
"825 1300 OFFCURVE",
"909 1211 OFFCURVE",
"909 1087 CURVE SMOOTH",
"909 1001 OFFCURVE",
"892 901 OFFCURVE",
"858 787 CURVE SMOOTH",
"790 559 OFFCURVE",
"636 258 OFFCURVE",
"483 53 CURVE",
"625 -35 LINE"
);
}
);
width = 1643;
}
);
note = g122;
},
{
glyphname = g123;
lastChange = "2016-11-10 14:33:41 +0000";
layers = (
{
layerId = "92EE8359-DCEC-4BBC-AA28-09DFA7713AD8";
paths = (
{
closed = 1;
nodes = (
"776 181 OFFCURVE",
"919 466 OFFCURVE",
"996 683 CURVE",
"1126 683 OFFCURVE",
"1258 679 OFFCURVE",
"1393 672 CURVE",
"1425 820 LINE",
"1303 828 OFFCURVE",
"1176 833 OFFCURVE",
"1044 834 CURVE",
"1071 931 OFFCURVE",
"1085 1019 OFFCURVE",
"1085 1096 CURVE SMOOTH",
"1085 1332 OFFCURVE",
"952 1460 OFFCURVE",
"715 1460 CURVE SMOOTH",
"555 1460 OFFCURVE",
"360 1423 OFFCURVE",
"203 1364 CURVE",
"240 1223 LINE",
"393 1274 OFFCURVE",
"543 1300 OFFCURVE",
"692 1300 CURVE SMOOTH",
"825 1300 OFFCURVE",
"909 1211 OFFCURVE",
"909 1087 CURVE SMOOTH",
"909 1011 OFFCURVE",
"896 927 OFFCURVE",
"871 834 CURVE",
"684 830 OFFCURVE",
"531 825 OFFCURVE",
"411 818 CURVE",
"379 663 LINE",
"515 672 OFFCURVE",
"663 678 OFFCURVE",
"822 681 CURVE",
"745 470 OFFCURVE",
"610 221 OFFCURVE",
"483 53 CURVE",
"625 -35 LINE"
);
}
);
width = 1445;
}
);
note = g123;
},
{
glyphname = g124;
lastChange = "2016-11-10 14:33:41 +0000";
layers = (
{
layerId = "92EE8359-DCEC-4BBC-AA28-09DFA7713AD8";
paths = (
{
closed = 1;
nodes = (
"605 -174 OFFCURVE",
"742 -45 OFFCURVE",
"745 182 CURVE",
"777 201 OFFCURVE",
"803 224 OFFCURVE",
"824 250 CURVE",
"1016 377 OFFCURVE",
"1179 636 OFFCURVE",
"1235 900 CURVE",
"1266 897 OFFCURVE",
"1300 896 OFFCURVE",
"1337 896 CURVE SMOOTH",
"1419 896 OFFCURVE",
"1496 913 OFFCURVE",
"1567 946 CURVE SMOOTH",
"1710 1013 OFFCURVE",
"1794 1137 OFFCURVE",
"1794 1289 CURVE SMOOTH",
"1794 1358 OFFCURVE",
"1780 1415 OFFCURVE",
"1751 1460 CURVE SMOOTH",
"1694 1548 OFFCURVE",
"1601 1593 OFFCURVE",
"1344 1625 CURVE SMOOTH",
"1175 1646 OFFCURVE",
"1088 1690 OFFCURVE",
"1063 1787 CURVE",
"922 1735 LINE",
"937 1674 OFFCURVE",
"958 1629 OFFCURVE",
"987 1598 CURVE SMOOTH",
"1043 1537 OFFCURVE",
"1148 1499 OFFCURVE",
"1325 1479 CURVE SMOOTH",
"1553 1451 OFFCURVE",
"1618 1398 OFFCURVE",
"1618 1285 CURVE SMOOTH",
"1618 1138 OFFCURVE",
"1506 1041 OFFCURVE",
"1341 1041 CURVE SMOOTH",
"1302 1041 LINE",
"1264 1043 LINE",
"1264 1135 OFFCURVE",
"1243 1222 OFFCURVE",
"1219 1254 CURVE",
"1083 1221 LINE",
"1094 1185 OFFCURVE",
"1100 1135 OFFCURVE",
"1100 1072 CURVE SMOOTH",
"1100 864 OFFCURVE",
"1008 642 OFFCURVE",
"869 493 CURVE",
"841 586 OFFCURVE",
"755 655 OFFCURVE",
"642 674 CURVE",
"591 534 LINE",
"672 527 OFFCURVE",
"723 476 OFFCURVE",
"723 408 CURVE SMOOTH",
"723 327 OFFCURVE",
"655 280 OFFCURVE",
"543 280 CURVE SMOOTH",
"519 280 OFFCURVE",
"500 281 OFFCURVE",
"487 284 CURVE",
"427 140 LINE",
"458 133 OFFCURVE",
"488 129 OFFCURVE",
"519 129 CURVE",
"581 132 LINE",
"568 15 OFFCURVE",
"499 -43 OFFCURVE",
"372 -43 CURVE SMOOTH",
"231 -43 OFFCURVE",
"146 32 OFFCURVE",
"146 165 CURVE SMOOTH",
"146 183 OFFCURVE",
"148 204 OFFCURVE",
"152 228 CURVE",
"4 252 LINE",
"-5 213 OFFCURVE",
"-10 175 OFFCURVE",
"-10 138 CURVE SMOOTH",
"-10 -50 OFFCURVE",
"133 -174 OFFCURVE",
"372 -174 CURVE SMOOTH"
);
}
);
width = 1884;
}
);
note = g124;
},
{
glyphname = g125;
lastChange = "2016-11-10 14:33:41 +0000";
layers = (
{
layerId = "92EE8359-DCEC-4BBC-AA28-09DFA7713AD8";
paths = (
{
closed = 1;
nodes = (
"1189 83 OFFCURVE",
"1247 210 OFFCURVE",
"1247 343 CURVE SMOOTH",
"1247 458 OFFCURVE",
"1204 552 OFFCURVE",
"1119 626 CURVE",
"1134 691 OFFCURVE",
"1141 755 OFFCURVE",
"1141 817 CURVE SMOOTH",
"1141 1040 OFFCURVE",
"1034 1128 OFFCURVE",
"801 1128 CURVE SMOOTH",
"749 1128 OFFCURVE",
"700 1125 OFFCURVE",
"653 1120 CURVE SMOOTH",
"606 1115 OFFCURVE",
"559 1112 OFFCURVE",
"512 1112 CURVE SMOOTH",
"405 1112 OFFCURVE",
"352 1147 OFFCURVE",
"352 1217 CURVE SMOOTH",
"352 1282 OFFCURVE",
"402 1335 OFFCURVE",
"483 1356 CURVE",
"432 1497 LINE",
"289 1473 OFFCURVE",
"180 1358 OFFCURVE",
"180 1221 CURVE SMOOTH",
"180 1050 OFFCURVE",
"292 952 OFFCURVE",
"487 952 CURVE SMOOTH",
"539 952 OFFCURVE",
"588 955 OFFCURVE",
"635 961 CURVE SMOOTH",
"682 966 OFFCURVE",
"729 969 OFFCURVE",
"776 969 CURVE SMOOTH",
"903 969 OFFCURVE",
"965 929 OFFCURVE",
"965 817 CURVE SMOOTH",
"965 779 OFFCURVE",
"963 745 OFFCURVE",
"958 714 CURVE",
"892 735 OFFCURVE",
"818 745 OFFCURVE",
"735 745 CURVE SMOOTH",
"649 745 OFFCURVE",
"570 729 OFFCURVE",
"498 696 CURVE SMOOTH",
"354 631 OFFCURVE",
"269 505 OFFCURVE",
"269 362 CURVE SMOOTH",
"269 197 OFFCURVE",
"398 82 OFFCURVE",
"581 82 CURVE SMOOTH",
"781 82 OFFCURVE",
"928 184 OFFCURVE",
"1053 439 CURVE",
"1065 410 OFFCURVE",
"1071 379 OFFCURVE",
"1071 346 CURVE SMOOTH",
"1071 257 OFFCURVE",
"1035 166 OFFCURVE",
"963 73 CURVE",
"1073 -40 LINE"
);
},
{
closed = 1;
nodes = (
"502 233 OFFCURVE",
"441 288 OFFCURVE",
"441 372 CURVE SMOOTH",
"441 512 OFFCURVE",
"554 594 OFFCURVE",
"735 594 CURVE SMOOTH",
"808 594 OFFCURVE",
"869 584 OFFCURVE",
"920 563 CURVE",
"826 343 OFFCURVE",
"717 233 OFFCURVE",
"593 233 CURVE SMOOTH"
);
}
);
width = 1347;
}
);
note = g125;
},
{
glyphname = g126;
lastChange = "2016-11-10 14:33:41 +0000";
layers = (
{
layerId = "92EE8359-DCEC-4BBC-AA28-09DFA7713AD8";
paths = (
{
closed = 1;
nodes = (
"1161 -10 OFFCURVE",
"1276 74 OFFCURVE",
"1327 214 CURVE",
"1166 277 LINE",
"1137 192 OFFCURVE",
"1080 150 OFFCURVE",
"996 150 CURVE SMOOTH",
"899 150 OFFCURVE",
"851 188 OFFCURVE",
"851 263 CURVE SMOOTH",
"851 340 OFFCURVE",
"882 426 OFFCURVE",
"951 558 CURVE SMOOTH",
"1018 685 OFFCURVE",
"1051 800 OFFCURVE",
"1051 903 CURVE SMOOTH",
"1051 1090 OFFCURVE",
"933 1165 OFFCURVE",
"680 1165 CURVE SMOOTH",
"581 1165 OFFCURVE",
"512 1167 OFFCURVE",
"472 1172 CURVE SMOOTH",
"391 1180 OFFCURVE",
"365 1194 OFFCURVE",
"365 1253 CURVE SMOOTH",
"365 1295 OFFCURVE",
"378 1360 OFFCURVE",
"403 1448 CURVE",
"240 1475 LINE",
"220 1412 OFFCURVE",
"203 1305 OFFCURVE",
"203 1221 CURVE SMOOTH",
"203 1093 OFFCURVE",
"241 1046 OFFCURVE",
"356 1023 CURVE SMOOTH",
"413 1012 OFFCURVE",
"514 1006 OFFCURVE",
"657 1006 CURVE SMOOTH",
"816 1006 OFFCURVE",
"874 978 OFFCURVE",
"874 895 CURVE SMOOTH",
"874 808 OFFCURVE",
"841 696 OFFCURVE",
"774 559 CURVE SMOOTH",
"707 422 OFFCURVE",
"674 328 OFFCURVE",
"674 252 CURVE SMOOTH",
"674 85 OFFCURVE",
"795 -10 OFFCURVE",
"1000 -10 CURVE SMOOTH"
);
}
);
width = 1427;
}
);
note = g126;
},
{
glyphname = g127;
lastChange = "2016-11-10 14:33:41 +0000";
layers = (
{
layerId = "92EE8359-DCEC-4BBC-AA28-09DFA7713AD8";
paths = (
{
closed = 1;
nodes = (
"666 215 OFFCURVE",
"745 541 OFFCURVE",
"867 947 CURVE",
"1139 898 OFFCURVE",
"1275 781 OFFCURVE",
"1275 596 CURVE SMOOTH",
"1275 521 OFFCURVE",
"1242 448 OFFCURVE",
"1175 377 CURVE",
"1304 270 LINE",
"1402 369 OFFCURVE",
"1451 482 OFFCURVE",
"1451 610 CURVE SMOOTH",
"1451 873 OFFCURVE",
"1268 1040 OFFCURVE",
"911 1093 CURVE",
"962 1254 OFFCURVE",
"1003 1369 OFFCURVE",
"1032 1438 CURVE",
"866 1483 LINE",
"827 1388 OFFCURVE",
"784 1261 OFFCURVE",
"735 1102 CURVE",
"451 1097 OFFCURVE",
"256 1073 OFFCURVE",
"150 1028 CURVE",
"186 887 LINE",
"311 928 OFFCURVE",
"462 945 OFFCURVE",
"690 952 CURVE",
"590 620 OFFCURVE",
"486 212 OFFCURVE",
"455 -16 CURVE",
"629 -31 LINE"
);
}
);
width = 1541;
}
);
note = g127;
},
{
glyphname = g128;
lastChange = "2016-11-10 14:33:41 +0000";
layers = (
{
layerId = "92EE8359-DCEC-4BBC-AA28-09DFA7713AD8";
paths = (
{
closed = 1;
nodes = (
"344 72 OFFCURVE",
"368 192 OFFCURVE",
"401 329 CURVE",
"488 242 OFFCURVE",
"559 125 OFFCURVE",
"616 -22 CURVE",
"778 58 LINE",
"694 259 OFFCURVE",
"584 413 OFFCURVE",
"449 518 CURVE",
"486 661 OFFCURVE",
"526 804 OFFCURVE",
"569 948 CURVE",
"848 899 OFFCURVE",
"977 783 OFFCURVE",
"977 596 CURVE SMOOTH",
"977 521 OFFCURVE",
"944 448 OFFCURVE",
"877 377 CURVE",
"1006 270 LINE",
"1104 369 OFFCURVE",
"1153 482 OFFCURVE",
"1153 610 CURVE SMOOTH",
"1153 871 OFFCURVE",
"971 1041 OFFCURVE",
"612 1094 CURVE",
"660 1249 OFFCURVE",
"700 1363 OFFCURVE",
"731 1438 CURVE",
"565 1483 LINE",
"492 1305 OFFCURVE",
"401 1013 OFFCURVE",
"292 608 CURVE",
"219 637 OFFCURVE",
"144 651 OFFCURVE",
"68 651 CURVE SMOOTH",
"26 651 OFFCURVE",
"-10 648 OFFCURVE",
"-40 643 CURVE",
"-22 471 LINE",
"5 476 OFFCURVE",
"34 478 OFFCURVE",
"63 478 CURVE SMOOTH",
"129 478 OFFCURVE",
"191 464 OFFCURVE",
"248 437 CURVE",
"201 248 OFFCURVE",
"170 97 OFFCURVE",
"154 -16 CURVE",
"328 -31 LINE"
);
}
);
width = 1243;
}
);
note = g128;
},
{
glyphname = g129;
lastChange = "2016-11-10 14:33:41 +0000";
layers = (
{
layerId = "92EE8359-DCEC-4BBC-AA28-09DFA7713AD8";
paths = (
{
closed = 1;
nodes = (
"804 70 OFFCURVE",
"847 167 OFFCURVE",
"884 257 CURVE",
"943 180 OFFCURVE",
"994 87 OFFCURVE",
"1036 -22 CURVE",
"1198 58 LINE",
"1133 213 OFFCURVE",
"1051 342 OFFCURVE",
"952 443 CURVE",
"975 508 OFFCURVE",
"993 570 OFFCURVE",
"1008 629 CURVE",
"1235 573 OFFCURVE",
"1339 462 OFFCURVE",
"1339 293 CURVE SMOOTH",
"1339 218 OFFCURVE",
"1306 145 OFFCURVE",
"1239 74 CURVE",
"1368 -33 LINE",
"1467 67 OFFCURVE",
"1516 180 OFFCURVE",
"1516 307 CURVE SMOOTH",
"1516 555 OFFCURVE",
"1355 717 OFFCURVE",
"1038 778 CURVE",
"1051 845 OFFCURVE",
"1057 912 OFFCURVE",
"1057 979 CURVE SMOOTH",
"1057 1306 OFFCURVE",
"898 1466 OFFCURVE",
"602 1466 CURVE SMOOTH",
"519 1466 OFFCURVE",
"446 1450 OFFCURVE",
"382 1419 CURVE SMOOTH",
"254 1355 OFFCURVE",
"180 1237 OFFCURVE",
"180 1098 CURVE SMOOTH",
"180 981 OFFCURVE",
"228 874 OFFCURVE",
"324 778 CURVE",
"453 885 LINE",
"386 956 OFFCURVE",
"352 1029 OFFCURVE",
"352 1104 CURVE SMOOTH",
"352 1231 OFFCURVE",
"453 1315 OFFCURVE",
"602 1315 CURVE SMOOTH",
"786 1315 OFFCURVE",
"881 1196 OFFCURVE",
"881 971 CURVE SMOOTH",
"881 852 OFFCURVE",
"857 715 OFFCURVE",
"810 558 CURVE",
"710 620 OFFCURVE",
"603 651 OFFCURVE",
"488 651 CURVE SMOOTH",
"446 651 OFFCURVE",
"410 648 OFFCURVE",
"380 643 CURVE",
"398 471 LINE",
"425 476 OFFCURVE",
"454 478 OFFCURVE",
"483 478 CURVE SMOOTH",
"581 478 OFFCURVE",
"671 448 OFFCURVE",
"753 387 CURVE",
"706 259 OFFCURVE",
"652 134 OFFCURVE",
"590 12 CURVE",
"754 -33 LINE"
);
}
);
width = 1636;
}
);
note = g129;
},
{
glyphname = g130;
lastChange = "2016-11-10 14:33:41 +0000";
layers = (
{
layerId = "92EE8359-DCEC-4BBC-AA28-09DFA7713AD8";
paths = (
{
closed = 1;
nodes = (
"1147 -10 OFFCURVE",
"1483 481 OFFCURVE",
"1668 1462 CURVE",
"1500 1490 LINE",
"1460 1221 OFFCURVE",
"1398 983 OFFCURVE",
"1313 776 CURVE SMOOTH",
"1144 362 OFFCURVE",
"915 141 OFFCURVE",
"660 141 CURVE SMOOTH",
"610 141 OFFCURVE",
"573 146 OFFCURVE",
"550 157 CURVE SMOOTH",
"527 168 OFFCURVE",
"515 185 OFFCURVE",
"515 210 CURVE SMOOTH",
"515 254 OFFCURVE",
"596 309 OFFCURVE",
"757 376 CURVE SMOOTH",
"801 395 LINE",
"1040 511 OFFCURVE",
"1141 638 OFFCURVE",
"1141 817 CURVE SMOOTH",
"1141 1040 OFFCURVE",
"1034 1128 OFFCURVE",
"801 1128 CURVE SMOOTH",
"749 1128 OFFCURVE",
"700 1125 OFFCURVE",
"653 1120 CURVE SMOOTH",
"606 1115 OFFCURVE",
"559 1112 OFFCURVE",
"512 1112 CURVE SMOOTH",
"405 1112 OFFCURVE",
"352 1147 OFFCURVE",
"352 1217 CURVE SMOOTH",
"352 1282 OFFCURVE",
"402 1335 OFFCURVE",
"483 1356 CURVE",
"432 1497 LINE",
"289 1473 OFFCURVE",
"180 1358 OFFCURVE",
"180 1221 CURVE SMOOTH",
"180 1050 OFFCURVE",
"292 952 OFFCURVE",
"487 952 CURVE SMOOTH",
"539 952 OFFCURVE",
"588 955 OFFCURVE",
"635 961 CURVE SMOOTH",
"682 966 OFFCURVE",
"729 969 OFFCURVE",
"776 969 CURVE SMOOTH",
"903 969 OFFCURVE",
"965 929 OFFCURVE",
"965 817 CURVE SMOOTH",
"965 676 OFFCURVE",
"858 577 OFFCURVE",
"637 488 CURVE SMOOTH",
"412 395 OFFCURVE",
"339 320 OFFCURVE",
"339 204 CURVE SMOOTH",
"339 52 OFFCURVE",
"456 -10 OFFCURVE",
"660 -10 CURVE SMOOTH"
);
}
);
width = 1763;
}
);
note = g130;
},
{
glyphname = g131;
lastChange = "2016-11-10 14:33:41 +0000";
layers = (
{
layerId = "92EE8359-DCEC-4BBC-AA28-09DFA7713AD8";
paths = (
{
closed = 1;
nodes = (
"787 -497 OFFCURVE",
"1033 -314 OFFCURVE",
"1033 -41 CURVE SMOOTH",
"1033 92 OFFCURVE",
"973 177 OFFCURVE",
"853 216 CURVE",
"910 353 OFFCURVE",
"957 490 OFFCURVE",
"994 629 CURVE",
"1221 573 OFFCURVE",
"1325 462 OFFCURVE",
"1325 293 CURVE SMOOTH",
"1325 218 OFFCURVE",
"1292 145 OFFCURVE",
"1225 74 CURVE",
"1354 -33 LINE",
"1453 67 OFFCURVE",
"1502 180 OFFCURVE",
"1502 307 CURVE SMOOTH",
"1502 555 OFFCURVE",
"1341 717 OFFCURVE",
"1024 778 CURVE",
"1037 845 OFFCURVE",
"1043 912 OFFCURVE",
"1043 979 CURVE SMOOTH",
"1043 1306 OFFCURVE",
"884 1466 OFFCURVE",
"588 1466 CURVE SMOOTH",
"505 1466 OFFCURVE",
"432 1450 OFFCURVE",
"368 1419 CURVE SMOOTH",
"240 1355 OFFCURVE",
"166 1237 OFFCURVE",
"166 1098 CURVE SMOOTH",
"166 981 OFFCURVE",
"214 874 OFFCURVE",
"310 778 CURVE",
"439 885 LINE",
"372 956 OFFCURVE",
"338 1029 OFFCURVE",
"338 1104 CURVE SMOOTH",
"338 1231 OFFCURVE",
"439 1315 OFFCURVE",
"588 1315 CURVE SMOOTH",
"772 1315 OFFCURVE",
"867 1196 OFFCURVE",
"867 971 CURVE SMOOTH",
"867 780 OFFCURVE",
"804 536 OFFCURVE",
"679 237 CURVE",
"634 236 OFFCURVE",
"591 233 OFFCURVE",
"549 228 CURVE SMOOTH",
"507 223 OFFCURVE",
"465 221 OFFCURVE",
"423 221 CURVE SMOOTH",
"320 221 OFFCURVE",
"281 237 OFFCURVE",
"281 298 CURVE SMOOTH",
"281 354 OFFCURVE",
"329 401 OFFCURVE",
"402 418 CURVE",
"354 533 LINE",
"229 517 OFFCURVE",
"120 412 OFFCURVE",
"120 295 CURVE SMOOTH",
"120 147 OFFCURVE",
"225 71 OFFCURVE",
"400 71 CURVE SMOOTH",
"449 71 OFFCURVE",
"496 74 OFFCURVE",
"542 80 CURVE SMOOTH",
"587 85 OFFCURVE",
"632 88 OFFCURVE",
"676 88 CURVE SMOOTH",
"803 88 OFFCURVE",
"866 44 OFFCURVE",
"866 -44 CURVE SMOOTH",
"866 -249 OFFCURVE",
"678 -377 OFFCURVE",
"259 -453 CURVE",
"295 -591 LINE"
);
}
);
width = 1622;
}
);
note = g131;
},
{
glyphname = g132;
lastChange = "2016-11-10 14:33:41 +0000";
layers = (
{
layerId = "92EE8359-DCEC-4BBC-AA28-09DFA7713AD8";
paths = (
{
closed = 1;
nodes = (
"690 100 OFFCURVE",
"776 386 OFFCURVE",
"776 658 CURVE SMOOTH",
"776 697 OFFCURVE",
"773 746 OFFCURVE",
"768 807 CURVE",
"1032 836 OFFCURVE",
"1170 991 OFFCURVE",
"1170 1256 CURVE SMOOTH",
"1170 1340 OFFCURVE",
"1135 1450 OFFCURVE",
"1086 1501 CURVE",
"941 1439 LINE",
"978 1382 OFFCURVE",
"998 1302 OFFCURVE",
"998 1249 CURVE SMOOTH",
"998 1053 OFFCURVE",
"886 952 OFFCURVE",
"677 952 CURVE SMOOTH",
"464 952 OFFCURVE",
"357 1037 OFFCURVE",
"357 1206 CURVE SMOOTH",
"357 1278 OFFCURVE",
"393 1360 OFFCURVE",
"438 1400 CURVE",
"308 1495 LINE",
"237 1427 OFFCURVE",
"180 1297 OFFCURVE",
"180 1192 CURVE SMOOTH",
"180 976 OFFCURVE",
"340 825 OFFCURVE",
"596 804 CURVE",
"600 666 LINE SMOOTH",
"600 430 OFFCURVE",
"531 149 OFFCURVE",
"436 44 CURVE",
"581 -27 LINE"
);
},
{
closed = 1;
nodes = (
"882 1099 OFFCURVE",
"913 1174 OFFCURVE",
"913 1239 CURVE SMOOTH",
"913 1350 OFFCURVE",
"853 1391 OFFCURVE",
"740 1406 CURVE SMOOTH",
"640 1419 OFFCURVE",
"590 1467 OFFCURVE",
"590 1567 CURVE SMOOTH",
"590 1652 OFFCURVE",
"662 1706 OFFCURVE",
"761 1706 CURVE SMOOTH",
"824 1706 OFFCURVE",
"909 1684 OFFCURVE",
"964 1653 CURVE",
"1013 1775 LINE",
"937 1812 OFFCURVE",
"831 1836 OFFCURVE",
"766 1836 CURVE SMOOTH",
"553 1836 OFFCURVE",
"445 1731 OFFCURVE",
"445 1535 CURVE SMOOTH",
"445 1396 OFFCURVE",
"544 1295 OFFCURVE",
"700 1279 CURVE SMOOTH",
"741 1275 OFFCURVE",
"767 1266 OFFCURVE",
"767 1237 CURVE SMOOTH",
"767 1200 OFFCURVE",
"723 1110 OFFCURVE",
"666 1034 CURVE",
"821 1014 LINE"
);
}
